<svg width="157" height="136" viewBox="0 0 157 136" fill="none" xmlns="http://www.w3.org/2000/svg">
<path d="M79.4607 134.544C103.457 134.544 122.91 110.13 122.91 80.0142C122.91 49.8985 103.457 25.4848 79.4607 25.4848C55.4643 25.4848 36.0114 49.8985 36.0114 80.0142C36.0114 110.13 55.4643 134.544 79.4607 134.544Z" fill="#E8EEF1"/>
<path d="M48.4078 117.392H21.6936C18.7805 117.392 16.4252 114.318 16.4252 110.515V105.58C16.4252 101.777 18.7805 98.7031 21.6936 98.7031H48.4078C51.321 98.7031 53.6763 101.777 53.6763 105.58V110.515C53.6763 114.318 51.321 117.392 48.4078 117.392ZM53.0565 80.0142H27.334C24.4208 80.0142 22.0655 76.9399 22.0655 73.1374V68.2022C22.0655 64.3997 24.4208 61.3254 27.334 61.3254H53.1184C56.0316 61.3254 58.3869 64.3997 58.3869 68.2022V73.1374C58.3249 76.9399 55.9696 80.0142 53.0565 80.0142Z" fill="#E8EEF1"/>
<path d="M57.7051 98.7031H27.8918C24.9787 98.7031 22.6234 95.6288 22.6234 91.8263V86.8911C22.6234 83.0886 24.9787 80.0143 27.8918 80.0143H57.7051C60.6182 80.0143 62.9735 83.0886 62.9735 86.8911V91.8263C62.9735 95.6288 60.6182 98.7031 57.7051 98.7031ZM42.8294 61.3254H13.0162C10.103 61.3254 7.74773 58.251 7.74773 54.4486V49.5134C7.74773 45.7109 10.103 42.6365 13.0162 42.6365H42.8294C45.7426 42.6365 48.0979 45.7109 48.0979 49.5134V54.4486C48.0979 58.251 45.7426 61.3254 42.8294 61.3254Z" fill="white"/>
<path d="M104.563 42.6365H133.757C136.67 42.6365 139.025 45.7109 139.025 49.5134V54.4486C139.025 58.251 136.67 61.3254 133.757 61.3254H104.563C101.65 61.3254 99.2949 58.251 99.2949 54.4486V49.5134C99.2949 45.7109 101.65 42.6365 104.563 42.6365ZM98.985 80.0143H125.699C128.612 80.0143 130.968 83.0886 130.968 86.8911V91.8263C130.968 95.6288 128.612 98.7031 125.699 98.7031H98.985C96.0718 98.7031 93.7165 95.6288 93.7165 91.8263V86.8911C93.7165 83.0886 96.0718 80.0143 98.985 80.0143Z" fill="#E8EEF1"/>
<path d="M114.48 61.3254H139.025C141.938 61.3254 144.294 64.3997 144.294 68.2022V73.1374C144.294 76.9399 141.938 80.0143 139.025 80.0143H114.48C111.567 80.0143 109.212 76.9399 109.212 73.1374V68.2022C109.212 64.3997 111.567 61.3254 114.48 61.3254Z" fill="white"/>
<path d="M151.732 98.7032H142.434C139.521 98.7032 137.166 95.6288 137.166 91.8263V86.8912C137.166 83.0887 139.521 80.0143 142.434 80.0143H151.732C154.645 80.0143 157 83.0887 157 86.8912V91.8263C157 95.6288 154.645 98.7032 151.732 98.7032ZM9.91709 61.3254H7.43782C3.409 61.2445 0.123964 65.4515 0 70.7103C0.123964 75.9691 3.409 80.0952 7.43782 80.0143H9.91709C13.9459 80.0952 17.2929 75.8882 17.3549 70.6294C17.2929 65.4515 13.9459 61.2445 9.91709 61.3254Z" fill="#E8EEF1"/>
<path d="M93.0967 42.6365H104.873C107.786 42.6365 110.142 45.7109 110.142 49.5134V54.4486C110.142 58.2511 107.786 61.3254 104.873 61.3254H93.0967C90.1836 61.3254 87.8283 58.2511 87.8283 54.4486V49.5134C87.8283 45.7109 90.1836 42.6365 93.0967 42.6365ZM72.2708 61.3254H84.0474C86.9605 61.3254 89.3158 64.3998 89.3158 68.2023V73.1374C89.3158 76.9399 86.9605 80.0143 84.0474 80.0143H72.2708C69.3577 80.0143 67.0024 76.9399 67.0024 73.1374V68.2023C67.0024 64.3998 69.3577 61.3254 72.2708 61.3254ZM98.3652 98.7032H123.53C126.443 98.7032 128.798 101.778 128.798 105.58V110.515C128.798 114.318 126.443 117.392 123.53 117.392H98.3652C95.452 117.392 93.0967 114.318 93.0967 110.515V105.58C93.0967 101.778 95.452 98.7032 98.3652 98.7032Z" fill="white"/>
<path d="M147.455 101.049C148.311 101.049 149.004 100.18 149.004 99.1077C149.004 98.0353 148.311 97.166 147.455 97.166C146.599 97.166 145.905 98.0353 145.905 99.1077C145.905 100.18 146.599 101.049 147.455 101.049Z" fill="#9FD3F2" stroke="#FAA934" stroke-width="2" stroke-miterlimit="10"/>
<path d="M110.514 29.1255L111.257 32.1999L113.675 33.1708L111.257 34.0607L110.514 37.1351L109.77 34.0607L107.291 33.1708L109.77 32.1999L110.514 29.1255Z" fill="#8BC9ED"/>
<path d="M75.7418 127.99L76.4856 131.065L78.9649 131.955L76.4856 132.926L75.7418 136L74.998 132.926L72.5807 131.955L74.998 131.065L75.7418 127.99Z" fill="#FBB147"/>
<path d="M122.29 70.3867L123.034 73.461L125.513 74.351L123.034 75.3218L122.29 78.3962L121.546 75.3218L119.129 74.351L121.546 73.461L122.29 70.3867Z" fill="#FAA934"/>
<path d="M117.208 101.13C116.836 101.13 116.588 100.807 116.588 100.321V97.2468C116.588 96.7614 116.836 96.4378 117.208 96.4378C117.58 96.4378 117.827 96.7614 117.827 97.2468V100.321C117.827 100.807 117.518 101.13 117.208 101.13ZM117.208 110.434C116.836 110.434 116.588 110.111 116.588 109.625V106.47C116.588 105.985 116.836 105.661 117.208 105.661C117.58 105.661 117.827 105.985 117.827 106.47V109.625C117.827 110.03 117.518 110.434 117.208 110.434ZM122.166 104.205H119.687C119.377 104.286 119.005 104.043 118.943 103.638C118.881 103.234 119.067 102.748 119.377 102.667H122.166C122.476 102.587 122.848 102.829 122.91 103.234C122.972 103.638 122.786 104.124 122.476 104.205H122.166ZM114.728 104.205H112.249C111.939 104.286 111.567 104.043 111.505 103.638C111.443 103.234 111.629 102.748 111.939 102.667H114.728C115.038 102.587 115.41 102.829 115.472 103.234C115.534 103.638 115.348 104.124 115.038 104.205H114.728Z" fill="#104470"/>
<path d="M117.208 104.205C117.55 104.205 117.827 103.842 117.827 103.396C117.827 102.949 117.55 102.587 117.208 102.587C116.865 102.587 116.588 102.949 116.588 103.396C116.588 103.842 116.865 104.205 117.208 104.205Z" fill="#104470"/>
<path d="M51.3829 30.2582H48.9037M53.8622 24.0286V27.1029V24.0286ZM53.8622 33.3325V36.4878V33.3325ZM58.8208 30.2582H56.3415H58.8208Z" stroke="#8BC9ED" stroke-width="2" stroke-miterlimit="10" stroke-linecap="round"/>
<path d="M53.8622 31.0672C54.2045 31.0672 54.482 30.705 54.482 30.2582C54.482 29.8114 54.2045 29.4492 53.8622 29.4492C53.5199 29.4492 53.2424 29.8114 53.2424 30.2582C53.2424 30.705 53.5199 31.0672 53.8622 31.0672Z" fill="#8BC9ED"/>
<path d="M101.96 123.864C102.394 123.864 102.704 123.46 102.704 122.893C102.704 122.327 102.394 121.923 101.96 121.923C101.526 121.923 101.216 122.327 101.216 122.893C101.216 123.46 101.588 123.864 101.96 123.864ZM125.885 84.5449V84.3831C125.885 84.1404 125.699 83.8976 125.513 83.8976C125.327 83.8976 125.141 84.1404 125.141 84.3831V84.5449C125.141 84.7876 125.327 85.0303 125.513 85.0303C125.761 85.0303 125.885 84.7876 125.885 84.5449ZM128.612 87.6192C128.488 87.5383 128.302 87.6192 128.24 87.781C128.178 87.9429 128.178 88.1047 128.302 88.1856C128.55 88.5901 128.984 87.862 128.612 87.6192Z" fill="#094B7C"/>
<path d="M22.5614 94.658C23.1192 94.5771 23.4911 94.0107 23.4911 93.2826C23.4291 92.6354 23.0572 92.1499 22.5614 92.069C22.0036 92.1499 21.6317 92.7163 21.6317 93.4444C21.6936 94.0916 22.0655 94.5771 22.5614 94.658Z" fill="#FAA934"/>
<path d="M39.1725 71.3575C38.6147 71.0339 38.0568 71.2766 37.8089 71.9238C37.685 72.2475 37.685 72.652 37.8089 73.0565V73.1374C38.0568 73.7846 38.6767 73.9464 39.1725 73.6228C39.6684 73.2992 39.7923 72.4902 39.5444 71.8429C39.4204 71.6811 39.3585 71.5193 39.1725 71.3575Z" fill="#094B7C"/>
<path d="M40.784 54.6103C40.6601 55.1767 40.4122 55.743 39.9783 56.0666C39.5444 56.4711 38.9246 56.7138 38.3668 56.552C37.8089 56.4711 37.3131 56.0666 36.9412 55.5003C36.5693 54.9339 36.4453 54.2058 36.5073 53.4777C36.5693 52.7495 36.8792 52.1023 37.3131 51.6978C37.7469 51.2123 38.3668 51.0505 38.9246 51.1314C40.1022 51.2932 40.908 52.6686 40.784 54.1249C40.846 54.4485 40.846 54.5294 40.784 54.6103ZM37.8089 53.6395V53.8013C37.8089 54.1249 37.8709 54.4485 37.9949 54.6912C38.1188 54.9339 38.3668 55.0957 38.6147 55.1767C38.8626 55.2576 39.1105 55.0957 39.2965 54.9339C39.4824 54.7721 39.6064 54.4485 39.6684 54.1249C39.7304 53.4777 39.3585 52.9113 38.8626 52.8304C38.3668 52.6686 37.9329 53.0731 37.8089 53.6395Z" fill="#8BC9ED"/>
<path d="M124.707 55.0958C125.563 55.0958 126.257 54.2265 126.257 53.1541C126.257 52.0817 125.563 51.2124 124.707 51.2124C123.852 51.2124 123.158 52.0817 123.158 53.1541C123.158 54.2265 123.852 55.0958 124.707 55.0958Z" stroke="#8BC9ED" stroke-width="2" stroke-miterlimit="10"/>
<path d="M30.9289 103.396H28.4497M33.4082 97.166V100.321V97.166ZM33.4082 106.551V109.625V106.551ZM38.3668 103.396H35.8875H38.3668Z" stroke="#8BC9ED" stroke-width="2" stroke-miterlimit="10" stroke-linecap="round"/>
<path d="M33.4082 104.205C33.7505 104.205 34.028 103.842 34.028 103.396C34.028 102.949 33.7505 102.587 33.4082 102.587C33.0659 102.587 32.7884 102.949 32.7884 103.396C32.7884 103.842 33.0659 104.205 33.4082 104.205Z" fill="#FBB147"/>
<path d="M33.4082 96.4378C33.0363 96.4378 32.7884 96.7614 32.7884 97.2468V98.7031H34.028V97.1659C34.028 96.7614 33.7181 96.4378 33.4082 96.4378Z" fill="#104470"/>
<path d="M3.09909 42.7175C3.98911 42.7175 4.71062 41.7757 4.71062 40.6139C4.71062 39.4522 3.98911 38.5104 3.09909 38.5104C2.20907 38.5104 1.48756 39.4522 1.48756 40.6139C1.48756 41.7757 2.20907 42.7175 3.09909 42.7175Z" fill="#9FD3F2" stroke="#FAA934" stroke-width="2" stroke-miterlimit="10"/>
<path d="M42.0857 117.311L41.3419 113.994L38.7386 112.942L41.3419 111.891L42.0857 108.573L42.8914 111.891L45.4947 112.942L42.8914 113.994L42.0857 117.311Z" fill="#8BC9ED"/>
<path d="M78.7169 8.81856L77.9112 5.42058L75.3079 4.36883L77.9112 3.39798L78.655 0L79.4607 3.39798L82.0639 4.36883L79.4607 5.42058L78.7169 8.81856Z" fill="#FBB147"/>
<path d="M29.6273 72.0857L28.8216 68.6877L26.2803 67.7168L28.8216 66.6651L29.6273 63.2671L30.4331 66.6651L33.0363 67.7168L30.4331 68.6877L29.6273 72.0857Z" fill="#FAA934"/>
<path d="M35.0197 38.3486C35.3916 38.3486 35.6396 38.6722 35.7015 39.1576V42.6365C35.7635 43.1219 35.4536 43.5265 35.0817 43.6074C34.7098 43.6883 34.3999 43.2838 34.3379 42.7983V39.2385C34.3379 38.7531 34.5859 38.4295 34.8958 38.4295C34.9578 38.3486 35.0197 38.3486 35.0197 38.3486ZM35.0197 28.1547C35.3916 28.1547 35.7015 28.5592 35.7015 29.0446V32.3617C35.6396 32.8471 35.3296 33.1707 34.9578 33.1707C34.6478 33.1707 34.3999 32.8471 34.3379 32.3617V28.9637C34.3379 28.4783 34.6478 28.1547 35.0197 28.1547ZM29.7513 34.9506H32.3545C32.7264 35.0315 32.9743 35.436 32.9743 35.9215C32.9743 36.326 32.7264 36.6496 32.3545 36.7305H29.7513C29.3794 36.8114 29.0695 36.4069 29.0075 35.9215C28.9455 35.436 29.2554 35.0315 29.6273 34.9506H29.7513ZM37.623 34.9506H40.2262C40.5981 34.8697 40.908 35.2742 40.97 35.7597C41.032 36.2451 40.7221 36.6496 40.3502 36.7305H37.623C37.2511 36.6496 37.0032 36.2451 37.0032 35.7597C37.0651 35.2742 37.3131 34.9506 37.623 34.9506Z" fill="#104470"/>
<path d="M35.0197 36.7305C35.3963 36.7305 35.7015 36.3321 35.7015 35.8406C35.7015 35.3491 35.3963 34.9506 35.0197 34.9506C34.6432 34.9506 34.3379 35.3491 34.3379 35.8406C34.3379 36.3321 34.6432 36.7305 35.0197 36.7305Z" fill="#104470"/>
<path d="M107.043 103.719H109.646M104.439 110.515V107.117V110.515ZM104.439 100.24V96.8423V100.24ZM99.2329 103.719H101.836H99.2329Z" stroke="#8BC9ED" stroke-width="2" stroke-miterlimit="10" stroke-linecap="round"/>
<path d="M104.439 104.609C104.816 104.609 105.121 104.211 105.121 103.719C105.121 103.228 104.816 102.829 104.439 102.829C104.063 102.829 103.758 103.228 103.758 103.719C103.758 104.211 104.063 104.609 104.439 104.609Z" fill="#8BC9ED"/>
<path d="M51.0111 15.4527C51.4449 15.4527 51.7548 15.0482 51.7548 14.4818C51.7548 13.9155 51.4449 13.511 51.0111 13.511C50.5772 13.511 50.2673 13.9155 50.2673 14.4818C50.2673 15.0482 50.6392 15.4527 51.0111 15.4527ZM25.8464 56.552V56.6329C25.8464 56.8756 26.0324 57.0375 26.2183 57.0375C26.4043 57.0375 26.5282 56.8756 26.5282 56.6329V56.4711C26.5282 56.2284 26.3423 56.0666 26.1563 56.0666C25.9704 56.1475 25.8464 56.3093 25.8464 56.552ZM22.9953 53.1541C23.1192 53.235 23.1812 53.235 23.2432 53.1541H23.3052C23.4291 53.0731 23.4911 52.8304 23.4291 52.6686C23.3672 52.5068 23.1812 52.4259 23.0572 52.5068C22.9333 52.5877 22.8713 52.8304 22.9333 52.9922C22.9333 53.0732 22.9333 53.0731 22.9953 53.1541Z" fill="#094B7C"/>
<path d="M134.81 47.9762C135.368 47.8953 135.74 47.329 135.74 46.6008C135.678 45.9536 135.306 45.4682 134.81 45.3873C134.253 45.4682 133.881 46.0345 133.881 46.7626C133.943 47.4099 134.377 47.9762 134.81 47.9762Z" fill="#FAA934"/>
<path d="M117.332 70.7912L117.394 70.8721C117.889 71.1957 118.447 70.953 118.695 70.3866C118.881 69.9821 118.881 69.5776 118.695 69.1731V69.0922C118.447 68.4449 117.827 68.2831 117.332 68.6068C116.836 68.9304 116.712 69.7394 116.96 70.3866C117.084 70.4675 117.208 70.6294 117.332 70.7912Z" fill="#094B7C"/>
<path d="M115.596 89.2373C115.72 88.5901 116.03 88.0238 116.402 87.6192C117.394 86.6484 118.819 86.8911 119.625 88.1856C119.997 88.8328 120.183 89.6418 120.059 90.37C119.873 91.9881 118.757 93.1207 117.456 92.9589C116.154 92.7971 115.348 91.2599 115.472 89.5609C115.596 89.48 115.596 89.3991 115.596 89.2373ZM118.757 90.2891V90.1273C118.819 89.8037 118.695 89.48 118.571 89.1564C118.385 88.9137 118.199 88.671 117.889 88.671C117.642 88.5901 117.394 88.7519 117.146 88.9137C116.712 89.3182 116.65 90.1273 116.96 90.6936C117.27 91.2599 117.889 91.3408 118.323 90.9363C118.571 90.8554 118.695 90.6127 118.757 90.2891Z" fill="#8BC9ED"/>
<path d="M27.0861 93.0398C27.9761 93.0398 28.6976 92.0981 28.6976 90.9363C28.6976 89.7746 27.9761 88.8328 27.0861 88.8328C26.196 88.8328 25.4745 89.7746 25.4745 90.9363C25.4745 92.0981 26.196 93.0398 27.0861 93.0398Z" stroke="#8BC9ED" stroke-width="2" stroke-miterlimit="10"/>
<path d="M126.009 35.6788H128.612M123.406 42.5556V39.0767V42.5556ZM123.344 32.2808V28.8828V32.2808ZM118.137 35.6788H120.741H118.137Z" stroke="#8BC9ED" stroke-width="2" stroke-miterlimit="10" stroke-linecap="round"/>
<path d="M123.406 36.5687C123.782 36.5687 124.088 36.1703 124.088 35.6788C124.088 35.1873 123.782 34.7888 123.406 34.7888C123.029 34.7888 122.724 35.1873 122.724 35.6788C122.724 36.1703 123.029 36.5687 123.406 36.5687Z" fill="#FBB147"/>
<path d="M123.406 43.3647C123.778 43.3647 124.026 43.0411 124.088 42.6366V40.9376H122.724V42.5556C122.724 43.0411 123.034 43.3647 123.406 43.3647Z" fill="#104470"/>
<path opacity="0.6" d="M101.774 92.7162H103.696C104.377 92.7162 104.997 93.4444 104.997 94.4152V99.1077C104.997 99.9976 104.439 100.807 103.696 100.807H101.774C101.092 100.807 100.473 100.079 100.473 99.1077V94.4152C100.473 93.4444 101.092 92.7162 101.774 92.7162ZM101.774 69.4158H103.696C104.377 69.4158 104.997 70.144 104.997 71.1148V75.8073C104.997 76.6972 104.439 77.5063 103.696 77.5063H101.774C101.092 77.5063 100.473 76.7781 100.473 75.8073V71.1148C100.473 70.144 101.092 69.4158 101.774 69.4158Z" fill="#9BBFD0"/>
<path opacity="0.6" d="M102.332 52.5068H106.609C108.158 52.5068 109.398 54.1249 109.398 56.1475V66.3415C109.398 68.3641 108.158 69.9821 106.609 69.9821H102.332C100.782 69.9821 99.5428 68.3641 99.5428 66.3415V56.0666C99.5428 54.1249 100.782 52.5068 102.332 52.5068ZM102.332 76.2118H106.609C108.158 76.2118 109.398 77.8299 109.398 79.8525V90.1273C109.398 92.1499 108.158 93.768 106.609 93.768H102.332C100.782 93.768 99.5428 92.1499 99.5428 90.1273V79.8525C99.5428 77.8299 100.782 76.2118 102.332 76.2118ZM102.332 99.9976H106.609C108.158 99.9976 109.398 101.616 109.398 103.638V113.832C109.398 115.855 108.158 117.473 106.609 117.473H102.332C100.782 117.473 99.5428 115.855 99.5428 113.832V103.557C99.5428 101.616 100.782 99.9976 102.332 99.9976Z" fill="#9BBFD0"/>
<path d="M53.8622 77.4253H102.27C103.262 77.4253 104.068 78.4771 104.068 79.7716V90.2082C104.068 91.5027 103.262 92.5544 102.27 92.5544H53.8622C52.8705 92.5544 52.0647 91.5027 52.0647 90.2082V79.7716C52.0647 78.4771 52.8705 77.4253 53.8622 77.4253ZM53.9242 53.7204H102.332C103.324 53.7204 104.129 54.7722 104.129 56.0666V66.5033C104.129 67.7977 103.324 68.8495 102.332 68.8495H53.9242C52.9325 68.8495 52.1267 67.7977 52.1267 66.5033V56.0666C52.1267 54.7722 52.9325 53.7204 53.9242 53.7204Z" fill="white"/>
<path d="M58.9447 68.6877H97.5594C98.5511 68.6877 99.3569 69.7394 99.3569 71.0339V99.0268C99.3569 100.321 98.5511 101.373 97.5594 101.373H58.9447C57.953 101.373 57.1473 100.321 57.1473 99.0268V71.0339C57.1473 69.7394 57.953 68.6877 58.9447 68.6877Z" fill="white"/>
<path d="M95.452 77.2635H102.146C103.138 77.2635 103.944 78.3153 103.944 79.6098V89.4801C103.944 90.7746 103.138 91.8263 102.146 91.8263H95.452C94.4603 91.8263 93.6546 90.7746 93.6546 89.4801V79.6098C93.6546 78.3153 94.4603 77.2635 95.452 77.2635ZM95.1421 52.9114H101.836C102.828 52.9114 103.634 53.9631 103.634 55.2576V66.6651C103.634 67.9596 102.828 69.0113 101.836 69.0113H95.1421C94.1504 69.0113 93.3447 67.9596 93.3447 66.6651V55.2576C93.3447 53.9631 94.1504 52.9114 95.1421 52.9114Z" fill="#F2F2F3"/>
<path d="M53.9242 100.888H102.332C103.324 100.888 104.129 101.939 104.129 103.234V113.67C104.129 114.965 103.324 116.017 102.332 116.017H53.9242C52.9325 116.017 52.1267 114.965 52.1267 113.67V103.234C52.1267 101.939 52.9325 100.888 53.9242 100.888Z" fill="white"/>
<path d="M95.3281 101.616H102.022C103.014 101.616 103.82 102.667 103.82 103.962V113.67C103.82 114.965 103.014 116.017 102.022 116.017H95.3281C94.3364 116.017 93.5306 114.965 93.5306 113.67V103.962C93.5306 102.667 94.3364 101.616 95.3281 101.616Z" fill="#F2F2F3"/>
<path d="M103.138 69.9821H83.9854V67.4741H103.138V55.0149H83.9854V52.5068H103.138C104.191 52.5068 105.059 53.6395 105.059 55.0149V67.4741C104.997 68.8495 104.191 69.9821 103.138 69.9821ZM72.4568 69.9821H53.3664C52.3127 69.9821 51.4449 68.8495 51.4449 67.4741V55.0149C51.4449 53.6395 52.3127 52.5068 53.3664 52.5068H72.5188V55.0149H53.3664V67.4741H72.5188L72.4568 69.9821ZM72.4568 93.6871H53.3664C52.3127 93.6871 51.4449 92.5544 51.4449 91.179V78.7198C51.4449 77.3444 52.3127 76.2118 53.3664 76.2118H72.5188V78.7198H53.3664V91.179H72.5188L72.4568 93.6871ZM103.138 93.6871H83.9854V91.179H103.138V78.7198H83.9854V76.2118H103.138C104.191 76.2118 105.059 77.3444 105.059 78.7198V91.179C104.997 92.6353 104.191 93.6871 103.138 93.6871Z" fill="#DBDCDE"/>
<path d="M72.4568 78.7198H56.2175V67.4741H72.4568V69.9822H58.139V76.2118H72.4568V78.7198ZM100.225 78.7198H83.9854V76.2118H98.3032V69.9822H83.9854V67.4741H100.225V78.7198ZM103.138 117.473H53.3664C52.3127 117.473 51.4449 116.34 51.4449 114.965V102.506C51.4449 101.13 52.3127 99.9976 53.3664 99.9976H103.138C104.191 99.9976 105.059 101.13 105.059 102.506V114.965C105.059 116.34 104.191 117.473 103.138 117.473ZM53.3664 102.506V114.965H103.138V102.506H53.3664Z" fill="#DBDCDE"/>
<path d="M100.225 102.506H56.2175V91.2599H72.4568V93.6871H58.139V99.9976H98.3032V93.6871H83.9854V91.2599H100.225V102.506Z" fill="#DBDCDE"/>
<path d="M57.1473 60.0309H59.0687V62.539H57.1473V60.0309ZM62.9116 60.0309H64.833V62.539H62.9116V60.0309ZM68.6759 60.0309H70.5973V62.539H68.6759V60.0309ZM57.1473 83.7359H59.0687V86.2439H57.1473V83.7359ZM62.9116 83.7359H64.833V86.2439H62.9116V83.7359ZM68.6759 83.7359H70.5973V86.2439H68.6759V83.7359ZM57.1473 107.441H59.0687V109.949H57.1473V107.441ZM62.9116 107.441H64.833V109.949H62.9116V107.441ZM68.6759 107.441H70.5973V109.949H68.6759V107.441Z" fill="#FCBA63"/>
<path d="M54.0482 41.4229C54.482 42.232 54.9779 43.041 55.5357 43.6883C55.5357 44.2546 64.771 35.7597 74.3782 40.0476C76.7335 40.0476 74.1303 43.8501 76.4856 43.8501C76.4236 46.7626 76.2377 52.345 76.2377 55.0149C76.2377 57.6847 76.0517 66.5842 75.9897 69.254C75.9277 72.4093 75.8658 75.5645 75.8038 78.8007C75.6798 84.3022 75.6178 89.8037 75.4939 95.2243V96.0333C75.4939 96.7614 75.9278 97.3278 76.4236 97.3278H80.3904C80.9483 97.3278 81.3202 96.7614 81.3202 96.0333V95.3052L81.1342 78.8816C81.1342 75.7263 81.0722 72.652 81.0103 69.4967C81.0103 66.9078 80.8863 57.6847 80.8863 55.0958V43.931C81.5681 43.931 81.1962 43.8501 81.816 43.8501C82.4358 42.4747 81.754 40.9375 82.9317 40.2094C84.9771 38.9958 88.82 39.3194 92.4149 39.9667C92.7248 39.8049 102.89 43.6074 102.89 43.2837C89.9976 31.0672 80.7003 33.818 80.7003 33.818V31.3908C80.7003 30.9863 80.5144 30.7436 80.2045 30.7436H77.1054C76.7955 30.7436 76.6095 31.0672 76.6095 31.3908V33.818C70.1015 31.7953 54.0482 41.4229 54.0482 41.4229Z" fill="#F1F1F1" stroke="#0F4470" stroke-width="3" stroke-miterlimit="10"/>
</svg>
