<?xml version="1.0" encoding="UTF-8"?>
<svg width="58px" height="48px" viewBox="0 0 58 48" version="1.1" xmlns="http://www.w3.org/2000/svg" xmlns:xlink="http://www.w3.org/1999/xlink">
    <title>atm/icon/subtitles copy</title>
    <defs>
        <path d="M43.0378378,32.4 L43.0378378,41.4083929 C41.2,41.4083929 39.6864924,41.9188634 38.4972973,42.9398197 C37.3081022,43.960776 36.3351389,45.3120214 35.5783784,46.9935965 C35.4145247,47.3576908 35.262075,47.731638 35.1210289,48.1154386 C34.9696384,48.5273773 34.8313449,48.9508074 34.7061969,49.3855969 C34.6875534,49.4503574 34.6689779,49.5161788 34.6507013,49.5822585 L34.7061969,49.3855969 C34.6568134,49.557165 34.6094769,49.7305018 34.5641872,49.9056075 L34.6507013,49.5822585 C34.6087144,49.7340639 34.568305,49.8872326 34.5294733,50.0417645 L34.5641872,49.9056075 C34.3374235,50.7823545 34.1619742,51.7034449 34.0378378,52.6688841 C33.7855843,54.6307217 33.6510509,55.4140148 33.6342342,57.1698851 L33.6324324,57.5618134 L43.2,57.5618134 C45.1882251,57.5618134 46.8,59.1735883 46.8,61.1618134 L46.8,75.6 C46.8,77.5240888 45.2905334,79.0956228 43.3911922,79.1950099 L43.2,79.2 L43.2,79.2 L28.8,79.2 C26.8117749,79.2 25.2,77.5882251 25.2,75.6 L25.2,57.5618134 C25.2,53.9584382 25.5513478,51.8881726 26.2540541,48.7051912 C26.9567603,45.5222098 28.0378305,42.7296359 29.4972973,40.3273858 C30.9567641,37.9251356 32.8216103,36.0033644 35.0918919,34.5620143 C35.3361607,34.4069336 35.5848093,34.260196 35.8378378,34.1218013 C37.9360799,32.9740306 40.3362474,32.4 43.0378378,32.4 Z M79.0378378,32.4 L79.0378378,41.4083929 C77.2,41.4083929 75.6864924,41.9188634 74.4972973,42.9398197 C73.3081022,43.960776 72.3351389,45.3120214 71.5783784,46.9935965 C71.4145247,47.3576908 71.262075,47.731638 71.1210289,48.1154386 C70.9696384,48.5273773 70.8313449,48.9508074 70.7061969,49.3855969 C70.6875534,49.4503574 70.6689779,49.5161788 70.6507013,49.5822585 L70.7061969,49.3855969 C70.6568134,49.557165 70.6094769,49.7305018 70.5641872,49.9056075 L70.6507013,49.5822585 C70.6087144,49.7340639 70.568305,49.8872326 70.5294733,50.0417645 L70.5641872,49.9056075 C70.3374235,50.7823545 70.1619742,51.7034449 70.0378378,52.6688841 C69.7855843,54.6307217 69.6510509,55.4140148 69.6342342,57.1698851 L69.6324324,57.5618134 L79.2,57.5618134 C81.1882251,57.5618134 82.8,59.1735883 82.8,61.1618134 L82.8,75.6 C82.8,77.5240888 81.2905334,79.0956228 79.3911922,79.1950099 L79.2,79.2 L79.2,79.2 L64.8,79.2 C62.8117749,79.2 61.2,77.5882251 61.2,75.6 L61.2,57.5618134 C61.2,53.9584382 61.5513478,51.8881726 62.2540541,48.7051912 C62.9567603,45.5222098 64.0378305,42.7296359 65.4972973,40.3273858 C66.9567641,37.9251356 68.8216103,36.0033644 71.0918919,34.5620143 C71.3361607,34.4069336 71.5848093,34.260196 71.8378378,34.1218013 C73.9360799,32.9740306 76.3362474,32.4 79.0378378,32.4 Z M39.6,64.7618134 L32.4,64.7618134 L32.4,72 L39.6,72 L39.6,64.7618134 Z M75.6,64.7618134 L68.4,64.7618134 L68.4,72 L75.6,72 L75.6,64.7618134 Z" id="path-1"></path>
    </defs>
    <g id="Page-1" stroke="none" stroke-width="1" fill="none" fill-rule="evenodd" opacity="0.100000001">
        <g id="Artboard" transform="translate(-250.000000, -12176.000000)">
            <g id="Group" transform="translate(225.000000, 12144.000000)">
                <g id="atm/icon/subtitles-copy" transform="translate(54.000000, 54.000000) scale(-1, 1) translate(-54.000000, -54.000000) ">
                    <mask id="mask-2" fill="white">
                        <use xlink:href="#path-1"></use>
                    </mask>
                    <g id="“" fill-rule="nonzero" transform="translate(54.000000, 55.800000) scale(-1, -1) translate(-54.000000, -55.800000) "></g>
                    <g id="Group" mask="url(#mask-2)" fill="#000000">
                        <g id="↳-🎨Color">
                            <rect id="Rectangle" x="0" y="0" width="108" height="108"></rect>
                        </g>
                    </g>
                </g>
            </g>
        </g>
    </g>
</svg>