<?xml version="1.0" standalone="no"?>
<svg viewBox="0 0 200 200" xmlns="http://www.w3.org/2000/svg">
  <path fill="#F8F6F8" d="M38.4,-63.5C48.3,-53.4,53.7,-40.2,58.9,-27.3C64.2,-14.4,69.3,-1.9,70,11.7C70.6,25.3,66.8,40,58.4,51.7C49.9,63.3,36.8,72.1,21.9,77.9C7,83.8,-9.6,86.7,-24.8,83C-40,79.2,-53.6,68.8,-63.8,55.9C-73.9,43,-80.4,27.8,-79.9,13.2C-79.3,-1.4,-71.6,-15.3,-64.8,-29.3C-57.9,-43.3,-52,-57.4,-41.3,-67.2C-30.7,-76.9,-15.3,-82.2,-0.5,-81.4C14.3,-80.6,28.6,-73.6,38.4,-63.5Z" transform="translate(100 100)" />
</svg>
