<svg width="145" height="145" viewBox="0 0 145 145" fill="none" xmlns="http://www.w3.org/2000/svg">
<circle cx="72.5" cy="72.5" r="57.5" fill="#F1F5FD"/>
<path d="M72.5 145C62.9792 145 53.5516 143.125 44.7554 139.481C35.9593 135.838 27.967 130.497 21.2348 123.765C14.5025 117.033 9.1622 109.041 5.51873 100.245C1.87525 91.4484 -5.50581e-06 82.0208 -6.33815e-06 72.5L1.44999 72.5C1.44999 81.8304 3.28775 91.0695 6.85835 99.6897C10.429 108.31 15.6625 116.142 22.2601 122.74C28.8577 129.338 36.6902 134.571 45.3103 138.142C53.9305 141.712 63.1696 143.55 72.5 143.55L72.5 145Z" fill="url(#paint0_linear)"/>
<g clip-path="url(#clip0)">
<path d="M73 74.438C73.896 74.438 74.625 75.167 74.625 76.063C74.625 76.5117 74.9888 76.8755 75.4375 76.8755C75.8862 76.8755 76.25 76.5117 76.25 76.063C76.25 74.5514 75.2126 73.2775 73.8125 72.9159V72.0005C73.8125 71.5518 73.4487 71.188 73 71.188C72.5513 71.188 72.1875 71.5518 72.1875 72.0005V72.9159C70.7874 73.2776 69.75 74.5514 69.75 76.063C69.75 77.8551 71.2079 79.313 73 79.313C73.896 79.313 74.625 80.042 74.625 80.938C74.625 81.834 73.896 82.563 73 82.563C72.104 82.563 71.375 81.834 71.375 80.938C71.375 80.4893 71.0112 80.1255 70.5625 80.1255C70.1138 80.1255 69.75 80.4893 69.75 80.938C69.75 82.4495 70.7874 83.7234 72.1875 84.0851V85.0005C72.1875 85.4492 72.5513 85.813 73 85.813C73.4487 85.813 73.8125 85.4492 73.8125 85.0005V84.0851C75.2126 83.7233 76.25 82.4495 76.25 80.938C76.25 79.1459 74.7921 77.688 73 77.688C72.104 77.688 71.375 76.959 71.375 76.063C71.375 75.167 72.104 74.438 73 74.438Z" fill="#333333"/>
<path d="M73 67.938C67.1758 67.938 62.4375 72.6763 62.4375 78.5005C62.4375 84.3247 67.1758 89.063 73 89.063C78.8242 89.063 83.5625 84.3247 83.5625 78.5005C83.5625 72.6763 78.8242 67.938 73 67.938ZM73 87.438C68.0719 87.438 64.0625 83.4286 64.0625 78.5005C64.0625 73.5724 68.0719 69.563 73 69.563C77.9281 69.563 81.9375 73.5724 81.9375 78.5005C81.9375 83.4286 77.9281 87.438 73 87.438Z" fill="url(#paint1_linear)"/>
<path d="M96.4673 64.6879L95.9479 60.5327C95.7798 59.187 94.5474 58.2342 93.1922 58.421L92.016 58.5892L91.252 55.5335C90.9258 54.2279 89.592 53.4109 88.2454 53.7732L49.3145 64.691C48.0274 64.7553 47 65.8226 47 67.1254V89.8754C47 91.2194 48.0935 92.3129 49.4375 92.3129H96.5625C97.9065 92.3129 99 91.2194 99 89.8754V67.1254C99 65.8666 98.0254 64.6879 96.4673 64.6879ZM93.4181 60.0301C93.869 59.9684 94.2796 60.2865 94.3353 60.7343L94.8295 64.688H60.8554L93.4181 60.0301ZM88.6762 55.3401C89.1156 55.2221 89.5652 55.4862 89.6756 55.9276L90.3989 58.8205L61.5524 62.9467L88.6762 55.3401ZM97.375 89.8754C97.375 90.3234 97.0105 90.6879 96.5625 90.6879H49.4375C48.9895 90.6879 48.625 90.3234 48.625 89.8754V67.1254C48.625 66.678 48.9886 66.3139 49.4358 66.313C49.6931 66.3125 45.3839 66.3129 96.5625 66.3129C97.0105 66.3129 97.375 66.6774 97.375 67.1254V89.8754Z" fill="#333333"/>
<path d="M94.9375 70.3755C94.0415 70.3755 93.3125 69.6465 93.3125 68.7505C93.3125 68.3018 92.9487 67.938 92.5 67.938H81.9375C81.4888 67.938 81.125 68.3018 81.125 68.7505C81.125 69.1992 81.4888 69.563 81.9375 69.563H91.7904C92.0849 70.7034 92.9847 71.6031 94.125 71.8976V85.1033C92.9846 85.3978 92.0849 86.2975 91.7904 87.4379H81.9375C81.4888 87.4379 81.125 87.8017 81.125 88.2504C81.125 88.6991 81.4888 89.0629 81.9375 89.0629H92.5C92.9487 89.0629 93.3125 88.6991 93.3125 88.2504C93.3125 87.3544 94.0415 86.6254 94.9375 86.6254C95.3862 86.6254 95.75 86.2616 95.75 85.8129V71.1879C95.75 70.7393 95.3862 70.3755 94.9375 70.3755Z" fill="#333333"/>
<path d="M64.0625 87.438H54.2096C53.9151 86.2975 53.0153 85.3979 51.875 85.1034V71.8976C53.0154 71.6031 53.9151 70.7033 54.2096 69.563H64.0625C64.5112 69.563 64.875 69.1992 64.875 68.7505C64.875 68.3018 64.5112 67.938 64.0625 67.938H53.5C53.0513 67.938 52.6875 68.3018 52.6875 68.7505C52.6875 69.6465 51.9585 70.3755 51.0625 70.3755C50.6138 70.3755 50.25 70.7393 50.25 71.188V85.813C50.25 86.2617 50.6138 86.6255 51.0625 86.6255C51.9585 86.6255 52.6875 87.3545 52.6875 88.2505C52.6875 88.6992 53.0513 89.063 53.5 89.063H64.0625C64.5112 89.063 64.875 88.6992 64.875 88.2505C64.875 87.8018 64.5112 87.438 64.0625 87.438Z" fill="#333333"/>
<path d="M54.3125 78.5005C54.3125 79.8445 55.406 80.938 56.75 80.938C58.094 80.938 59.1875 79.8445 59.1875 78.5005C59.1875 77.1565 58.094 76.063 56.75 76.063C55.406 76.063 54.3125 77.1565 54.3125 78.5005ZM57.5625 78.5005C57.5625 78.9485 57.198 79.313 56.75 79.313C56.302 79.313 55.9375 78.9485 55.9375 78.5005C55.9375 78.0525 56.302 77.688 56.75 77.688C57.198 77.688 57.5625 78.0525 57.5625 78.5005Z" fill="url(#paint2_linear)"/>
<path d="M91.6875 78.5005C91.6875 77.1565 90.594 76.063 89.25 76.063C87.906 76.063 86.8125 77.1565 86.8125 78.5005C86.8125 79.8445 87.906 80.938 89.25 80.938C90.594 80.938 91.6875 79.8446 91.6875 78.5005ZM88.4375 78.5005C88.4375 78.0525 88.802 77.688 89.25 77.688C89.698 77.688 90.0625 78.0525 90.0625 78.5005C90.0625 78.9485 89.698 79.313 89.25 79.313C88.802 79.313 88.4375 78.9485 88.4375 78.5005Z" fill="url(#paint3_linear)"/>
</g>
<defs>
<linearGradient id="paint0_linear" x1="145" y1="94.9648" x2="-2.99354" y2="88.3425" gradientUnits="userSpaceOnUse">
<stop stop-color="#4697FC"/>
<stop offset="1" stop-color="#1B5FFD"/>
</linearGradient>
<linearGradient id="paint1_linear" x1="62.4375" y1="75.2276" x2="83.9986" y2="76.1924" gradientUnits="userSpaceOnUse">
<stop stop-color="#4697FC"/>
<stop offset="1" stop-color="#1B5FFD"/>
</linearGradient>
<linearGradient id="paint2_linear" x1="54.3125" y1="77.7452" x2="59.2881" y2="77.9679" gradientUnits="userSpaceOnUse">
<stop stop-color="#4697FC"/>
<stop offset="1" stop-color="#1B5FFD"/>
</linearGradient>
<linearGradient id="paint3_linear" x1="86.8125" y1="77.7452" x2="91.7881" y2="77.9679" gradientUnits="userSpaceOnUse">
<stop stop-color="#4697FC"/>
<stop offset="1" stop-color="#1B5FFD"/>
</linearGradient>
<clipPath id="clip0">
<rect width="52" height="52" fill="white" transform="translate(47 47)"/>
</clipPath>
</defs>
</svg>
