<svg xmlns="http://www.w3.org/2000/svg" width="145" height="145" fill="none" style=""><rect id="backgroundrect" width="100%" height="100%" x="0" y="0" fill="none" stroke="none"/>



<defs>
<linearGradient id="paint0_linear" x1="0.6549296808634044" y1="-2.1306066612358787e-8" x2="0.6092586519369496" y2="1.0206483404312208">
<stop stop-color="#4697FC"/>
<stop offset="1" stop-color="#1B5FFD"/>
</linearGradient>
<linearGradient id="paint1_linear" x1="0" y1="0.3450658103226079" x2="1.0225816295392127" y2="0.34792733282159266">
<stop stop-color="#4697FC"/>
<stop offset="1" stop-color="#1B5FFD"/>
</linearGradient>
<linearGradient id="paint2_linear" x1="0" y1="0.3450857961080726" x2="0.9909541616490257" y2="1.0545198469519494">
<stop stop-color="#4697FC"/>
<stop offset="1" stop-color="#1B5FFD"/>
</linearGradient>
<linearGradient id="paint3_linear" x1="-1.0000375594915518" y1="0.5591495483043455" x2="1.3351165149084354" y2="0.6123661603381074">
<stop stop-color="#4697FC"/>
<stop offset="1" stop-color="#1B5FFD"/>
</linearGradient>
<linearGradient id="paint4_linear" x1="-0.9999694842844065" y1="-0.034050664408933486" x2="1.0431985164667497" y2="0.010296734372579183">
<stop stop-color="#4697FC"/>
<stop offset="1" stop-color="#1B5FFD"/>
</linearGradient>
<linearGradient id="paint5_linear" x1="-0.20001953077317447" y1="-0.10215407151442307" x2="1.4345747268039204" y2="0.030890831580528848">
<stop stop-color="#4697FC"/>
<stop offset="1" stop-color="#1B5FFD"/>
</linearGradient>
<linearGradient id="paint6_linear" x1="0" y1="-2.102215106670673" x2="1.3621397116127962" y2="-1.9691702035757213">
<stop stop-color="#4697FC"/>
<stop offset="1" stop-color="#1B5FFD"/>
</linearGradient>
<linearGradient id="paint7_linear" x1="0" y1="1.39782071354965" x2="1.4859803191816277" y2="1.5308571844388994">
<stop stop-color="#4697FC"/>
<stop offset="1" stop-color="#1B5FFD"/>
</linearGradient>
<linearGradient id="paint8_linear" x1="-0.50006103515625" y1="0.31063371182264854" x2="3.5865243765024037" y2="0.34019802744590916">
<stop stop-color="#4697FC"/>
<stop offset="1" stop-color="#1B5FFD"/>
</linearGradient>
<linearGradient id="paint9_linear" x1="-1.00006103515625" y1="1.265219412115436" x2="3.0865243765024037" y2="1.3539122664525831">
<stop stop-color="#4697FC"/>
<stop offset="1" stop-color="#1B5FFD"/>
</linearGradient>
<linearGradient id="paint10_linear" x1="-1.00006103515625" y1="-1.4014197138663103" x2="3.0865243765024037" y2="-1.3127267207301385">
<stop stop-color="#4697FC"/>
<stop offset="1" stop-color="#1B5FFD"/>
</linearGradient>
<clipPath id="clip0">
<rect width="52" height="52" fill="white" y="46" x="46" id="svg_1"/>
</clipPath>
</defs>
<g class="currentLayer" style=""><title>Layer 1</title><rect width="145" height="145" rx="72.5" fill="#f1f5fd" id="svg_2" class="" fill-opacity="1"/><path d="M72.5 145C32.4594 145 -5.00866e-07 112.541 -5.75156e-06 72.5C-1.10023e-05 32.4594 32.4593 1.47579e-05 72.5 9.50723e-06C112.541 4.25653e-06 145 32.4594 145 72.5C145 112.541 112.541 145 72.5 145ZM72.5 1.45001C33.2602 1.45001 1.44999 33.2602 1.44999 72.5C1.45 111.74 33.2602 143.55 72.5 143.55C111.74 143.55 143.55 111.74 143.55 72.5C143.55 33.2602 111.74 1.45 72.5 1.45001Z" fill="url(#paint0_linear)" id="svg_3" class=""/><g clip-path="url(#clip0)" id="svg_4" class="selected" fill="#333333" fill-opacity="1">
<path d="M66.8202 65.1301C66.5025 64.8124 65.989 64.8124 65.6713 65.1301L46.7109 84.0897C46.3932 84.4074 46.3932 84.9209 46.7109 85.2386C46.8694 85.397 47.0774 85.4766 47.2854 85.4766C47.4934 85.4766 47.7014 85.397 47.8598 85.2386L66.8202 66.279C67.1379 65.9613 67.1379 65.4478 66.8202 65.1301Z" fill="#333333" id="svg_5" fill-opacity="1"/>
<path d="M69.1202 67.428C68.8025 67.1103 68.289 67.1103 67.9713 67.428L49.0117 86.3883C48.694 86.706 48.694 87.2196 49.0117 87.5373C49.1702 87.6957 49.3782 87.7753 49.5862 87.7753C49.7942 87.7753 50.0022 87.6957 50.1606 87.5373L69.1202 68.5769C69.4379 68.2592 69.4379 67.7457 69.1202 67.428Z" fill="#333333" id="svg_6" fill-opacity="1"/>
<path d="M50.1608 86.3882C49.8431 86.0705 49.3287 86.0713 49.011 86.3874C48.6941 86.7051 48.179 86.7043 47.8621 86.3882C47.5444 86.0705 47.5444 85.5554 47.8613 85.2385C48.179 84.9208 48.179 84.4073 47.8613 84.0896C47.5436 83.7719 47.0301 83.7719 46.7124 84.0896C45.7625 85.0394 45.7625 86.5857 46.7124 87.538C47.1877 88.0125 47.8117 88.2497 48.4366 88.2497C49.0606 88.2497 49.6846 88.0125 50.1599 87.538C50.4776 87.2203 50.4776 86.7067 50.1608 86.3882Z" fill="#333333" id="svg_7" fill-opacity="1"/>
<path d="M78.3131 76.6207L57.6294 55.937C57.3117 55.6193 56.7982 55.6193 56.4805 55.937C56.1628 56.2547 56.1628 56.7682 56.4805 57.0859L77.1642 77.7696C77.3226 77.9281 77.5306 78.0077 77.7386 78.0077C77.9458 78.0077 78.1538 77.9281 78.3131 77.7696C78.6308 77.4519 78.6308 76.9384 78.3131 76.6207Z" fill="#333333" id="svg_8" fill-opacity="1"/>
<path d="M78.4961 76.9028C78.3767 76.5924 75.5011 69.2139 70.2684 63.9812C65.0366 58.7485 57.658 55.873 57.3468 55.7535C56.93 55.5934 56.4579 55.8006 56.297 56.2199C56.1353 56.6384 56.3433 57.1088 56.7626 57.2697C56.8357 57.2973 64.1363 60.1469 69.1195 65.1301C74.1036 70.1133 76.9515 77.4139 76.9791 77.487C77.1042 77.8104 77.4122 78.0079 77.738 78.0079C77.8355 78.0079 77.9338 77.99 78.0297 77.9526C78.4473 77.7917 78.657 77.3221 78.4961 76.9028Z" fill="#333333" id="svg_9" fill-opacity="1"/>
<path d="M70.8424 61.1081C70.5247 60.7904 70.0112 60.7904 69.6935 61.1081L67.9336 62.8681C67.6159 63.1858 67.6159 63.6993 67.9336 64.017C68.092 64.1754 68.3 64.2551 68.508 64.2551C68.7161 64.2551 68.9241 64.1754 69.0825 64.017L70.8424 62.2571C71.1601 61.9394 71.1601 61.4258 70.8424 61.1081Z" fill="#333333" id="svg_10" fill-opacity="1"/>
<path d="M73.1421 63.4068L70.8442 61.1081C70.5265 60.7904 70.013 60.7904 69.6953 61.1081C69.3776 61.425 69.3776 61.9394 69.6953 62.2571L71.9931 64.5557C72.1516 64.7141 72.3596 64.7938 72.5676 64.7938C72.7756 64.7938 72.9836 64.7141 73.1421 64.5557C73.4598 64.2388 73.4598 63.7245 73.1421 63.4068Z" fill="#333333" id="svg_11" fill-opacity="1"/>
<path d="M73.1432 63.4067C72.8255 63.089 72.312 63.089 71.9943 63.4067L70.2344 65.1667C69.9167 65.4844 69.9167 65.9979 70.2344 66.3156C70.3928 66.474 70.6008 66.5536 70.8088 66.5536C71.0168 66.5536 71.2248 66.474 71.3833 66.3156L73.1432 64.5556C73.4609 64.2379 73.4609 63.7244 73.1432 63.4067Z" fill="#333333" id="svg_12" fill-opacity="1"/>
<path d="M74.107 83.5679C73.7641 83.2787 73.2522 83.3201 72.9621 83.6638L64.0243 94.2267C63.7342 94.5688 63.7773 95.0815 64.1202 95.3715C64.2729 95.4999 64.459 95.5633 64.6443 95.5633C64.875 95.5633 65.105 95.4658 65.265 95.2757L74.2028 84.7128C74.4929 84.3707 74.4498 83.858 74.107 83.5679Z" fill="#333333" id="svg_13" fill-opacity="1"/>
<path d="M76.4711 85.1369L74.0335 83.5119C73.6581 83.2633 73.1551 83.364 72.9065 83.737C72.6571 84.1107 72.7578 84.6145 73.1316 84.8639L75.5692 86.489C75.7081 86.5808 75.8649 86.6255 76.0193 86.6255C76.2826 86.6255 76.5401 86.4987 76.6961 86.2639C76.9456 85.8902 76.8448 85.3864 76.4711 85.1369Z" fill="#333333" id="svg_14" fill-opacity="1"/>
<path d="M84.7195 77.1133C84.4018 76.7956 83.8883 76.7956 83.5706 77.1133L75.4453 85.2386C75.1276 85.5563 75.1276 86.0698 75.4453 86.3875C75.6037 86.5459 75.8118 86.6255 76.0198 86.6255C76.2278 86.6255 76.4358 86.5459 76.5942 86.3875L84.7195 78.2622C85.0372 77.9445 85.0372 77.431 84.7195 77.1133Z" fill="#333333" id="svg_15" fill-opacity="1"/>
<path d="M96.0946 88.4887L84.7192 77.1133C84.4015 76.7956 83.888 76.7956 83.5703 77.1133C83.2526 77.431 83.2526 77.9445 83.5703 78.2622L94.9457 89.6376C95.1041 89.796 95.3121 89.8757 95.5201 89.8757C95.7282 89.8757 95.9362 89.796 96.0946 89.6376C96.4123 89.3199 96.4123 88.8064 96.0946 88.4887Z" fill="#333333" id="svg_16" fill-opacity="1"/>
<path d="M97.9267 94.5282L96.3016 88.8406C96.1781 88.4075 95.7255 88.1637 95.2973 88.2815C94.865 88.405 94.6156 88.8552 94.7383 89.2858L96.3633 94.9735C96.4657 95.331 96.7907 95.5634 97.1442 95.5634C97.2189 95.5634 97.2937 95.5528 97.3676 95.5325C97.7999 95.409 98.0493 94.9589 97.9267 94.5282Z" fill="#333333" id="svg_17" fill-opacity="1"/>
<path d="M80.8946 71.1875C80.4452 71.1875 80.082 71.5515 80.082 72V76.8752C80.082 77.3245 80.4452 77.6877 80.8946 77.6877C81.3439 77.6877 81.7071 77.3245 81.7071 76.8752V72C81.7071 71.5515 81.3439 71.1875 80.8946 71.1875Z" fill="#333333" id="svg_18" fill-opacity="1"/>
<path d="M76.8322 79.3127H71.9571C71.5077 79.3127 71.1445 79.6759 71.1445 80.1253C71.1445 80.5746 71.5077 80.9378 71.9571 80.9378H76.8322C77.2815 80.9378 77.6447 80.5746 77.6447 80.1253C77.6447 79.6759 77.2815 79.3127 76.8322 79.3127Z" fill="#333333" id="svg_19" fill-opacity="1"/>
<path d="M91.0509 52.4993C90.6016 52.4993 90.2384 52.8633 90.2384 53.3118C90.2384 53.7603 90.6016 54.1244 91.0509 54.1244C91.2744 54.1244 91.4572 54.3064 91.4572 54.5306C91.4572 54.7549 91.2744 54.9369 91.0509 54.9369C90.6016 54.9369 90.2384 55.3009 90.2384 55.7494C90.2384 56.1979 90.6016 56.5619 91.0509 56.5619C92.1714 56.5619 93.0822 55.6503 93.0822 54.5306C93.0822 53.411 92.1714 52.4993 91.0509 52.4993Z" fill="#333333" id="svg_20" fill-opacity="1"/>
<path d="M91.4572 54.9369C91.0078 54.9369 90.6446 55.3009 90.6446 55.7494C90.6446 56.1979 91.0078 56.5619 91.4572 56.5619C91.9057 56.5619 92.2697 56.9268 92.2697 57.3745C92.2697 57.8222 91.9057 58.187 91.4572 58.187C91.0078 58.187 90.6446 58.551 90.6446 58.9995C90.6446 59.448 91.0078 59.812 91.4572 59.812C92.8019 59.812 93.8948 58.7184 93.8948 57.3745C93.8948 56.0305 92.8011 54.9369 91.4572 54.9369Z" fill="#333333" id="svg_21" fill-opacity="1"/>
<path d="M91.4572 54.9369H89.0196C88.5703 54.9369 88.2071 55.3009 88.2071 55.7494C88.2071 56.1979 88.5703 56.5619 89.0196 56.5619L91.4572 56.5619C91.9065 56.5619 92.2697 56.1979 92.2697 55.7494C92.2697 55.3009 91.9065 54.9369 91.4572 54.9369Z" fill="#333333" id="svg_22" fill-opacity="1"/>
<path d="M91.4572 58.187L88.2071 58.187C87.7577 58.187 87.3945 58.551 87.3945 58.9995C87.3945 59.448 87.7577 59.812 88.2071 59.812L91.4572 59.812C91.9065 59.812 92.2697 59.448 92.2697 58.9995C92.2697 58.551 91.9065 58.187 91.4572 58.187Z" fill="#333333" id="svg_23" fill-opacity="1"/>
<path d="M91.0509 52.4993H88.2071C87.7577 52.4993 87.3945 52.8633 87.3945 53.3118C87.3945 53.7603 87.7577 54.1244 88.2071 54.1244L91.0509 54.1244C91.5002 54.1244 91.8634 53.7603 91.8634 53.3118C91.8634 52.8633 91.5002 52.4993 91.0509 52.4993Z" fill="#333333" id="svg_24" fill-opacity="1"/>
<path d="M89.0196 52.4993C88.5703 52.4993 88.2071 52.8633 88.2071 53.3118V58.9995C88.2071 59.448 88.5703 59.8121 89.0196 59.8121C89.4689 59.8121 89.8321 59.448 89.8321 58.9995V53.3118C89.8321 52.8633 89.4689 52.4993 89.0196 52.4993Z" fill="#333333" id="svg_25" fill-opacity="1"/>
<path d="M89.8321 51.6868C89.3828 51.6868 89.0196 52.0508 89.0196 52.4993L89.0196 53.3118C89.0196 53.7603 89.3828 54.1244 89.8321 54.1244C90.2814 54.1244 90.6446 53.7603 90.6446 53.3118V52.4993C90.6446 52.0508 90.2814 51.6868 89.8321 51.6868Z" fill="#333333" id="svg_26" fill-opacity="1"/>
<path d="M89.8321 58.187C89.3828 58.187 89.0196 58.551 89.0196 58.9995L89.0196 59.8121C89.0196 60.2606 89.3828 60.6246 89.8321 60.6246C90.2814 60.6246 90.6446 60.2606 90.6446 59.812V58.9995C90.6446 58.551 90.2814 58.187 89.8321 58.187Z" fill="#333333" id="svg_27" fill-opacity="1"/>
<path d="M90.2386 48.4368C85.9825 48.4368 82.5195 51.8998 82.5195 56.1558C82.5195 60.4118 85.9825 63.8748 90.2386 63.8748C94.4954 63.8748 97.9576 60.4118 97.9576 56.1558C97.9576 51.8998 94.4946 48.4368 90.2386 48.4368ZM90.2386 62.2498C86.8779 62.2498 84.1446 59.5164 84.1446 56.1558C84.1446 52.7952 86.8779 50.0618 90.2386 50.0618C93.5992 50.0618 96.3325 52.7952 96.3325 56.1558C96.3325 59.5164 93.5992 62.2498 90.2386 62.2498Z" fill="#333333" id="svg_28" fill-opacity="1"/>
<path d="M97.145 58.5933C96.6957 58.5933 96.3325 58.9573 96.3325 59.4058C96.3325 62.7664 93.5992 65.4998 90.2386 65.4998C86.8779 65.4998 84.1446 62.7664 84.1446 59.4058C84.1446 58.9573 83.7814 58.5933 83.3321 58.5933C82.8827 58.5933 82.5195 58.9573 82.5195 59.4058C82.5195 63.6618 85.9825 67.1248 90.2386 67.1248C94.4954 67.1248 97.9576 63.6618 97.9576 59.4058C97.9576 58.9573 97.5944 58.5933 97.145 58.5933Z" fill="#333333" id="svg_29" fill-opacity="1"/>
<path d="M83.3321 55.3433C82.8827 55.3433 82.5195 55.7073 82.5195 56.1558V59.4059C82.5195 59.8544 82.8827 60.2184 83.3321 60.2184C83.7814 60.2184 84.1446 59.8544 84.1446 59.4059V56.1558C84.1446 55.7073 83.7814 55.3433 83.3321 55.3433Z" fill="#333333" id="svg_30" fill-opacity="1"/>
<path d="M97.1446 55.3433C96.6952 55.3433 96.332 55.7073 96.332 56.1558V59.4059C96.332 59.8544 96.6952 60.2184 97.1446 60.2184C97.5939 60.2184 97.9571 59.8544 97.9571 59.4059V56.1558C97.9571 55.7073 97.5939 55.3433 97.1446 55.3433Z" fill="#333333" id="svg_31" fill-opacity="1"/>
<path d="M93.0821 61.6377C92.6327 61.6377 92.2695 62.0017 92.2695 62.4502V65.7003C92.2695 66.1489 92.6327 66.5129 93.0821 66.5129C93.5314 66.5129 93.8946 66.1489 93.8946 65.7003V62.4502C93.8946 62.0017 93.5314 61.6377 93.0821 61.6377Z" fill="#333333" id="svg_32" fill-opacity="1"/>
<path d="M87.3946 61.6387C86.9452 61.6387 86.582 62.0027 86.582 62.4512V65.7005C86.582 66.149 86.9452 66.513 87.3946 66.513C87.8439 66.513 88.2071 66.149 88.2071 65.7005V62.4512C88.2071 62.0027 87.8439 61.6387 87.3946 61.6387Z" fill="#333333" id="svg_33" fill-opacity="1"/>
<path d="M94.3439 72C92.328 72 90.6875 73.6405 90.6875 75.6564C90.6875 77.6723 92.328 79.3128 94.3439 79.3128C96.3598 79.3128 98.0003 77.6723 98.0003 75.6564C98.0003 73.6405 96.3598 72 94.3439 72ZM94.3439 77.6877C93.2234 77.6877 92.3126 76.7769 92.3126 75.6564C92.3126 74.5359 93.2234 73.6251 94.3439 73.6251C95.4644 73.6251 96.3752 74.5359 96.3752 75.6564C96.3752 76.7769 95.4644 77.6877 94.3439 77.6877Z" fill="#333333" id="svg_34" fill-opacity="1"/>
<path d="M97.1877 77.2815C96.7384 77.2815 96.3752 77.6447 96.3752 78.094C96.3752 79.2145 95.4644 80.1253 94.3439 80.1253C93.2234 80.1253 92.3126 79.2145 92.3126 78.094C92.3126 77.6447 91.9494 77.2815 91.5 77.2815C91.0507 77.2815 90.6875 77.6447 90.6875 78.094C90.6875 80.1099 92.328 81.7504 94.3439 81.7504C96.3598 81.7504 98.0003 80.1099 98.0003 78.094C98.0003 77.6447 97.6371 77.2815 97.1877 77.2815Z" fill="#333333" id="svg_35" fill-opacity="1"/>
<path d="M91.5 74.844C91.0507 74.844 90.6875 75.2072 90.6875 75.6565V78.0941C90.6875 78.5434 91.0507 78.9066 91.5 78.9066C91.9494 78.9066 92.3126 78.5434 92.3126 78.0941V75.6565C92.3126 75.2072 91.9494 74.844 91.5 74.844Z" fill="#333333" id="svg_36" fill-opacity="1"/>
<path d="M97.1875 74.844C96.7382 74.844 96.375 75.2072 96.375 75.6565V78.0941C96.375 78.5434 96.7382 78.9066 97.1875 78.9066C97.6369 78.9066 98.0001 78.5434 98.0001 78.0941V75.6565C98.0001 75.2072 97.6369 74.844 97.1875 74.844Z" fill="#333333" id="svg_37" fill-opacity="1"/>
<path d="M87.0314 68.75C85.4632 68.75 84.1875 70.0257 84.1875 71.5939C84.1875 73.162 85.4632 74.4377 87.0314 74.4377C88.5995 74.4377 89.8752 73.162 89.8752 71.5939C89.8752 70.0257 88.5995 68.75 87.0314 68.75ZM87.0314 72.8126C86.3594 72.8126 85.8126 72.2658 85.8126 71.5939C85.8126 70.9219 86.3594 70.3751 87.0314 70.3751C87.7033 70.3751 88.2501 70.9219 88.2501 71.5939C88.2501 72.2658 87.7033 72.8126 87.0314 72.8126Z" fill="#333333" id="svg_38" fill-opacity="1"/>
<path d="M97.1457 93.9382H64.6446C64.1952 93.9382 63.832 94.3014 63.832 94.7508C63.832 95.2001 64.1952 95.5633 64.6446 95.5633H97.1457C97.595 95.5633 97.9582 95.2001 97.9582 94.7508C97.9582 94.3014 97.595 93.9382 97.1457 93.9382Z" fill="#333333" id="svg_39" fill-opacity="1"/>
</g></g></svg>