<svg width="145" height="145" viewBox="0 0 145 145" fill="none" xmlns="http://www.w3.org/2000/svg">
<circle cx="72.5" cy="72.5" r="57.5" fill="#F1F5FD"/>
<path d="M72.5 0C82.0208 1.13535e-07 91.4484 1.87527 100.245 5.51874C109.041 9.1622 117.033 14.5025 123.765 21.2348C130.497 27.967 135.838 35.9594 139.481 44.7555C143.125 53.5516 145 62.9792 145 72.5H143.55C143.55 63.1696 141.712 53.9305 138.142 45.3103C134.571 36.6902 129.338 28.8577 122.74 22.2601C116.142 15.6625 108.31 10.429 99.6897 6.85836C91.0695 3.28776 81.8304 1.45 72.5 1.45V0Z" fill="url(#paint0_linear)"/>
<path d="M97.2227 52.1953H80.1502C79.7297 52.1953 79.3885 52.5365 79.3885 52.957C79.3885 53.3776 79.7297 53.7188 80.1502 53.7188H97.2227C97.3627 53.7188 97.4766 53.8326 97.4766 53.9727V58.5965H48.5234V53.9727C48.5234 53.8326 48.6373 53.7188 48.7773 53.7188H86.644C87.0649 53.7188 87.4057 53.3776 87.4057 52.957C87.4057 52.5365 87.0649 52.1953 86.644 52.1953H48.7773C47.7974 52.1953 47 52.9927 47 53.9727V90.1261C47 91.106 47.7974 91.9035 48.7773 91.9035H87.5775C87.9984 91.9035 88.3392 91.5623 88.3392 91.1418C88.3392 90.7212 87.9984 90.38 87.5775 90.38H48.7773C48.6373 90.38 48.5234 90.2662 48.5234 90.1261V60.12H97.4766V63.0054C97.4766 63.4263 97.8177 63.7671 98.2383 63.7671C98.6588 63.7671 99 63.4263 99 63.0054V53.9727C99 52.9927 98.2026 52.1953 97.2227 52.1953Z" fill="#333333"/>
<path d="M98.2383 55.7499C97.8177 55.7499 97.4766 56.0911 97.4766 56.5117V90.1261C97.4766 90.2662 97.3627 90.38 97.2227 90.38H81.0837C80.6632 90.38 80.322 90.7208 80.322 91.1418C80.322 91.5623 80.6632 91.9035 81.0837 91.9035H97.2227C98.2026 91.9035 99 91.106 99 90.1261V56.5117C99 56.0911 98.6588 55.7499 98.2383 55.7499Z" fill="#333333"/>
<path d="M51.8164 55.3958C51.3955 55.3958 51.0547 55.7369 51.0547 56.1575C51.0547 56.5784 51.3955 56.9192 51.8164 56.9192H51.8279C52.2484 56.9192 52.5896 56.5784 52.5896 56.1575C52.5896 55.7369 52.2484 55.3958 51.8279 55.3958H51.8164Z" fill="url(#paint1_linear)"/>
<path d="M54.1172 55.3958C53.6967 55.3958 53.3555 55.7369 53.3555 56.1575C53.3555 56.5784 53.6967 56.9192 54.1172 56.9192H54.1287C54.5496 56.9192 54.8904 56.5784 54.8904 56.1575C54.8904 55.7369 54.5496 55.3958 54.1287 55.3958H54.1172Z" fill="url(#paint2_linear)"/>
<path d="M56.418 55.3958C55.9974 55.3958 55.6562 55.7369 55.6562 56.1575C55.6562 56.5784 55.9974 56.9192 56.418 56.9192H56.4295C56.85 56.9192 57.1912 56.5784 57.1912 56.1575C57.1912 55.7369 56.85 55.3958 56.4295 55.3958H56.418Z" fill="url(#paint3_linear)"/>
<path d="M94.1831 56.9192C94.6041 56.9192 94.9449 56.5784 94.9449 56.1575C94.9449 55.7369 94.6041 55.3958 94.1831 55.3958H92.7656C92.3451 55.3958 92.0039 55.7369 92.0039 56.1575C92.0039 56.5784 92.3451 56.9192 92.7656 56.9192H94.1831Z" fill="url(#paint4_linear)"/>
<path d="M71.2437 74.4785C71.2437 69.5789 67.2578 65.5925 62.3582 65.5925C57.4586 65.5925 53.4727 69.5789 53.4727 74.4785C53.4727 79.3781 57.4586 83.364 62.3582 83.364C67.2578 83.364 71.2437 79.3777 71.2437 74.4785ZM62.3582 67.116C66.4179 67.116 69.7203 70.4187 69.7203 74.4785C69.7203 75.8349 69.3501 77.106 68.7074 78.1982C67.906 77.1754 66.8765 76.3665 65.6943 75.8321C66.0922 75.2068 66.3088 74.4757 66.3088 73.7155C66.3088 71.5371 64.5366 69.7649 62.3582 69.7649C60.1797 69.7649 58.4076 71.5371 58.4076 73.7155C58.4076 74.4757 58.6242 75.2068 59.0221 75.8321C57.8402 76.3665 56.8107 77.1762 56.0093 78.199C55.3666 77.1064 54.9961 75.8353 54.9961 74.4785C54.9961 70.4187 58.2989 67.116 62.3582 67.116ZM62.3582 81.8405C60.2274 81.8405 58.3056 80.9293 56.9599 79.4772C57.8168 78.2295 59.0661 77.3206 60.5293 76.8957C60.7998 76.8172 61.0045 76.5954 61.0625 76.3201C61.12 76.0443 61.0208 75.7595 60.8046 75.579C60.2492 75.1164 59.931 74.4372 59.931 73.7155C59.931 72.377 61.02 71.288 62.3582 71.288C63.6967 71.288 64.7854 72.377 64.7854 73.7155C64.7854 74.4368 64.4672 75.1164 63.9118 75.579C63.6956 75.7595 63.5964 76.0443 63.6539 76.3201C63.7118 76.5954 63.9165 76.8172 64.1871 76.8953C65.6502 77.3206 66.8995 78.2295 67.7565 79.4772C66.4108 80.9293 64.4894 81.8405 62.3582 81.8405Z" fill="#333333"/>
<path d="M76.5532 73.7336H89.7841C91.2976 73.7336 92.5286 72.5026 92.5286 70.9894C92.5286 69.4759 91.2976 68.2449 89.7841 68.2449H76.5532C75.04 68.2449 73.8086 69.4759 73.8086 70.9894C73.8086 72.5026 75.04 73.7336 76.5532 73.7336ZM76.5532 69.7683H89.7841C90.4573 69.7683 91.0052 70.3162 91.0052 70.9894C91.0052 71.6627 90.4573 72.2106 89.7841 72.2106H76.5532C75.8799 72.2106 75.332 71.6627 75.332 70.9894C75.332 70.3162 75.8799 69.7683 76.5532 69.7683Z" fill="url(#paint5_linear)"/>
<path d="M76.5532 83.1401H89.7841C91.2976 83.1401 92.5286 81.9091 92.5286 80.3955C92.5286 78.8824 91.2976 77.6514 89.7841 77.6514H76.5532C75.04 77.6514 73.8086 78.8824 73.8086 80.3955C73.8086 81.9091 75.04 83.1401 76.5532 83.1401ZM76.5532 79.1748H89.7841C90.4573 79.1748 91.0052 79.7223 91.0052 80.3955C91.0052 81.0692 90.4573 81.6167 89.7841 81.6167H76.5532C75.8799 81.6167 75.332 81.0692 75.332 80.3955C75.332 79.7223 75.8799 79.1748 76.5532 79.1748Z" fill="url(#paint6_linear)"/>
<defs>
<linearGradient id="paint0_linear" x1="-1.4348e-07" y1="50.0352" x2="147.994" y2="56.6575" gradientUnits="userSpaceOnUse">
<stop stop-color="#4697FC"/>
<stop offset="1" stop-color="#1B5FFD"/>
</linearGradient>
<linearGradient id="paint1_linear" x1="51.0547" y1="55.9214" x2="52.6213" y2="55.9921" gradientUnits="userSpaceOnUse">
<stop stop-color="#4697FC"/>
<stop offset="1" stop-color="#1B5FFD"/>
</linearGradient>
<linearGradient id="paint2_linear" x1="53.3555" y1="55.9214" x2="54.9221" y2="55.9921" gradientUnits="userSpaceOnUse">
<stop stop-color="#4697FC"/>
<stop offset="1" stop-color="#1B5FFD"/>
</linearGradient>
<linearGradient id="paint3_linear" x1="55.6562" y1="55.9214" x2="57.2228" y2="55.9921" gradientUnits="userSpaceOnUse">
<stop stop-color="#4697FC"/>
<stop offset="1" stop-color="#1B5FFD"/>
</linearGradient>
<linearGradient id="paint4_linear" x1="92.0039" y1="55.9214" x2="94.9893" y2="56.1793" gradientUnits="userSpaceOnUse">
<stop stop-color="#4697FC"/>
<stop offset="1" stop-color="#1B5FFD"/>
</linearGradient>
<linearGradient id="paint5_linear" x1="73.8086" y1="70.1389" x2="92.5176" y2="72.9942" gradientUnits="userSpaceOnUse">
<stop stop-color="#4697FC"/>
<stop offset="1" stop-color="#1B5FFD"/>
</linearGradient>
<linearGradient id="paint6_linear" x1="73.8086" y1="79.5454" x2="92.5176" y2="82.4007" gradientUnits="userSpaceOnUse">
<stop stop-color="#4697FC"/>
<stop offset="1" stop-color="#1B5FFD"/>
</linearGradient>
</defs>
</svg>
