<svg width="175" height="119" viewBox="0 0 175 119" fill="none" xmlns="http://www.w3.org/2000/svg">
<path d="M88.5709 117.687C115.318 117.687 137.002 95.6698 137.002 68.5107C137.002 41.3515 115.318 19.3347 88.5709 19.3347C61.8233 19.3347 40.1401 41.3515 40.1401 68.5107C40.1401 95.6698 61.8233 117.687 88.5709 117.687Z" fill="#E8EEF1"/>
<path d="M53.9578 87.6266H24.1808C20.9337 87.6266 18.3083 84.854 18.3083 81.4249V76.9742C18.3083 73.545 20.9337 70.7725 24.1808 70.7725H53.9578C57.2049 70.7725 59.8302 73.545 59.8302 76.9742V81.4249C59.8302 84.854 57.2049 87.6266 53.9578 87.6266ZM59.1394 68.5107H30.4678C27.2207 68.5107 24.5953 65.7382 24.5953 62.309V57.8583C24.5953 54.4291 27.2207 51.6566 30.4678 51.6566H59.2085C62.4556 51.6566 65.0809 54.4291 65.0809 57.8583V62.309C65.0118 65.7382 62.3865 68.5107 59.1394 68.5107V68.5107Z" fill="#E8EEF1"/>
<path d="M64.321 100.468H31.0896C27.8425 100.468 25.2171 97.6953 25.2171 94.2661V89.8155C25.2171 86.3863 27.8425 83.6138 31.0896 83.6138H64.321C67.5681 83.6138 70.1934 86.3863 70.1934 89.8155V94.2661C70.1934 97.6953 67.5681 100.468 64.321 100.468ZM47.7398 51.6567H14.5085C11.2613 51.6567 8.636 48.8842 8.636 45.455V41.0043C8.636 37.5751 11.2613 34.8026 14.5085 34.8026H47.7398C50.987 34.8026 53.6123 37.5751 53.6123 41.0043V45.455C53.6123 48.8842 50.987 51.6567 47.7398 51.6567Z" fill="white"/>
<path d="M116.552 34.8026H149.092C152.339 34.8026 154.964 37.5751 154.964 41.0043V45.455C154.964 48.8842 152.339 51.6567 149.092 51.6567H116.552C113.304 51.6567 110.679 48.8842 110.679 45.455V41.0043C110.679 37.5751 113.304 34.8026 116.552 34.8026V34.8026ZM110.334 68.5108H140.111C143.358 68.5108 145.983 71.2833 145.983 74.7125V79.1631C145.983 82.5923 143.358 85.3648 140.111 85.3648H110.334C107.086 85.3648 104.461 82.5923 104.461 79.1631V74.7125C104.461 71.2833 107.086 68.5108 110.334 68.5108Z" fill="#E8EEF1"/>
<path d="M127.606 51.6566H154.964C158.212 51.6566 160.837 54.4291 160.837 57.8583V62.309C160.837 65.7382 158.212 68.5107 154.964 68.5107H127.606C124.358 68.5107 121.733 65.7382 121.733 62.309V57.8583C121.733 54.4291 124.358 51.6566 127.606 51.6566Z" fill="white"/>
<path d="M169.128 85.3648H158.764C155.517 85.3648 152.892 82.5923 152.892 79.1631V74.7125C152.892 71.2833 155.517 68.5107 158.764 68.5107H169.128C172.375 68.5107 175 71.2833 175 74.7125V79.1631C175 82.5923 172.375 85.3648 169.128 85.3648ZM11.0541 51.6567H8.29056C3.79984 51.5837 0.138176 55.3777 0 60.1202C0.138176 64.8627 3.79984 68.5837 8.29056 68.5107H11.0541C15.5448 68.5837 19.2756 64.7897 19.3447 60.0472C19.2756 55.3777 15.5448 51.5837 11.0541 51.6567V51.6567Z" fill="#E8EEF1"/>
<path d="M103.77 32.6138H116.897C120.144 32.6138 122.769 35.3863 122.769 38.8155V43.2661C122.769 46.6953 120.144 49.4678 116.897 49.4678H103.77C100.523 49.4678 97.8977 46.6953 97.8977 43.2661V38.8155C97.8977 35.3863 100.523 32.6138 103.77 32.6138V32.6138ZM87.4655 50.1975H100.592C103.839 50.1975 106.465 52.97 106.465 56.3992V60.8498C106.465 64.279 103.839 67.0515 100.592 67.0515H87.4655C84.2183 67.0515 81.593 64.279 81.593 60.8498V56.3992C81.593 52.97 84.2183 50.1975 87.4655 50.1975ZM109.643 85.3648H137.692C140.94 85.3648 143.565 88.1374 143.565 91.5666V96.0172C143.565 99.4464 140.94 102.219 137.692 102.219H109.643C106.396 102.219 103.77 99.4464 103.77 96.0172V91.5666C103.77 88.1374 106.396 85.3648 109.643 85.3648Z" fill="white"/>
<path d="M164.36 87.4807C165.314 87.4807 166.088 86.6967 166.088 85.7296C166.088 84.7625 165.314 83.9785 164.36 83.9785C163.407 83.9785 162.633 84.7625 162.633 85.7296C162.633 86.6967 163.407 87.4807 164.36 87.4807Z" fill="#9FD3F2" stroke="#FAA934" stroke-width="2" stroke-miterlimit="10"/>
<path d="M123.184 22.618L124.013 25.3906L126.707 26.2661L124.013 27.0687L123.184 29.8412L122.355 27.0687L119.591 26.2661L122.355 25.3906L123.184 22.618Z" fill="#8BC9ED"/>
<path d="M84.4256 111.777L85.2546 114.549L88.0182 115.352L85.2546 116.228L84.4256 119L83.5965 116.228L80.9021 115.352L83.5965 114.549L84.4256 111.777Z" fill="#FBB147"/>
<path d="M136.311 59.8284L137.14 62.6009L139.903 63.4035L137.14 64.279L136.311 67.0516L135.482 64.279L132.787 63.4035L135.482 62.6009L136.311 59.8284Z" fill="#FAA934"/>
<path d="M130.645 87.5537C130.231 87.5537 129.955 87.2618 129.955 86.824V84.0515C129.955 83.6137 130.231 83.3219 130.645 83.3219C131.06 83.3219 131.336 83.6137 131.336 84.0515V86.824C131.336 87.2618 130.991 87.5537 130.645 87.5537ZM130.645 95.9442C130.231 95.9442 129.955 95.6524 129.955 95.2146V92.4421C129.955 92.0043 130.231 91.7125 130.645 91.7125C131.06 91.7125 131.336 92.0043 131.336 92.4421V95.2146C131.336 95.5794 130.991 95.9442 130.645 95.9442ZM136.173 90.3262H133.409C133.064 90.3992 132.649 90.1803 132.58 89.8155C132.511 89.4507 132.718 89.0129 133.064 88.9399H136.173C136.518 88.867 136.932 89.0858 137.002 89.4507C137.071 89.8155 136.863 90.2532 136.518 90.3262H136.173ZM127.882 90.3262H125.118C124.773 90.3992 124.358 90.1803 124.289 89.8155C124.22 89.4507 124.428 89.0129 124.773 88.9399H127.882C128.227 88.867 128.642 89.0858 128.711 89.4507C128.78 89.8155 128.573 90.2532 128.227 90.3262H127.882Z" fill="#104470"/>
<path d="M130.645 90.3262C131.027 90.3262 131.336 89.9995 131.336 89.5966C131.336 89.1936 131.027 88.8669 130.645 88.8669C130.264 88.8669 129.955 89.1936 129.955 89.5966C129.955 89.9995 130.264 90.3262 130.645 90.3262Z" fill="#104470"/>
<path d="M57.274 23.6395H54.5105M60.0375 18.0215V20.794V18.0215ZM60.0375 26.412V29.2575V26.412ZM65.5645 23.6395H62.801H65.5645Z" stroke="#8BC9ED" stroke-width="2" stroke-miterlimit="10" stroke-linecap="round"/>
<path d="M60.0375 24.3691C60.4191 24.3691 60.7284 24.0425 60.7284 23.6395C60.7284 23.2366 60.4191 22.9099 60.0375 22.9099C59.6559 22.9099 59.3466 23.2366 59.3466 23.6395C59.3466 24.0425 59.6559 24.3691 60.0375 24.3691Z" fill="#8BC9ED"/>
<path d="M113.65 108.056C114.133 108.056 114.479 107.691 114.479 107.18C114.479 106.669 114.133 106.305 113.65 106.305C113.166 106.305 112.821 106.669 112.821 107.18C112.821 107.691 113.235 108.056 113.65 108.056ZM140.318 72.5965V72.4506C140.318 72.2317 140.111 72.0128 139.903 72.0128C139.696 72.0128 139.489 72.2317 139.489 72.4506V72.5965C139.489 72.8154 139.696 73.0343 139.903 73.0343C140.18 73.0343 140.318 72.8154 140.318 72.5965ZM143.358 75.369C143.22 75.2961 143.012 75.369 142.943 75.515C142.874 75.6609 142.874 75.8068 143.012 75.8798C143.289 76.2446 143.772 75.5879 143.358 75.369Z" fill="#094B7C"/>
<path d="M25.148 81.7167C25.7698 81.6437 26.1844 81.133 26.1844 80.4764C26.1153 79.8927 25.7007 79.4549 25.148 79.382C24.5263 79.4549 24.1117 79.9656 24.1117 80.6223C24.1808 81.206 24.5953 81.6437 25.148 81.7167Z" fill="#FAA934"/>
<path d="M43.6636 60.7039C43.0418 60.4121 42.4201 60.6309 42.1437 61.2146C42.0055 61.5065 42.0055 61.8713 42.1437 62.2361V62.3091C42.4201 62.8927 43.1109 63.0387 43.6636 62.7468C44.2163 62.455 44.3545 61.7254 44.0782 61.1417C43.94 60.9958 43.8709 60.8498 43.6636 60.7039Z" fill="#094B7C"/>
<path d="M45.4599 45.6008C45.3217 46.1115 45.0454 46.6223 44.5618 46.9141C44.0782 47.2789 43.3873 47.4978 42.7655 47.3519C42.1437 47.2789 41.591 46.9141 41.1765 46.4034C40.7619 45.8927 40.6238 45.236 40.6929 44.5793C40.7619 43.9227 41.1074 43.339 41.591 42.9742C42.0746 42.5364 42.7655 42.3905 43.3873 42.4635C44.7 42.6094 45.5981 43.8497 45.4599 45.163C45.529 45.4549 45.529 45.5278 45.4599 45.6008V45.6008ZM42.1437 44.7253V44.8712C42.1437 45.163 42.2128 45.4549 42.351 45.6738C42.4891 45.8927 42.7655 46.0386 43.0418 46.0386C43.3182 46.1115 43.5945 45.9656 43.8018 45.8197C44.0091 45.6738 44.1473 45.3819 44.2163 45.0901C44.2854 44.5064 43.8709 43.9957 43.3182 43.9227C42.7655 43.8497 42.2819 44.2145 42.1437 44.7253V44.7253Z" fill="#8BC9ED"/>
<path d="M139.005 46.0386C139.959 46.0386 140.732 45.2547 140.732 44.2876C140.732 43.3205 139.959 42.5365 139.005 42.5365C138.051 42.5365 137.278 43.3205 137.278 44.2876C137.278 45.2547 138.051 46.0386 139.005 46.0386Z" stroke="#8BC9ED" stroke-width="2" stroke-miterlimit="10"/>
<path d="M34.4749 89.5965H31.7114M37.2385 83.9785V86.824V83.9785ZM37.2385 92.442V95.2146V92.442ZM42.7655 89.5965H40.002H42.7655Z" stroke="#8BC9ED" stroke-width="2" stroke-miterlimit="10" stroke-linecap="round"/>
<path d="M37.2385 90.3262C37.62 90.3262 37.9293 89.9995 37.9293 89.5966C37.9293 89.1936 37.62 88.8669 37.2385 88.8669C36.8569 88.8669 36.5476 89.1936 36.5476 89.5966C36.5476 89.9995 36.8569 90.3262 37.2385 90.3262Z" fill="#FBB147"/>
<path d="M37.2385 83.3219C36.8239 83.3219 36.5476 83.6137 36.5476 84.0515V85.3648H37.9293V83.9786C37.9293 83.6137 37.5839 83.3219 37.2385 83.3219V83.3219Z" fill="#104470"/>
<path d="M4.14529 38.5236C5.13735 38.5236 5.94158 37.6743 5.94158 36.6266C5.94158 35.5789 5.13735 34.7296 4.14529 34.7296C3.15322 34.7296 2.349 35.5789 2.349 36.6266C2.349 37.6743 3.15322 38.5236 4.14529 38.5236Z" fill="#9FD3F2" stroke="#FAA934" stroke-width="2" stroke-miterlimit="10"/>
<path d="M47.6017 105.794L46.7726 102.803L43.8709 101.854L46.7726 100.906L47.6017 97.9142L48.4998 100.906L51.4015 101.854L48.4998 102.803L47.6017 105.794Z" fill="#8BC9ED"/>
<path d="M88.4327 7.95279L87.5345 4.88841L84.6328 3.93991L87.5345 3.06438L88.3636 0L89.2617 3.06438L92.1634 3.93991L89.2617 4.88841L88.4327 7.95279Z" fill="#FBB147"/>
<path d="M33.715 65.0086L32.8168 61.9442L29.9842 61.0687L32.8168 60.1202L33.715 57.0558L34.6131 60.1202L37.5148 61.0687L34.6131 61.9442L33.715 65.0086Z" fill="#FAA934"/>
<path d="M39.7256 34.5836C40.1401 34.5836 40.4165 34.8755 40.4856 35.3133V38.4506C40.5547 38.8884 40.2092 39.2532 39.7947 39.3261C39.3802 39.3991 39.0347 39.0343 38.9657 38.5965V35.3862C38.9657 34.9484 39.242 34.6566 39.5874 34.6566C39.6565 34.5836 39.7256 34.5836 39.7256 34.5836ZM39.7256 25.3905C40.1401 25.3905 40.4856 25.7553 40.4856 26.1931V29.1845C40.4165 29.6223 40.0711 29.9141 39.6565 29.9141C39.3111 29.9141 39.0347 29.6223 38.9657 29.1845V26.1201C38.9657 25.6823 39.3111 25.3905 39.7256 25.3905ZM33.8531 31.5193H36.7548C37.1694 31.5922 37.4457 31.957 37.4457 32.3948C37.4457 32.7596 37.1694 33.0514 36.7548 33.1244H33.8531C33.4386 33.1974 33.0932 32.8326 33.0241 32.3948C32.955 31.957 33.3004 31.5922 33.715 31.5193H33.8531ZM42.6273 31.5193H45.529C45.9435 31.4463 46.289 31.8111 46.3581 32.2489C46.4272 32.6866 46.0817 33.0514 45.6672 33.1244H42.6273C42.2128 33.0514 41.9364 32.6866 41.9364 32.2489C42.0055 31.8111 42.2819 31.5193 42.6273 31.5193V31.5193Z" fill="#104470"/>
<path d="M39.7256 33.1244C40.1453 33.1244 40.4856 32.7651 40.4856 32.3219C40.4856 31.8786 40.1453 31.5193 39.7256 31.5193C39.3059 31.5193 38.9657 31.8786 38.9657 32.3219C38.9657 32.7651 39.3059 33.1244 39.7256 33.1244Z" fill="#104470"/>
<path d="M120.006 93.5364H122.908M117.104 99.6652V96.6008V99.6652ZM117.104 90.3991V87.3347V90.3991ZM111.301 93.5364H114.203H111.301Z" stroke="#8BC9ED" stroke-width="2" stroke-miterlimit="10" stroke-linecap="round"/>
<path d="M117.104 94.339C117.524 94.339 117.864 93.9797 117.864 93.5365C117.864 93.0932 117.524 92.7339 117.104 92.7339C116.685 92.7339 116.344 93.0932 116.344 93.5365C116.344 93.9797 116.685 94.339 117.104 94.339Z" fill="#8BC9ED"/>
<path d="M57.5503 13.9356C58.0339 13.9356 58.3794 13.5708 58.3794 13.0601C58.3794 12.5494 58.0339 12.1846 57.5503 12.1846C57.0667 12.1846 56.7213 12.5494 56.7213 13.0601C56.7213 13.5708 57.1358 13.9356 57.5503 13.9356ZM29.5006 51V51.073C29.5006 51.2919 29.7079 51.4378 29.9151 51.4378C30.1224 51.4378 30.2606 51.2919 30.2606 51.073V50.9271C30.2606 50.7082 30.0533 50.5623 29.846 50.5623C29.6388 50.6352 29.5006 50.7811 29.5006 51V51ZM26.3225 47.9356C26.4607 48.0086 26.5298 48.0086 26.5989 47.9356H26.668C26.8062 47.8627 26.8752 47.6438 26.8062 47.4979C26.7371 47.352 26.5298 47.279 26.3916 47.352C26.2535 47.4249 26.1844 47.6438 26.2535 47.7897C26.2535 47.8627 26.2535 47.8627 26.3225 47.9356Z" fill="#094B7C"/>
<path d="M150.957 43.266C151.579 43.1931 151.994 42.6824 151.994 42.0257C151.925 41.442 151.51 41.0042 150.957 40.9313C150.336 41.0042 149.921 41.515 149.921 42.1716C149.99 42.7553 150.474 43.266 150.957 43.266Z" fill="#FAA934"/>
<path d="M131.475 63.8412L131.544 63.9142C132.096 64.206 132.718 63.9871 132.994 63.4764C133.202 63.1116 133.202 62.7468 132.994 62.382V62.309C132.718 61.7253 132.027 61.5794 131.475 61.8713C130.922 62.1631 130.784 62.8927 131.06 63.4764C131.198 63.5494 131.336 63.6953 131.475 63.8412V63.8412Z" fill="#094B7C"/>
<path d="M129.54 80.4765C129.678 79.8928 130.024 79.382 130.438 79.0172C131.544 78.1417 133.133 78.3606 134.031 79.528C134.445 80.1117 134.653 80.8413 134.514 81.4979C134.307 82.9571 133.064 83.9786 131.613 83.8327C130.162 83.6868 129.264 82.3005 129.402 80.7683C129.54 80.6953 129.54 80.6224 129.54 80.4765ZM133.064 81.425V81.279C133.133 80.9872 132.994 80.6953 132.856 80.4035C132.649 80.1846 132.442 79.9657 132.096 79.9657C131.82 79.8928 131.544 80.0387 131.267 80.1846C130.784 80.5494 130.715 81.279 131.06 81.7898C131.405 82.3005 132.096 82.3735 132.58 82.0086C132.856 81.9357 132.994 81.7168 133.064 81.425V81.425Z" fill="#8BC9ED"/>
<path d="M30.8824 83.9056C31.8744 83.9056 32.6786 83.0563 32.6786 82.0086C32.6786 80.9609 31.8744 80.1116 30.8824 80.1116C29.8903 80.1116 29.0861 80.9609 29.0861 82.0086C29.0861 83.0563 29.8903 83.9056 30.8824 83.9056Z" stroke="#8BC9ED" stroke-width="2" stroke-miterlimit="10"/>
<path d="M141.147 32.176H144.049M138.245 38.3777V35.2404V38.3777ZM138.176 29.1116V26.0472V29.1116ZM132.373 32.176H135.274H132.373Z" stroke="#8BC9ED" stroke-width="2" stroke-miterlimit="10" stroke-linecap="round"/>
<path d="M138.245 32.9786C138.665 32.9786 139.005 32.6192 139.005 32.176C139.005 31.7327 138.665 31.3734 138.245 31.3734C137.825 31.3734 137.485 31.7327 137.485 32.176C137.485 32.6192 137.825 32.9786 138.245 32.9786Z" fill="#FBB147"/>
<path d="M138.245 39.1073C138.66 39.1073 138.936 38.8154 139.005 38.4506V36.9185H137.485V38.3777C137.485 38.8154 137.831 39.1073 138.245 39.1073Z" fill="#104470"/>
<path opacity="0.6" d="M83.7347 102.876C90.4502 102.876 95.8942 101.046 95.8942 98.7897C95.8942 96.5331 90.4502 94.7039 83.7347 94.7039C77.0192 94.7039 71.5752 96.5331 71.5752 98.7897C71.5752 101.046 77.0192 102.876 83.7347 102.876Z" fill="#9BBFD0"/>
<path opacity="0.6" d="M110.334 103.97C119.3 103.97 126.569 100.834 126.569 96.9657C126.569 93.0973 119.3 89.9614 110.334 89.9614C101.367 89.9614 94.0979 93.0973 94.0979 96.9657C94.0979 100.834 101.367 103.97 110.334 103.97Z" fill="#9BBFD0"/>
<path d="M102.527 62.0172H112.752C116.966 62.0172 120.351 65.5923 120.42 70.043V92.8799C120.42 95.5795 118.348 97.7683 115.792 97.7683H99.4868C96.9305 97.7683 94.8579 95.5795 94.8579 92.8799V70.1889C94.7888 65.6653 98.2432 62.0172 102.527 62.0172Z" fill="white"/>
<path d="M79.1058 74.2747H86.4982C91.4726 74.2747 95.5488 78.5794 95.5488 83.8326V92.1502C95.5488 95.6523 92.8543 98.5708 89.469 98.5708H75.9278C72.6115 98.5708 69.848 95.7253 69.848 92.1502V83.9785C69.9171 78.6523 73.9933 74.2747 79.1058 74.2747V74.2747Z" fill="white"/>
<path d="M110.334 62.382H116.068C118.348 62.382 120.213 64.3519 120.213 66.7596V97.0386C120.213 97.6953 119.73 98.206 119.108 98.206H107.225C106.603 98.206 106.119 97.6953 106.119 97.0386V66.9056C106.05 64.4249 107.985 62.382 110.334 62.382V62.382Z" fill="#F2F2F3"/>
<path d="M57.1358 94.6309C50.2961 94.6309 43.4564 92.6609 43.4564 88.8669C43.4564 85.0729 50.3652 83.03 57.1358 83.03C63.9064 83.03 70.8152 85 70.8152 88.8669C70.8152 92.7339 63.9755 94.6309 57.1358 94.6309ZM57.1358 85.5107C50.0888 85.5107 45.8054 87.6996 45.8054 88.8669C45.8054 90.0343 50.0888 92.2232 57.1358 92.2232C64.1828 92.2232 68.4662 90.0343 68.4662 88.8669C68.4662 87.6996 64.1828 85.5107 57.1358 85.5107V85.5107Z" fill="#0F4470"/>
<path d="M57.1358 100.322C50.2961 100.322 43.4564 98.3519 43.4564 94.5579V88.8669C43.4564 88.2103 44.0091 87.6266 44.6309 87.6266C45.2527 87.6266 45.8054 88.2103 45.8054 88.8669V94.5579C45.8054 95.7253 50.0888 97.9141 57.1358 97.9141C64.1828 97.9141 68.4662 95.7253 68.4662 94.5579V88.8669C68.5353 88.2103 69.088 87.6995 69.7098 87.6995C70.2625 87.7725 70.7461 88.2103 70.8152 88.8669V94.5579C70.8843 98.3519 63.9755 100.322 57.1358 100.322V100.322Z" fill="#0F4470"/>
<path d="M82.2839 94.558C75.5132 94.558 68.6044 92.588 68.6044 88.7211C68.6735 88.0644 69.2262 87.5537 69.848 87.5537C70.4007 87.6266 70.8843 88.0644 70.9534 88.7211C70.9534 89.8884 75.2369 92.0773 82.2839 92.0773C89.3308 92.0773 93.6143 89.8884 93.6143 88.7211C93.6143 88.0644 94.167 87.4807 94.7888 87.4807C95.4106 87.4807 95.9633 88.0644 95.9633 88.7211C95.9633 92.588 89.0545 94.558 82.2839 94.558V94.558Z" fill="#0F4470"/>
<path d="M82.2839 100.322C75.5132 100.322 68.6044 98.3519 68.6044 94.4849V88.7939C68.6735 88.1373 69.2262 87.6265 69.848 87.6265C70.4007 87.6995 70.8843 88.1373 70.9534 88.7939V94.4849C70.9534 95.6523 75.2369 97.8411 82.2839 97.8411C89.3308 97.8411 93.6143 95.6523 93.6143 94.4849V88.7939C93.6143 88.1373 94.167 87.5536 94.7888 87.5536C95.4106 87.5536 95.9633 88.1373 95.9633 88.7939V94.4849C95.9633 98.2789 89.0545 100.322 82.2839 100.322V100.322Z" fill="#0F4470"/>
<path d="M82.2839 89.0129C75.5132 89.0129 68.6044 87.0429 68.6044 83.176C68.6735 82.5193 69.2262 82.0086 69.848 82.0086C70.4007 82.0816 70.8843 82.5193 70.9534 83.176C70.9534 84.3434 75.2369 86.5322 82.2839 86.4592C89.3308 86.3863 93.6143 84.2704 93.6143 83.103C93.6143 82.4464 94.167 81.8627 94.7888 81.8627C95.4106 81.8627 95.9633 82.4464 95.9633 83.103C95.9633 86.97 89.0545 89.0129 82.2839 89.0129V89.0129Z" fill="#0F4470"/>
<path d="M82.2839 94.7769C75.5132 94.7769 68.6044 92.8069 68.6044 89.0129V83.3219C68.6735 82.6653 69.2262 82.1545 69.848 82.1545C70.4007 82.2275 70.8843 82.6653 70.9534 83.3219V89.0129C70.9534 90.1803 75.2369 92.3691 82.2839 92.2962C89.3308 92.2232 93.6143 90.1073 93.6143 88.94V83.176C93.6143 82.5194 94.167 81.9357 94.7888 81.9357C95.4106 81.9357 95.9633 82.5194 95.9633 83.176V88.867C95.9633 92.734 89.0545 94.7039 82.2839 94.7769V94.7769Z" fill="#0F4470"/>
<path d="M82.2839 83.4678C75.5132 83.4678 68.6044 81.4978 68.6044 77.6309C68.6044 73.7639 75.5132 71.7939 82.2839 71.7939C89.0545 71.7939 95.9633 73.7639 95.9633 77.5579C95.9633 81.3519 89.0545 83.3948 82.2839 83.4678V83.4678ZM82.2839 74.2746C75.2369 74.2746 70.9534 76.4635 70.9534 77.6309C70.9534 78.7982 75.2369 80.9871 82.2839 80.9871C89.3308 80.9871 93.6143 78.7982 93.6143 77.6309C93.6143 76.4635 89.2617 74.2746 82.2839 74.2746Z" fill="#0F4470"/>
<path d="M82.2839 89.1588C75.5132 89.1588 68.6044 87.1888 68.6044 83.3948V77.7038C68.6735 77.0472 69.2262 76.5365 69.848 76.5365C70.4007 76.6094 70.8843 77.0472 70.9534 77.7038V83.3948C70.9534 84.5622 75.2369 86.751 82.2839 86.751C89.3308 86.751 93.6143 84.5622 93.6143 83.3948V77.7038C93.6143 77.0472 94.167 76.4635 94.7888 76.4635C95.4106 76.4635 95.9633 77.0472 95.9633 77.7038V83.3948C95.9633 87.1159 89.0545 89.1588 82.2839 89.1588V89.1588ZM107.363 94.5579C100.523 94.5579 93.6834 92.588 93.6834 88.794C93.6834 88.1373 94.2361 87.5536 94.8579 87.5536C95.4797 87.5536 96.0324 88.1373 96.0324 88.794C96.0324 89.9613 100.316 92.1502 107.363 92.1502C114.41 92.1502 118.693 89.9613 118.693 88.794C118.693 88.1373 119.246 87.5536 119.868 87.5536C120.49 87.5536 121.042 88.1373 121.042 88.794C121.042 92.515 114.203 94.5579 107.363 94.5579V94.5579Z" fill="#0F4470"/>
<path d="M107.363 100.249C100.523 100.249 93.6834 98.2789 93.6834 94.4849V88.7939C93.6834 88.1373 94.2361 87.5536 94.8579 87.5536C95.4797 87.5536 96.0324 88.1373 96.0324 88.7939V94.4849C96.0324 95.6523 100.316 97.8412 107.363 97.8412C114.41 97.8412 118.693 95.6523 118.693 94.4849V88.7939C118.693 88.1373 119.246 87.5536 119.868 87.5536C120.49 87.5536 121.042 88.1373 121.042 88.7939V94.4849C121.111 98.2789 114.203 100.249 107.363 100.249V100.249Z" fill="#0F4470"/>
<path d="M107.363 89.0129C100.523 89.0129 93.6834 87.043 93.6834 83.249C93.6834 82.5923 94.2361 82.0086 94.8579 82.0086C95.4797 82.0086 96.0324 82.5923 96.0324 83.249C96.0324 84.4163 100.316 86.6052 107.363 86.5322C114.41 86.4593 118.693 84.3434 118.693 83.176C118.693 82.5194 119.246 81.9357 119.868 81.9357C120.49 81.9357 121.042 82.5194 121.042 83.176C121.042 86.97 114.203 89.0129 107.363 89.0129V89.0129Z" fill="#0F4470"/>
<path d="M107.363 94.7039C100.523 94.7039 93.6834 92.734 93.6834 88.867V83.176C93.6834 82.5194 94.2361 81.9357 94.8579 81.9357C95.4797 81.9357 96.0324 82.5194 96.0324 83.176V88.867C96.0324 90.0344 100.316 92.2232 107.363 92.1503C114.41 92.0773 118.693 89.9614 118.693 88.794V83.176C118.693 82.5194 119.246 81.9357 119.868 81.9357C120.49 81.9357 121.042 82.5194 121.042 83.176V88.867C121.042 92.661 114.203 94.7039 107.363 94.7039V94.7039Z" fill="#0F4470"/>
<path d="M107.363 83.3948C100.523 83.3948 93.6834 81.4248 93.6834 77.6308C93.6834 76.9742 94.2361 76.3905 94.8579 76.3905C95.4797 76.3905 96.0324 76.9742 96.0324 77.6308C96.0324 78.7982 100.316 80.9871 107.363 80.9871C114.41 80.9871 118.693 78.7982 118.693 77.6308C118.693 76.9742 119.246 76.3905 119.868 76.3905C120.49 76.3905 121.042 76.9742 121.042 77.6308C121.042 81.4248 114.133 83.3948 107.363 83.3948V83.3948Z" fill="#0F4470"/>
<path d="M107.363 89.1587C100.523 89.1587 93.6834 87.1888 93.6834 83.3218V77.6308C93.6834 76.9742 94.2361 76.3905 94.8579 76.3905C95.4797 76.3905 96.0324 76.9742 96.0324 77.6308V83.3218C96.0324 84.4892 100.316 86.678 107.363 86.678C114.41 86.678 118.693 84.4892 118.693 83.3218V77.6308C118.693 76.9742 119.246 76.3905 119.868 76.3905C120.49 76.3905 121.042 76.9742 121.042 77.6308V83.3218C121.042 87.1158 114.203 89.0858 107.363 89.1587V89.1587Z" fill="#0F4470"/>
<path d="M107.363 77.7768C100.523 77.7768 93.6834 75.8069 93.6834 71.9399C93.6834 71.2833 94.2361 70.6996 94.8579 70.6996C95.4797 70.6996 96.0324 71.2833 96.0324 71.9399C96.0324 73.1073 100.316 75.2962 107.363 75.2232C114.41 75.1502 118.693 73.0343 118.693 71.867C118.762 71.2103 119.315 70.6996 119.937 70.6996C120.49 70.7725 120.973 71.2103 121.042 71.867C121.042 75.7339 114.133 77.7039 107.363 77.7768V77.7768Z" fill="#0F4470"/>
<path d="M107.363 83.4678C100.523 83.4678 93.6834 81.4979 93.6834 77.6309V71.9399C93.6834 71.2833 94.2361 70.6996 94.8579 70.6996C95.4797 70.6996 96.0324 71.2833 96.0324 71.9399V77.6309C96.0324 78.7983 100.316 80.9871 107.363 80.9871C114.41 80.9871 118.693 78.7983 118.693 77.6309V71.9399C118.762 71.2833 119.315 70.7725 119.937 70.7725C120.49 70.8455 120.973 71.2833 121.042 71.9399V77.6309C121.042 81.4249 114.133 83.4678 107.363 83.4678V83.4678Z" fill="#0F4470"/>
<path d="M107.363 72.1588C100.523 72.1588 93.6834 70.1889 93.6834 66.3949C93.6834 63.8412 96.9305 61.7983 102.319 60.9228C103.978 60.7039 105.705 60.558 107.363 60.558C107.985 60.558 108.537 61.1417 108.537 61.7983C108.537 62.455 107.985 63.0387 107.363 63.0387C105.774 63.0387 104.185 63.1846 102.665 63.4035C97.9668 64.1331 96.0324 65.7382 96.0324 66.3949C96.0324 67.5623 100.316 69.7511 107.363 69.7511C114.41 69.7511 118.693 67.5623 118.693 66.3949C118.693 65.7382 116.759 64.1331 112.061 63.4035C111.439 63.3305 110.955 62.6739 111.094 62.0172C111.163 61.3606 111.784 60.8498 112.406 60.9958C117.864 61.7983 121.042 63.8412 121.042 66.3949C121.042 70.1889 114.133 72.1588 107.363 72.1588Z" fill="#0F4470"/>
<path d="M107.363 77.9227C100.523 77.9227 93.6834 75.9528 93.6834 72.1588V66.3948C93.6834 65.7382 94.2361 65.1545 94.8579 65.1545C95.4797 65.1545 96.0324 65.7382 96.0324 66.3948V72.0858C96.0324 73.2532 100.316 75.442 107.363 75.442C114.41 75.442 118.693 73.2532 118.693 72.0858V66.3948C118.624 65.7382 119.108 65.0815 119.799 65.0815C120.42 65.0086 121.042 65.5193 121.042 66.2489V72.1588C121.042 75.8798 114.133 77.8498 107.363 77.9227V77.9227Z" fill="#0F4470"/>
<path d="M109.435 65.5193C108.814 65.5193 108.261 64.9356 108.261 64.279L108.192 39.618C108.192 38.9614 108.745 38.3777 109.366 38.3777C109.988 38.3777 110.541 38.9614 110.541 39.618L110.61 64.279C110.61 64.9356 110.126 65.5193 109.435 65.5193ZM101.145 57.4936H101.076C96.3087 57.3476 91.6107 48.0815 91.1271 46.9871C90.9198 46.6223 90.9198 46.1846 91.1271 45.8197C91.3344 45.4549 91.6798 45.2361 92.0944 45.2361C93.1998 45.1631 103.218 44.7983 105.705 49.103C106.326 50.1245 106.741 51.9485 105.359 54.5021C103.977 56.9828 102.319 57.4936 101.145 57.4936ZM94.0979 47.6438C95.9633 51 98.9341 54.9399 101.076 55.0129C101.352 55.0129 102.25 55.0129 103.218 53.1888C104.185 51.3648 103.77 50.5622 103.563 50.3434C102.527 48.4464 97.8287 47.7167 94.0979 47.6438V47.6438Z" fill="#FCBA63"/>
<path d="M109.435 58.2232C109.228 58.2232 109.021 58.1503 108.814 58.0773L99.8322 52.6052C99.2795 52.2404 99.0722 51.5108 99.4177 50.9271C99.7631 50.3434 100.454 50.1245 101.007 50.4164L109.988 55.8885C110.541 56.2533 110.748 56.9829 110.403 57.5666C110.265 57.9314 109.85 58.1503 109.435 58.2232ZM117.726 57.4936C116.552 57.4936 114.893 56.9829 113.581 54.4292C112.199 51.8756 112.613 50.1245 113.235 49.0301C115.722 44.7254 125.671 45.0902 126.846 45.0902C127.26 45.0902 127.606 45.3091 127.813 45.6739C128.02 46.0387 128.02 46.4764 127.882 46.8413C127.329 47.9357 122.7 57.2018 117.933 57.3477L117.726 57.4936V57.4936ZM115.584 53.1889C116.552 55.0129 117.45 55.0129 117.726 54.94C119.868 54.867 122.839 50.9271 124.704 47.5709C120.973 47.6438 116.275 48.3734 115.17 50.3434C115.032 50.6352 114.617 51.4378 115.584 53.1889V53.1889Z" fill="#FCBA63"/>
<path d="M109.435 58.2231C108.814 58.2231 108.261 57.6394 108.261 56.9828C108.261 56.545 108.468 56.1073 108.814 55.8884L117.795 50.4163C118.348 50.1244 119.108 50.3433 119.384 50.927C119.66 51.5107 119.453 52.1673 118.97 52.5321L109.988 58.0042C109.85 58.1502 109.643 58.2231 109.435 58.2231V58.2231ZM109.228 45.8197C106.465 45.8197 105.152 44.5794 104.599 43.4849C102.25 38.9613 107.708 29.7682 108.33 28.6738C108.537 28.309 108.952 28.0901 109.297 28.0901C109.712 28.0901 110.057 28.309 110.265 28.6738C110.886 29.6952 116.344 38.6695 114.064 43.2661C113.512 44.3605 112.199 45.7467 109.366 45.8197H109.228V45.8197ZM109.435 43.2661V44.5064V43.2661C111.508 43.1931 111.992 42.3176 112.13 42.0257C113.166 39.9098 111.301 35.0944 109.435 31.6652C107.57 35.1673 105.705 40.1287 106.741 42.1716C106.81 42.4635 107.294 43.339 109.435 43.2661V43.2661Z" fill="#FCBA63"/>
</svg>
