<?xml version="1.0" encoding="utf-8"?>
<!-- Generator: Adobe Illustrator 25.2.1, SVG Export Plug-In . SVG Version: 6.00 Build 0)  -->
<svg version="1.1" id="Layer_1" xmlns="http://www.w3.org/2000/svg" xmlns:xlink="http://www.w3.org/1999/xlink" x="0px" y="0px"
	 viewBox="0 0 456 415" style="enable-background:new 0 0 456 415;" xml:space="preserve">
<style type="text/css">
	.st0{fill:none;}
	.st1{fill:#4C4545;stroke:#000000;stroke-miterlimit:10;}
	.st2{fill:#B8B7B5;stroke:#000000;stroke-miterlimit:10;}
	.st3{fill:#545050;stroke:#000000;stroke-miterlimit:10;}
	.st4{fill:#EBEBEB;stroke:#000000;stroke-miterlimit:10;}
	.st5{fill:none;stroke:#000000;stroke-miterlimit:10;}
	.st6{fill:#948F8F;stroke:#000000;stroke-miterlimit:10;}
	.st7{fill:#5C5B5B;stroke:#000000;stroke-miterlimit:10;}
	.st8{fill:#DBDADA;stroke:#000000;stroke-miterlimit:10;}
	.st9{fill:#8E8C80;stroke:#000000;stroke-miterlimit:10;}
	.st10{fill:#F8F8F8;stroke:#000000;stroke-miterlimit:10;}
	.st11{fill:#999999;stroke:#000000;stroke-miterlimit:10;}
	.st12{fill:#CCCCCC;stroke:#000000;stroke-miterlimit:10;}
	.st13{fill:#C2C2C2;stroke:#000000;stroke-miterlimit:10;}
</style>
<rect id="canvas_background" x="-1" y="-1" class="st0" width="459" height="419"/>
<path id="svg_1" class="st1" d="M427.7,162.8H235.4h-3.9h-3.1h-0.5H32.3c-4.6,0-8.3,3.7-8.3,8.3v200.7c0,4.6,3.7,8.3,8.3,8.3h194.2
	h2h3.1h1.7h194.5c4.6,0,8.3-3.7,8.3-8.3V171.1C436,166.5,432.3,162.8,427.7,162.8z"/>
<path id="svg_2" class="st2" d="M220.7,162.8H40v-47.6c0-1.5,1.2-2.8,2.8-2.8H218c1.5,0,2.8,1.2,2.8,2.8v47.6H220.7z"/>
<path id="svg_3" class="st2" d="M219.5,366.3H41.2c-2,0-3.6-1.6-3.6-3.6V180.3c0-2,1.6-3.6,3.6-3.6h178.4c2,0,3.6,1.6,3.6,3.6v182.4
	C223.2,364.7,221.5,366.3,219.5,366.3z"/>
<polygon id="svg_4" class="st3" points="89.5,133.2 89.5,152.7 53.6,152.7 53.6,133.2 61.8,133.2 61.8,127.5 66.1,127.5 66.1,122.5 
	77.1,122.5 77.1,127.5 81.3,127.5 81.3,133.2 "/>
<g id="svg_5">
	<path id="svg_6" class="st4" d="M62.7,150.7v2h-6.6v-2c0-0.4,0.5-0.8,1.1-0.8h4.4C62.2,149.9,62.7,150.3,62.7,150.7z"/>
	<path id="svg_7" class="st4" d="M70.8,150.7v2h-6.6v-2c0-0.4,0.5-0.8,1.1-0.8h4.4C70.3,149.9,70.8,150.3,70.8,150.7z"/>
	<path id="svg_8" class="st4" d="M78.9,150.7v2h-6.6v-2c0-0.4,0.5-0.8,1.1-0.8h4.4C78.4,149.9,78.9,150.3,78.9,150.7z"/>
	<path id="svg_9" class="st4" d="M87,150.7v2h-6.6v-2c0-0.4,0.5-0.8,1.1-0.8h4.4C86.5,149.9,87,150.3,87,150.7z"/>
</g>
<path id="svg_10" class="st5" d="M189.1,271.5c0,32.4-26.4,58.8-58.8,58.8c-12.1,0-23.4-3.7-32.8-10c3.4,0.5,6.8,0.7,10.3,0.7
	c40.7,0,73.7-33,73.7-73.7c0-1.7-0.1-3.3-0.2-5C186.3,250.9,189.1,260.8,189.1,271.5z"/>
<path id="svg_11" class="st4" d="M181.3,247.2c0,40.7-33,73.7-73.7,73.7c-3.5,0-6.9-0.2-10.3-0.7l0,0l0,0
	c-15.6-10.6-25.9-28.4-25.9-48.7c0-32.4,26.4-58.8,58.8-58.8c21.8,0,40.9,11.9,51,29.6C181.2,243.9,181.3,245.6,181.3,247.2
	L181.3,247.2z"/>
<path id="svg_12" class="st6" d="M95.9,95.7v16.7H60.8V95.7c0-3,2.4-5.3,5.3-5.3h24.4C93.5,90.4,95.9,92.8,95.9,95.7z"/>
<path id="svg_13" class="st7" d="M68.4,90.4v22h-7.6V95.7c0-3,2.4-5.3,5.3-5.3C66.1,90.4,68.4,90.4,68.4,90.4z"/>
<rect id="svg_14" x="74.4" y="90.4" class="st7" width="7.7" height="22"/>
<path id="svg_15" class="st7" d="M95.9,95.7v16.7h-7.7v-22h2.4C93.5,90.4,95.9,92.8,95.9,95.7z"/>
<path id="svg_16" class="st6" d="M147.9,95.7v16.7h-35.1V95.7c0-3,2.4-5.3,5.3-5.3h24.4C145.5,90.4,147.9,92.8,147.9,95.7z"/>
<path id="svg_17" class="st7" d="M120.4,90.4v22h-7.6V95.7c0-3,2.4-5.3,5.3-5.3C118.1,90.4,120.4,90.4,120.4,90.4z"/>
<rect id="svg_18" x="126.5" y="90.4" class="st7" width="7.7" height="22"/>
<path id="svg_19" class="st7" d="M147.9,95.7v16.7h-7.7v-22h2.4C145.5,90.4,147.9,92.8,147.9,95.7z"/>
<path id="svg_20" class="st6" d="M199.9,95.7v16.7h-35.1V95.7c0-3,2.4-5.3,5.3-5.3h24.4C197.5,90.4,199.9,92.8,199.9,95.7z"/>
<path id="svg_21" class="st7" d="M172.4,90.4v22h-7.6V95.7c0-3,2.4-5.3,5.3-5.3H172.4z"/>
<rect id="svg_22" x="178.5" y="90.4" class="st7" width="7.7" height="22"/>
<path id="svg_23" class="st7" d="M199.9,95.7v16.7h-7.7v-22h2.4C197.5,90.4,199.9,92.8,199.9,95.7z"/>
<circle id="svg_24" class="st8" cx="118" cy="137.6" r="10.6"/>
<circle id="svg_25" class="st8" cx="154.8" cy="137.6" r="10.6"/>
<circle id="svg_26" class="st8" cx="191.6" cy="137.6" r="10.6"/>
<path id="svg_27" class="st2" d="M418.8,366.3H240.4c-2,0-3.6-1.6-3.6-3.6V180.3c0-2,1.6-3.6,3.6-3.6h178.4c2,0,3.6,1.6,3.6,3.6
	v182.4C422.4,364.7,420.8,366.3,418.8,366.3z"/>
<path id="svg_28" class="st5" d="M388.4,271.5c0,32.4-26.4,58.8-58.8,58.8c-12.1,0-23.4-3.7-32.8-10c3.4,0.5,6.8,0.7,10.3,0.7
	c40.7,0,73.7-33,73.7-73.7c0-1.7-0.1-3.3-0.2-5C385.5,250.9,388.4,260.8,388.4,271.5L388.4,271.5z"/>
<path id="svg_29" class="st4" d="M380.5,247.2c0,40.7-33,73.7-73.7,73.7c-3.5,0-6.9-0.2-10.3-0.7l0,0l0,0
	c-15.6-10.6-25.9-28.4-25.9-48.7c0-32.4,26.4-58.8,58.8-58.8c21.8,0,40.9,11.9,51,29.6C380.5,243.9,380.5,245.6,380.5,247.2
	L380.5,247.2z"/>
<g id="_x31_">
	<path id="svg_30" class="st1" d="M372.6,213.6c-12-8.9-26.9-14.2-43-14.2c-39.8,0-72.1,32.3-72.1,72.1c0,14.3,4.2,27.6,11.3,38.8
		l0,0c12.8,20,35.2,33.3,60.7,33.3c39.8,0,72.1-32.3,72.1-72.1C401.7,247.8,390.2,226.8,372.6,213.6L372.6,213.6z M351.3,216.9
		c10,4,18.6,10.6,25,19c-5.2,7.7-17.2,21.9-34,22.5C352.2,244.8,352.6,228.2,351.3,216.9L351.3,216.9z M329.6,212.7
		c2.6,0,5.1,0.2,7.6,0.5c1.7,9,3.5,27.8-8.1,40.2c-2.5-16.6-14.1-28.7-23.1-35.7C313.2,214.5,321.2,212.7,329.6,212.7z M293.6,225.1
		c7.6,5.1,22.2,17.2,22.8,34.2c-13.6-9.9-30.3-10.3-41.6-8.9C278.6,240.3,285.2,231.6,293.6,225.1L293.6,225.1z M275.9,295.3
		c-3.2-7.3-5.1-15.3-5.1-23.8c0-2.4,0.2-4.8,0.4-7.1c9-1.7,27.8-3.5,40.2,8.1C295,275,283,286.4,275.9,295.3z M308.3,326.2
		c-4.1-1.6-7.9-3.6-11.5-6l0,0l0,0c-5.1-3.5-9.6-7.7-13.4-12.5c5.2-7.7,17.1-21.8,33.9-22.4C307.5,298.6,307,314.9,308.3,326.2z
		 M329.6,330.2c-2.5,0-4.9-0.2-7.3-0.5c-1.7-9.3-3.1-27.5,8.2-39.6c2.5,16.2,13.6,28.1,22.5,35.2
		C345.7,328.5,337.9,330.2,329.6,330.2L329.6,330.2z M365.3,318.1c-7.8-5.4-21.5-17.2-22.1-33.7c10.2,7.4,22.1,9.5,32.2,9.5
		c3.1,0,6-0.2,8.7-0.5C380.2,303.2,373.6,311.7,365.3,318.1L365.3,318.1z M348.2,271.2c16.4-2.6,28.4-13.9,35.5-22.7
		c3,7.1,4.7,14.9,4.7,23c0,2.7-0.2,5.3-0.5,7.9C378.6,281,360.3,282.5,348.2,271.2z"/>
</g>
<g id="_x32_">
	<path id="svg_31" class="st1" d="M173.4,213.6c-12-8.9-26.9-14.2-43-14.2c-39.8,0-72.1,32.3-72.1,72.1c0,14.3,4.2,27.6,11.3,38.8
		l0,0c12.8,20,35.2,33.3,60.7,33.3c39.8,0,72.1-32.3,72.1-72.1C202.4,247.8,191,226.8,173.4,213.6L173.4,213.6z M152,216.9
		c10,4,18.6,10.6,25,19c-5.2,7.7-17.2,21.9-34,22.5C153,244.8,153.4,228.2,152,216.9L152,216.9z M130.3,212.7c2.6,0,5.1,0.2,7.6,0.5
		c1.7,9,3.5,27.8-8.1,40.2c-2.6-16.7-14.2-28.7-23.2-35.8C114,214.5,122,212.7,130.3,212.7z M94.3,225.1
		c7.6,5.1,22.2,17.2,22.8,34.2c-13.6-9.9-30.3-10.3-41.6-8.9C79.4,240.3,86,231.6,94.3,225.1L94.3,225.1z M76.7,295.3
		c-3.2-7.3-5.1-15.3-5.1-23.8c0-2.4,0.2-4.8,0.4-7.1c9-1.7,27.8-3.5,40.2,8.1C95.7,275,83.7,286.4,76.7,295.3z M109,326.2
		c-4.1-1.6-7.9-3.6-11.5-6l0,0l0,0c-5.1-3.5-9.6-7.7-13.4-12.5c5.2-7.7,17.1-21.8,33.9-22.4C108.3,298.6,107.8,314.9,109,326.2z
		 M130.3,330.2c-2.5,0-4.9-0.2-7.3-0.5c-1.7-9.3-3.1-27.5,8.2-39.6c2.5,16.2,13.6,28.1,22.5,35.2
		C146.5,328.5,138.6,330.2,130.3,330.2z M166.1,318.1c-7.8-5.4-21.5-17.2-22.1-33.7c10.2,7.4,22.1,9.5,32.2,9.5c3.1,0,6-0.2,8.7-0.5
		C180.9,303.2,174.4,311.7,166.1,318.1L166.1,318.1z M148.9,271.2c16.4-2.6,28.4-13.9,35.5-22.7c3,7.1,4.7,14.9,4.7,23
		c0,2.7-0.2,5.3-0.5,7.9C179.4,281,161.1,282.5,148.9,271.2z"/>
</g>
<path id="svg_33" class="st5" d="M150.6,271.5c0,11.2-9.1,20.2-20.2,20.2c-8.6,0-16-5.4-18.9-13c-0.9-2.2-1.4-4.7-1.4-7.2
	c0-11.2,9.1-20.2,20.2-20.2c3.3,0,6.4,0.8,9.2,2.2C146.1,256.8,150.6,263.6,150.6,271.5z"/>
<path id="svg_34" class="st9" d="M140.9,260.7c0,11.2-9.1,20.2-20.2,20.2c-3.3,0-6.4-0.8-9.2-2.2c-0.9-2.2-1.4-4.7-1.4-7.2
	c0-11.2,9.1-20.2,20.2-20.2c3.3,0,6.4,0.8,9.2,2.2C140.4,255.7,140.9,258.2,140.9,260.7z"/>
<path id="svg_35" class="st5" d="M349.8,271.5c0,11.2-9.1,20.2-20.2,20.2c-8.6,0-16-5.4-18.9-13c-0.9-2.2-1.4-4.7-1.4-7.2
	c0-11.2,9.1-20.2,20.2-20.2c3.3,0,6.4,0.8,9.2,2.2C345.3,256.8,349.8,263.6,349.8,271.5L349.8,271.5z"/>
<path id="svg_36" class="st9" d="M340.1,260.7c0,11.2-9.1,20.2-20.2,20.2c-3.3,0-6.4-0.8-9.2-2.2c-0.9-2.2-1.4-4.7-1.4-7.2
	c0-11.2,9.1-20.2,20.2-20.2c3.3,0,6.4,0.8,9.2,2.2C339.6,255.7,340.1,258.2,340.1,260.7z"/>
<path id="svg_38" class="st10" d="M130.4,349c-18.7,0-36.8-6.8-50.9-19.1l-1.3-1.1L59.7,348l-2.3-2.2l18.5-19.2l-1.2-1.3
	c-14-14.6-21.8-33.7-21.8-53.8c0-19.1,7.1-37.6,19.9-51.8l1.2-1.3l-16.5-16.5l2.3-2.3l16.5,16.5l1.3-1.2
	C92,201.4,110.8,194,130.5,194s38.5,7.5,53,21l1.3,1.2l16.6-16.6l2.3,2.3l-16.6,16.6l1.2,1.3c12.8,14.3,19.9,32.7,19.9,51.8
	c0,20.1-7.7,39.2-21.7,53.7l-1.2,1.3l18.6,19.2l-2.3,2.2l-19-19.3l-1.3,1.1C167.2,342.2,149.1,349,130.4,349L130.4,349z M80.3,326.4
	l1.5,1.3c13.5,11.7,30.8,18.1,48.6,18.1s35.1-6.4,48.6-18.2l1.5-1.3l-11.2-11.6l-1.3,1.1c-10.5,8.9-23.8,13.8-37.6,13.8
	c-13.7,0-27-4.9-37.5-13.7l-1.3-1.1L80.3,326.4L80.3,326.4z M93.8,312.6l1.5,1.3c9.8,8.2,22.3,12.7,35.1,12.7s25.3-4.5,35.1-12.7
	l1.5-1.3l-11.5-11.9l-1.3,1c-6.9,5.5-15.2,8.4-23.9,8.4s-17-2.9-23.8-8.3l-1.3-1L93.8,312.6L93.8,312.6z M74.8,222.1
	C62.7,235.7,56,253.3,56,271.5c0,19.2,7.4,37.5,20.7,51.4l1.3,1.4l11.2-11.6l-1.2-1.3c-10.2-10.9-15.9-25-15.9-39.9
	c0-14,5.1-27.5,14.3-38.1l1.1-1.3l-11.4-11.4L74.8,222.1L74.8,222.1z M173.2,232.1l1.1,1.3c9.2,10.6,14.3,24.1,14.3,38.1
	c0,14.8-5.6,29-15.8,39.8l-1.2,1.3l11.2,11.6l1.3-1.4c13.3-13.9,20.6-32.2,20.6-51.3c0-18.2-6.7-35.7-18.8-49.4l-1.3-1.5
	L173.2,232.1L173.2,232.1z M88.5,235.8c-8.5,10-13.2,22.6-13.2,35.7c0,13.9,5.2,27.2,14.8,37.5l1.3,1.4l11.4-11.9l-1.1-1.3
	c-6.4-7.1-9.9-16.3-9.9-25.8c0-8.8,3.1-17.4,8.6-24.3l1-1.3l-11.6-11.6L88.5,235.8L88.5,235.8z M159.3,246l1,1.3
	c5.6,6.9,8.6,15.3,8.6,24.2c0,9.5-3.5,18.6-9.9,25.7l-1.1,1.3l11.4,11.9l1.3-1.4c9.5-10.2,14.7-23.5,14.7-37.4
	c0-13-4.7-25.7-13.1-35.6l-1.3-1.5L159.3,246L159.3,246z M107.4,298.4l1.6,1.2c6.2,4.7,13.6,7.2,21.3,7.2s15.1-2.5,21.3-7.2l1.6-1.2
	l-8.2-8.5l-1.3,0.9c-4,2.8-8.7,4.3-13.5,4.3s-9.5-1.5-13.5-4.3l-1.3-0.9C115.4,289.9,107.4,298.4,107.4,298.4z M102.4,249.8
	c-4.9,6.3-7.5,13.8-7.5,21.6c0,8.5,3.1,16.8,8.8,23.2l1.3,1.5l8.2-8.4l-1-1.3c-3.5-4.2-5.4-9.6-5.4-15c0-4.9,1.5-9.6,4.4-13.7
	l0.9-1.3l-8.3-8.3L102.4,249.8L102.4,249.8z M148.7,256.6l0.9,1.3c2.9,4,4.4,8.7,4.4,13.6c0,5.5-1.9,10.8-5.4,15l-1,1.3l8.2,8.4
	l1.3-1.5c5.6-6.5,8.7-14.7,8.7-23.2c0-7.9-2.6-15.3-7.4-21.6l-1.3-1.6L148.7,256.6L148.7,256.6z M130.4,251.1
	c-4.5,0-8.8,1.5-12.4,4.2l-1.5,1.1l1.2,1.5c3.4,4.3,5.2,9.4,5.2,14.9c0,4.8-1.4,9.4-4,13.3l-1,1.5l1.6,1c3.3,2.1,7.1,3.3,11,3.3
	c3.9,0,7.8-1.1,11.1-3.3l1.6-1l-1-1.5c-2.6-3.9-4-8.5-4-13.3c0-5.4,1.8-10.5,5.1-14.8l1.1-1.5l-1.5-1.1
	C139.2,252.6,134.9,251.1,130.4,251.1L130.4,251.1z M112.9,261c-1.9,3.2-2.9,6.8-2.9,10.5c0,4.2,1.3,8.3,3.8,11.8l1.6,2.3l1.4-2.5
	c1.8-3.2,2.8-6.8,2.8-10.4c0-4.2-1.3-8.3-3.7-11.8l-1.6-2.3C114.3,258.6,112.9,261,112.9,261z M144.8,261c-2.4,3.5-3.6,7.5-3.6,11.7
	c0,3.6,1,7.2,2.8,10.3l1.4,2.5l1.7-2.3c2.4-3.5,3.7-7.5,3.7-11.7c0-3.6-1-7.2-2.9-10.4l-1.5-2.5L144.8,261L144.8,261z M130.4,247.9
	c5.4,0,10.7,1.9,14.9,5.3l1.3,1l8.3-8.3l-1.5-1.3c-6.4-5.5-14.6-8.5-23-8.5s-16.5,3-22.9,8.5l-1.5,1.3l8.3,8.3l1.3-1
	C119.7,249.8,125,247.9,130.4,247.9z M130.4,232.9c9.3,0,18.4,3.4,25.4,9.6l1.3,1.1l11.7-11.7l-1.4-1.3
	c-10.1-9.2-23.3-14.3-36.9-14.3s-26.8,5.1-36.9,14.2l-1.4,1.3l11.7,11.7l1.3-1.1C112,236.3,121,232.9,130.4,232.9L130.4,232.9z
	 M130.4,213.3c14.6,0,28.6,5.4,39.3,15.3l1.3,1.2l11.4-11.4l-1.4-1.3c-13.8-12.9-31.8-20-50.6-20s-36.8,7.1-50.6,19.9l-1.4,1.3
	l11.4,11.4l1.3-1.2C101.8,218.7,115.8,213.3,130.4,213.3L130.4,213.3z"/>
<circle id="svg_40" class="st11" cx="58.3" cy="346.9" r="10"/>
<path id="svg_41" class="st4" d="M59.1,339.7l0.5,5.9l5.6,0.5v1.6l-5.6,0.5l-0.5,5.9h-1.7l-0.5-5.9l-5.6-0.5v-1.6l5.6-0.5l0.5-5.9
	H59.1z"/>
<circle id="svg_43" class="st11" cx="202.4" cy="346.9" r="10"/>
<path id="svg_44" class="st4" d="M203.3,339.7l0.5,5.9l5.6,0.5v1.6l-5.6,0.5l-0.5,5.9h-1.7l-0.5-5.9l-5.6-0.5v-1.6l5.6-0.5l0.5-5.9
	H203.3z"/>
<circle id="svg_46" class="st11" cx="58.3" cy="201.2" r="10"/>
<path id="svg_47" class="st4" d="M59.1,194l0.5,5.9l5.6,0.5v1.6l-5.6,0.5l-0.5,5.9h-1.7l-0.5-5.9l-5.6-0.5v-1.6l5.6-0.5l0.5-5.9
	H59.1z"/>
<circle id="svg_49" class="st11" cx="202.4" cy="201.2" r="10"/>
<path id="svg_50" class="st4" d="M203.3,194l0.5,5.9l5.6,0.5v1.6l-5.6,0.5l-0.5,5.9h-1.7l-0.5-5.9l-5.6-0.5v-1.6l5.6-0.5l0.5-5.9
	H203.3z"/>
<path id="svg_51" class="st10" d="M329.6,349c-18.7,0-36.8-6.8-50.9-19.1l-1.3-1.1L258.9,348l-2.3-2.2l18.5-19.2l-1.2-1.3
	c-14-14.6-21.8-33.7-21.8-53.8c0-19.1,7.1-37.6,19.9-51.8l1.2-1.3l-16.5-16.5l2.3-2.3l16.5,16.5l1.3-1.2
	c14.4-13.5,33.2-20.9,52.9-20.9c19.7,0,38.5,7.5,53,21l1.3,1.2l16.6-16.6l2.3,2.3l-16.6,16.6l1.2,1.3c12.8,14.3,19.9,32.7,19.9,51.8
	c0,20.1-7.7,39.2-21.7,53.7l-1.2,1.3l18.6,19.2l-2.3,2.2l-18.9-19.3l-1.3,1.1C366.4,342.2,348.3,349,329.6,349L329.6,349z
	 M279.6,326.4l1.5,1.3c13.5,11.7,30.8,18.1,48.6,18.1c17.8,0,35.1-6.4,48.6-18.2l1.5-1.3l-11.2-11.6l-1.3,1.1
	c-10.5,8.9-23.8,13.8-37.6,13.8c-13.7,0-27-4.9-37.5-13.7l-1.3-1.1L279.6,326.4L279.6,326.4z M293,312.6l1.5,1.3
	c9.8,8.2,22.3,12.7,35.1,12.7c12.8,0,25.3-4.5,35.1-12.7l1.5-1.3l-11.5-11.9l-1.3,1c-6.9,5.5-15.2,8.4-23.9,8.4
	c-8.7,0-17-2.9-23.8-8.3l-1.3-1L293,312.6L293,312.6z M274.1,222.1c-12.2,13.6-18.8,31.2-18.8,49.4c0,19.2,7.4,37.5,20.7,51.4
	l1.3,1.4l11.2-11.6l-1.2-1.3c-10.2-10.9-15.9-25-15.9-39.9c0-14,5.1-27.5,14.3-38.1l1.1-1.3l-11.4-11.4L274.1,222.1L274.1,222.1z
	 M372.4,232.1l1.1,1.3c9.2,10.6,14.3,24.1,14.3,38.1c0,14.8-5.6,29-15.8,39.8l-1.2,1.3l11.2,11.6l1.3-1.4
	c13.3-13.9,20.6-32.2,20.6-51.3c0-18.2-6.7-35.7-18.8-49.4l-1.3-1.5L372.4,232.1L372.4,232.1z M287.8,235.8
	c-8.5,10-13.2,22.6-13.2,35.7c0,13.9,5.2,27.2,14.8,37.5l1.3,1.4l11.4-11.9l-1.1-1.3c-6.4-7.1-9.9-16.3-9.9-25.8
	c0-8.8,3.1-17.4,8.6-24.3l1-1.3L289,234.3L287.8,235.8L287.8,235.8z M358.5,246l1,1.3c5.6,6.9,8.6,15.3,8.6,24.2
	c0,9.5-3.5,18.6-9.9,25.7l-1.1,1.3l11.4,11.9l1.3-1.4c9.5-10.2,14.7-23.5,14.7-37.4c0-13-4.7-25.7-13.1-35.6l-1.3-1.5L358.5,246z
	 M306.7,298.4l1.6,1.2c6.2,4.7,13.6,7.2,21.3,7.2c7.7,0,15.1-2.5,21.3-7.2l1.6-1.2l-8.2-8.5l-1.3,0.9c-4,2.8-8.7,4.3-13.5,4.3
	s-9.5-1.5-13.5-4.3l-1.3-0.9L306.7,298.4z M301.7,249.8c-4.9,6.3-7.5,13.8-7.5,21.6c0,8.5,3.1,16.8,8.8,23.2l1.3,1.5l8.2-8.4l-1-1.3
	c-3.5-4.2-5.4-9.6-5.4-15c0-4.9,1.5-9.6,4.4-13.7l0.9-1.3l-8.3-8.3L301.7,249.8L301.7,249.8z M347.9,256.6l0.9,1.3
	c2.9,4,4.4,8.7,4.4,13.6c0,5.5-1.9,10.8-5.4,15l-1,1.3l8.2,8.4l1.3-1.5c5.6-6.5,8.7-14.7,8.7-23.2c0-7.9-2.6-15.3-7.4-21.6l-1.3-1.6
	L347.9,256.6L347.9,256.6z M329.6,251.1c-4.5,0-8.8,1.5-12.4,4.2l-1.5,1.1l1.2,1.5c3.4,4.3,5.2,9.4,5.2,14.9c0,4.8-1.4,9.4-4,13.3
	l-1,1.5l1.6,1c3.3,2.1,7.1,3.3,11,3.3s7.8-1.1,11.1-3.3l1.6-1l-1-1.5c-2.6-3.9-4-8.5-4-13.3c0-5.4,1.8-10.5,5.1-14.8l1.1-1.5
	l-1.5-1.1C338.4,252.6,334.1,251.1,329.6,251.1L329.6,251.1z M312.1,261c-1.9,3.2-2.9,6.8-2.9,10.5c0,4.2,1.3,8.3,3.8,11.8l1.6,2.3
	l1.4-2.5c1.8-3.2,2.8-6.8,2.8-10.4c0-4.2-1.3-8.3-3.7-11.8l-1.6-2.3L312.1,261L312.1,261z M344,261c-2.4,3.5-3.6,7.5-3.6,11.7
	c0,3.6,1,7.2,2.8,10.3l1.4,2.5l1.7-2.3c2.4-3.5,3.7-7.5,3.7-11.7c0-3.6-1-7.2-2.9-10.4l-1.5-2.5L344,261z M329.6,247.9
	c5.4,0,10.7,1.9,14.9,5.3l1.3,1l8.3-8.3l-1.5-1.3c-6.4-5.5-14.6-8.5-23-8.5s-16.5,3-22.9,8.5l-1.5,1.3l8.3,8.3l1.3-1
	C318.9,249.8,324.2,247.9,329.6,247.9L329.6,247.9z M329.6,232.9c9.3,0,18.4,3.4,25.4,9.6l1.3,1.1l11.7-11.7l-1.4-1.3
	c-10.1-9.2-23.3-14.3-36.9-14.3s-26.8,5.1-36.9,14.2l-1.4,1.3l11.7,11.7l1.3-1.1C311.3,236.3,320.3,232.9,329.6,232.9L329.6,232.9z
	 M329.6,213.3c14.6,0,28.6,5.4,39.3,15.3l1.3,1.2l11.4-11.4l-1.4-1.3c-13.8-12.9-31.8-20-50.6-20c-18.8,0-36.8,7.1-50.6,19.9
	l-1.4,1.3l11.4,11.4l1.3-1.2C301.1,218.7,315,213.3,329.6,213.3L329.6,213.3z"/>
<circle id="svg_53" class="st5" cx="257.5" cy="346.9" r="10"/>
<path id="svg_54" class="st4" d="M258.4,339.7l0.5,5.9l5.6,0.5v1.6l-5.6,0.5l-0.5,5.9h-1.7l-0.5-5.9l-5.6-0.5v-1.6l5.6-0.5l0.5-5.9
	H258.4z"/>
<circle id="svg_56" class="st5" cx="401.7" cy="346.9" r="10"/>
<path id="svg_57" class="st4" d="M402.5,339.7l0.5,5.9l5.6,0.5v1.6l-5.6,0.5l-0.5,5.9h-1.7l-0.5-5.9l-5.6-0.5v-1.6l5.6-0.5l0.5-5.9
	H402.5z"/>
<circle id="svg_59" class="st5" cx="257.5" cy="201.2" r="10"/>
<path id="svg_60" class="st4" d="M258.4,194l0.5,5.9l5.6,0.5v1.6l-5.6,0.5l-0.5,5.9h-1.7l-0.5-5.9l-5.6-0.5v-1.6l5.6-0.5l0.5-5.9
	H258.4z"/>
<circle id="svg_62" class="st5" cx="401.7" cy="201.2" r="10"/>
<path id="svg_63" class="st4" d="M402.5,194l0.5,5.9l5.6,0.5v1.6l-5.6,0.5l-0.5,5.9h-1.7l-0.5-5.9l-5.6-0.5v-1.6l5.6-0.5l0.5-5.9
	H402.5z"/>
<path id="svg_66" class="st12" d="M382.2,64.8c-3.5-0.7-7-1-10.6-1c-32.4,0-58.7,26.3-58.7,58.7c0,3.5,0.3,6.9,0.9,10.2l0,0
	c4.8,27.6,28.9,48.5,57.8,48.5c32.4,0,58.7-26.3,58.7-58.7C430.3,93.7,409.6,69.8,382.2,64.8L382.2,64.8z M371.6,172.2
	c-17.7,0-33.3-9.3-42.1-23.3l0,0c-4.8-7.6-7.6-16.6-7.6-26.3c0-27.4,22.2-49.6,49.6-49.6c9.8,0,18.9,2.9,26.7,7.8
	c13.8,8.8,23,24.3,23,41.8C421.2,150,399,172.2,371.6,172.2z"/>
<path id="svg_67" class="st1" d="M421.2,122.5c0,27.4-22.2,49.6-49.6,49.6c-17.7,0-33.3-9.3-42.1-23.3c7.7,4.9,16.9,7.8,26.7,7.8
	c27.4,0,49.6-22.2,49.6-49.6c0-9.7-2.8-18.7-7.6-26.3C412,89.5,421.2,105,421.2,122.5z"/>
<path id="svg_68" class="st11" d="M405.8,107c0,27.4-22.2,49.6-49.6,49.6c-9.8,0-19-2.9-26.7-7.8l0,0c-4.8-7.6-7.6-16.6-7.6-26.3
	c0-27.4,22.2-49.6,49.6-49.6c9.8,0,18.9,2.9,26.7,7.8C403,88.3,405.8,97.4,405.8,107z"/>
<g id="svg_69">
	<path id="svg_70" class="st13" d="M353.3,101.9c0-2.8,2.3-5.1,5.2-5.1h8.3c7.8,0,13.5,1.4,16.9,4.1s5.2,6.1,5.2,10.3
		c0,4.5-2.5,8.1-7.5,10.9c5.7,2,8.5,5.7,8.5,11.3c0,4.4-1.8,8-5.3,10.7s-8.2,4.1-13.9,4.1h-12.1c-2.9,0-5.2-2.3-5.2-5.1v-41.2H353.3
		z M366.5,106.7v11.1c5.9-0.1,8.9-1.9,8.9-5.4c0-2.1-0.7-3.5-2.1-4.3C371.9,107.2,369.6,106.8,366.5,106.7z M366.5,127.1v11.1
		c3.3-0.1,5.9-0.5,7.5-1.4s2.5-2.3,2.5-4.3c0-3.7-3-5.5-9-5.5L366.5,127.1L366.5,127.1z"/>
</g>
<circle id="svg_72" class="st12" cx="297.5" cy="44.3" r="31.5"/>
<path id="svg_74" class="st1" d="M315.9,44.3c0,10.2-8.2,18.4-18.4,18.4c-6.6,0-12.3-3.4-15.6-8.6c2.9,1.8,6.2,2.9,9.9,2.9
	c10.1,0,18.4-8.2,18.4-18.4c0-3.6-1-6.9-2.8-9.8C312.5,32.1,315.9,37.8,315.9,44.3z"/>
<path id="svg_75" class="st11" d="M310.2,38.6c0,10.1-8.2,18.4-18.4,18.4c-3.6,0-7-1.1-9.9-2.9l0,0c-1.8-2.8-2.8-6.2-2.8-9.7
	c0-10.1,8.2-18.4,18.4-18.4c3.6,0,7,1.1,9.9,2.9C309.2,31.7,310.2,35,310.2,38.6z"/>
</svg>
