<svg width="189" height="135" viewBox="0 0 189 135" fill="none" xmlns="http://www.w3.org/2000/svg">
<path d="M95.6565 133.51C124.544 133.51 147.962 108.533 147.962 77.7223C147.962 46.9115 124.544 21.9344 95.6565 21.9344C66.7692 21.9344 43.3514 46.9115 43.3514 77.7223C43.3514 108.533 66.7692 133.51 95.6565 133.51Z" fill="#E8EEF1"/>
<path d="M58.2744 115.963H26.1153C22.6084 115.963 19.773 112.817 19.773 108.927V103.878C19.773 99.9877 22.6084 96.8424 26.1153 96.8424H58.2744C61.7813 96.8424 64.6167 99.9877 64.6167 103.878V108.927C64.6167 112.817 61.7813 115.963 58.2744 115.963ZM63.8705 77.7222H32.9052C29.3983 77.7222 26.563 74.5769 26.563 70.6867V65.6376C26.563 61.7474 29.3983 58.6021 32.9052 58.6021H63.9451C67.452 58.6021 70.2874 61.7474 70.2874 65.6376V70.6867C70.2128 74.5769 67.3774 77.7222 63.8705 77.7222Z" fill="#E8EEF1"/>
<path d="M69.4666 96.8424H33.5768C30.0699 96.8424 27.2345 93.6971 27.2345 89.8069V84.7578C27.2345 80.8676 30.0699 77.7223 33.5768 77.7223H69.4666C72.9735 77.7223 75.8089 80.8676 75.8089 84.7578V89.8069C75.8089 93.6971 72.9735 96.8424 69.4666 96.8424ZM51.559 58.6021H15.6692C12.1623 58.6021 9.32688 55.4568 9.32688 51.5665V46.5175C9.32688 42.6272 12.1623 39.4819 15.6692 39.4819H51.559C55.0659 39.4819 57.9013 42.6272 57.9013 46.5175V51.5665C57.9013 55.4568 55.0659 58.6021 51.559 58.6021Z" fill="white"/>
<path d="M125.876 39.4819H161.019C164.526 39.4819 167.362 42.6272 167.362 46.5175V51.5665C167.362 55.4568 164.526 58.6021 161.019 58.6021H125.876C122.369 58.6021 119.533 55.4568 119.533 51.5665V46.5175C119.533 42.6272 122.369 39.4819 125.876 39.4819ZM119.16 77.7223H151.319C154.826 77.7223 157.662 80.8676 157.662 84.7578V89.8069C157.662 93.6971 154.826 96.8424 151.319 96.8424H119.16C115.653 96.8424 112.818 93.6971 112.818 89.8069V84.7578C112.818 80.8676 115.653 77.7223 119.16 77.7223Z" fill="#E8EEF1"/>
<path d="M137.814 58.6021H167.362C170.869 58.6021 173.704 61.7474 173.704 65.6376V70.6867C173.704 74.5769 170.869 77.7222 167.362 77.7222H137.814C134.307 77.7222 131.472 74.5769 131.472 70.6867V65.6376C131.472 61.7474 134.307 58.6021 137.814 58.6021Z" fill="white"/>
<path d="M182.658 96.8425H171.465C167.959 96.8425 165.123 93.6972 165.123 89.8069V84.7579C165.123 80.8676 167.959 77.7223 171.465 77.7223H182.658C186.165 77.7223 189 80.8676 189 84.7579V89.8069C189 93.6972 186.165 96.8425 182.658 96.8425ZM11.9384 58.6021H8.95381C4.10383 58.5194 0.14923 62.8235 0 68.2036C0.14923 73.5837 4.10383 77.8051 8.95381 77.7223H11.9384C16.7884 77.8051 20.8176 73.501 20.8922 68.1208C20.8176 62.8235 16.7884 58.5194 11.9384 58.6021Z" fill="#E8EEF1"/>
<path d="M112.072 39.4819H126.249C129.756 39.4819 132.591 42.6272 132.591 46.5175V51.5665C132.591 55.4568 129.756 58.6021 126.249 58.6021H112.072C108.565 58.6021 105.73 55.4568 105.73 51.5665V46.5175C105.73 42.6272 108.565 39.4819 112.072 39.4819ZM87.0012 58.6021H101.178C104.685 58.6021 107.52 61.7474 107.52 65.6377V70.6867C107.52 74.577 104.685 77.7223 101.178 77.7223H87.0012C83.4943 77.7223 80.6589 74.577 80.6589 70.6867V65.6377C80.6589 61.7474 83.4943 58.6021 87.0012 58.6021ZM118.414 96.8425H148.708C152.215 96.8425 155.05 99.9878 155.05 103.878V108.927C155.05 112.817 152.215 115.963 148.708 115.963H118.414C114.907 115.963 112.072 112.817 112.072 108.927V103.878C112.072 99.9878 114.907 96.8425 118.414 96.8425Z" fill="white"/>
<path d="M177.509 99.2428C178.539 99.2428 179.375 98.3534 179.375 97.2563C179.375 96.1592 178.539 95.2698 177.509 95.2698C176.479 95.2698 175.644 96.1592 175.644 97.2563C175.644 98.3534 176.479 99.2428 177.509 99.2428Z" fill="#9FD3F2" stroke="#FAA934" stroke-width="2" stroke-miterlimit="10"/>
<path d="M133.039 25.6591L133.934 28.8044L136.844 29.7976L133.934 30.7081L133.039 33.8534L132.143 30.7081L129.159 29.7976L132.143 28.8044L133.039 25.6591Z" fill="#8BC9ED"/>
<path d="M91.1796 126.806L92.075 129.951L95.0596 130.861L92.075 131.855L91.1796 135L90.2842 131.855L87.3743 130.861L90.2842 129.951L91.1796 126.806Z" fill="#FBB147"/>
<path d="M147.216 67.8724L148.111 71.0178L151.096 71.9282L148.111 72.9215L147.216 76.0668L146.32 72.9215L143.41 71.9282L146.32 71.0178L147.216 67.8724Z" fill="#FAA934"/>
<path d="M141.097 99.3255C140.649 99.3255 140.351 98.9944 140.351 98.4978V95.3525C140.351 94.8559 140.649 94.5248 141.097 94.5248C141.545 94.5248 141.843 94.8559 141.843 95.3525V98.4978C141.843 98.9944 141.47 99.3255 141.097 99.3255ZM141.097 108.844C140.649 108.844 140.351 108.513 140.351 108.017V104.871C140.351 104.375 140.649 104.043 141.097 104.043C141.545 104.043 141.843 104.375 141.843 104.871V108.017C141.843 108.43 141.47 108.844 141.097 108.844ZM147.066 102.471H144.082C143.709 102.554 143.261 102.305 143.186 101.891C143.112 101.478 143.336 100.981 143.709 100.898H147.066C147.439 100.815 147.887 101.064 147.962 101.478C148.036 101.891 147.812 102.388 147.439 102.471H147.066ZM138.113 102.471H135.128C134.755 102.554 134.307 102.305 134.233 101.891C134.158 101.478 134.382 100.981 134.755 100.898H138.113C138.486 100.815 138.933 101.064 139.008 101.478C139.083 101.891 138.859 102.388 138.486 102.471H138.113Z" fill="#104470"/>
<path d="M141.097 102.471C141.509 102.471 141.843 102.1 141.843 101.643C141.843 101.186 141.509 100.815 141.097 100.815C140.685 100.815 140.351 101.186 140.351 101.643C140.351 102.1 140.685 102.471 141.097 102.471Z" fill="#104470"/>
<path d="M61.8559 26.8178H58.8713M64.8405 20.4445V23.5898V20.4445ZM64.8405 29.9632V33.1912V29.9632ZM70.8097 26.8178H67.8251H70.8097Z" stroke="#8BC9ED" stroke-width="2" stroke-miterlimit="10" stroke-linecap="round"/>
<path d="M64.8405 27.6457C65.2526 27.6457 65.5867 27.2751 65.5867 26.8179C65.5867 26.3608 65.2526 25.9902 64.8405 25.9902C64.4284 25.9902 64.0944 26.3608 64.0944 26.8179C64.0944 27.2751 64.4284 27.6457 64.8405 27.6457Z" fill="#8BC9ED"/>
<path d="M122.742 122.584C123.264 122.584 123.637 122.17 123.637 121.591C123.637 121.012 123.264 120.598 122.742 120.598C122.22 120.598 121.846 121.012 121.846 121.591C121.846 122.17 122.294 122.584 122.742 122.584ZM151.543 82.3575V82.1919C151.543 81.9436 151.319 81.6953 151.096 81.6953C150.872 81.6953 150.648 81.9436 150.648 82.1919V82.3575C150.648 82.6058 150.872 82.8541 151.096 82.8541C151.394 82.8541 151.543 82.6058 151.543 82.3575ZM154.826 85.5028C154.677 85.42 154.453 85.5028 154.379 85.6683C154.304 85.8339 154.304 85.9994 154.453 86.0822C154.752 86.4961 155.274 85.7511 154.826 85.5028Z" fill="#094B7C"/>
<path d="M27.1599 92.7038C27.8314 92.6211 28.2791 92.0417 28.2791 91.2967C28.2045 90.6346 27.7568 90.1379 27.1599 90.0552C26.4884 90.1379 26.0407 90.7173 26.0407 91.4623C26.1153 92.1245 26.563 92.6211 27.1599 92.7038Z" fill="#FAA934"/>
<path d="M47.1567 68.8657C46.4852 68.5347 45.8137 68.783 45.5152 69.4451C45.366 69.7762 45.366 70.1901 45.5152 70.6039V70.6867C45.8137 71.3489 46.5598 71.5144 47.1567 71.1833C47.7537 70.8522 47.9029 70.0245 47.6044 69.3624C47.4552 69.1968 47.3806 69.0313 47.1567 68.8657Z" fill="#094B7C"/>
<path d="M49.0967 51.7321C48.9475 52.3115 48.649 52.8909 48.1267 53.222C47.6044 53.6358 46.8583 53.8841 46.1867 53.7186C45.5152 53.6358 44.9183 53.222 44.4706 52.6426C44.0229 52.0632 43.8737 51.3182 43.9483 50.5733C44.0229 49.8283 44.396 49.1662 44.9183 48.7523C45.4406 48.2557 46.1867 48.0901 46.8583 48.1729C48.276 48.3385 49.2459 49.7456 49.0967 51.2355C49.1713 51.5665 49.1713 51.6493 49.0967 51.7321ZM45.5152 50.7388V50.9044C45.5152 51.2355 45.5898 51.5665 45.739 51.8149C45.8883 52.0632 46.1867 52.2287 46.4852 52.2287C46.7837 52.3115 47.0821 52.1459 47.306 51.9804C47.5298 51.8149 47.679 51.4838 47.7536 51.1527C47.8283 50.4905 47.3806 49.9111 46.7837 49.8283C46.1867 49.7456 45.6644 50.1594 45.5152 50.7388Z" fill="#8BC9ED"/>
<path d="M150.126 52.2286C151.156 52.2286 151.991 51.3392 151.991 50.2421C151.991 49.145 151.156 48.2556 150.126 48.2556C149.095 48.2556 148.26 49.145 148.26 50.2421C148.26 51.3392 149.095 52.2286 150.126 52.2286Z" stroke="#8BC9ED" stroke-width="2" stroke-miterlimit="10"/>
<path d="M37.2329 101.643H34.2483M40.2175 95.2698V98.4979V95.2698ZM40.2175 104.871V108.017V104.871ZM46.1867 101.643H43.2021H46.1867Z" stroke="#8BC9ED" stroke-width="2" stroke-miterlimit="10" stroke-linecap="round"/>
<path d="M40.2175 102.471C40.6296 102.471 40.9637 102.1 40.9637 101.643C40.9637 101.186 40.6296 100.815 40.2175 100.815C39.8054 100.815 39.4714 101.186 39.4714 101.643C39.4714 102.1 39.8054 102.471 40.2175 102.471Z" fill="#FBB147"/>
<path d="M40.2175 94.5248C39.7698 94.5248 39.4714 94.8559 39.4714 95.3525V96.8424H40.9637V95.2697C40.9637 94.8559 40.5906 94.5248 40.2175 94.5248Z" fill="#104470"/>
<path d="M4.4769 43.7033C5.54833 43.7033 6.4169 42.7398 6.4169 41.5512C6.4169 40.3627 5.54833 39.3992 4.4769 39.3992C3.40548 39.3992 2.53691 40.3627 2.53691 41.5512C2.53691 42.7398 3.40548 43.7033 4.4769 43.7033Z" fill="#9FD3F2" stroke="#FAA934" stroke-width="2" stroke-miterlimit="10"/>
<path d="M51.4098 120.018L50.5144 116.625L47.3806 115.549L50.5144 114.473L51.4098 111.079L52.3798 114.473L55.5136 115.549L52.3798 116.625L51.4098 120.018Z" fill="#8BC9ED"/>
<path d="M95.5073 9.02207L94.5373 5.54568L91.4035 4.46965L94.5373 3.47639L95.4327 0L96.4027 3.47639L99.5365 4.46965L96.4027 5.54568L95.5073 9.02207Z" fill="#FBB147"/>
<path d="M36.4122 73.7492L35.4422 70.2729L32.3829 69.2796L35.4422 68.2036L36.4122 64.7272L37.3822 68.2036L40.516 69.2796L37.3822 70.2729L36.4122 73.7492Z" fill="#FAA934"/>
<path d="M42.9037 39.2336C43.3514 39.2336 43.6498 39.5647 43.7244 40.0613V43.6205C43.7991 44.1171 43.426 44.531 42.9783 44.6138C42.5306 44.6965 42.1575 44.2827 42.0829 43.7861V40.1441C42.0829 39.6475 42.3814 39.3164 42.7544 39.3164C42.8291 39.2336 42.9037 39.2336 42.9037 39.2336ZM42.9037 28.8044C43.3514 28.8044 43.7244 29.2183 43.7244 29.7149V33.1086C43.6498 33.6052 43.2767 33.9363 42.8291 33.9363C42.456 33.9363 42.1575 33.6052 42.0829 33.1086V29.6322C42.0829 29.1355 42.456 28.8044 42.9037 28.8044ZM36.5614 35.7572H39.6952C40.1429 35.84 40.4414 36.2539 40.4414 36.7505C40.4414 37.1643 40.1429 37.4954 39.6952 37.5782H36.5614C36.1137 37.661 35.7406 37.2471 35.666 36.7505C35.5914 36.2539 35.9645 35.84 36.4122 35.7572H36.5614ZM46.0375 35.7572H49.1713C49.619 35.6745 49.9921 36.0883 50.0667 36.5849C50.1413 37.0816 49.7683 37.4954 49.3206 37.5782H46.0375C45.5898 37.4954 45.2914 37.0816 45.2914 36.5849C45.366 36.0883 45.6644 35.7572 46.0375 35.7572Z" fill="#104470"/>
<path d="M42.9037 37.5782C43.357 37.5782 43.7244 37.1705 43.7244 36.6677C43.7244 36.1648 43.357 35.7572 42.9037 35.7572C42.4504 35.7572 42.0829 36.1648 42.0829 36.6677C42.0829 37.1705 42.4504 37.5782 42.9037 37.5782Z" fill="#104470"/>
<path d="M129.606 106.113H132.74M126.473 113.066V109.589V113.066ZM126.473 102.554V99.0773V102.554ZM120.205 106.113H123.339H120.205Z" stroke="#8BC9ED" stroke-width="2" stroke-miterlimit="10" stroke-linecap="round"/>
<path d="M126.473 107.023C126.926 107.023 127.293 106.616 127.293 106.113C127.293 105.61 126.926 105.202 126.473 105.202C126.019 105.202 125.652 105.61 125.652 106.113C125.652 106.616 126.019 107.023 126.473 107.023Z" fill="#8BC9ED"/>
<path d="M62.1544 15.8093C62.6767 15.8093 63.0497 15.3954 63.0497 14.816C63.0497 14.2366 62.6767 13.8228 62.1544 13.8228C61.6321 13.8228 61.259 14.2366 61.259 14.816C61.259 15.3954 61.7067 15.8093 62.1544 15.8093ZM31.8606 57.8571V57.9399C31.8606 58.1882 32.0845 58.3537 32.3083 58.3537C32.5322 58.3537 32.6814 58.1882 32.6814 57.9399V57.7743C32.6814 57.526 32.4576 57.3605 32.2337 57.3605C32.0099 57.4432 31.8606 57.6088 31.8606 57.8571ZM28.4283 54.3807C28.5776 54.4635 28.6522 54.4635 28.7268 54.3807H28.8014C28.9507 54.2979 29.0253 54.0496 28.9507 53.8841C28.876 53.7185 28.6522 53.6357 28.503 53.7185C28.3537 53.8013 28.2791 54.0496 28.3537 54.2151C28.3537 54.2979 28.3537 54.2979 28.4283 54.3807Z" fill="#094B7C"/>
<path d="M163.034 49.0834C163.705 49.0006 164.153 48.4212 164.153 47.6763C164.079 47.0141 163.631 46.5175 163.034 46.4347C162.362 46.5175 161.915 47.0969 161.915 47.8418C161.989 48.504 162.512 49.0834 163.034 49.0834Z" fill="#FAA934"/>
<path d="M141.992 72.4249L142.067 72.5077C142.664 72.8388 143.336 72.5905 143.634 72.0111C143.858 71.5972 143.858 71.1833 143.634 70.7695V70.6867C143.336 70.0245 142.589 69.859 141.992 70.1901C141.396 70.5212 141.246 71.3489 141.545 72.0111C141.694 72.0938 141.843 72.2594 141.992 72.4249Z" fill="#094B7C"/>
<path d="M139.903 91.2967C140.052 90.6346 140.426 90.0552 140.873 89.6413C142.067 88.648 143.783 88.8964 144.753 90.2207C145.201 90.8829 145.425 91.7106 145.276 92.4555C145.052 94.1109 143.709 95.2697 142.142 95.1042C140.575 94.9387 139.605 93.366 139.754 91.6278C139.903 91.545 139.903 91.4623 139.903 91.2967ZM143.709 92.3727V92.2072C143.783 91.8761 143.634 91.545 143.485 91.2139C143.261 90.9656 143.037 90.7173 142.664 90.7173C142.366 90.6345 142.067 90.8001 141.769 90.9656C141.246 91.3795 141.172 92.2072 141.545 92.7866C141.918 93.366 142.664 93.4488 143.186 93.0349C143.485 92.9521 143.634 92.7038 143.709 92.3727Z" fill="#8BC9ED"/>
<path d="M33.3529 95.187C34.4244 95.187 35.2929 94.2235 35.2929 93.035C35.2929 91.8464 34.4244 90.8829 33.3529 90.8829C32.2815 90.8829 31.4129 91.8464 31.4129 93.035C31.4129 94.2235 32.2815 95.187 33.3529 95.187Z" stroke="#8BC9ED" stroke-width="2" stroke-miterlimit="10"/>
<path d="M152.439 36.5021H155.572M149.305 43.5377V39.9785V43.5377ZM149.23 33.0257V29.5493V33.0257ZM142.962 36.5021H146.096H142.962Z" stroke="#8BC9ED" stroke-width="2" stroke-miterlimit="10" stroke-linecap="round"/>
<path d="M149.305 37.4126C149.758 37.4126 150.126 37.005 150.126 36.5022C150.126 35.9993 149.758 35.5917 149.305 35.5917C148.851 35.5917 148.484 35.9993 148.484 36.5022C148.484 37.005 148.851 37.4126 149.305 37.4126Z" fill="#FBB147"/>
<path d="M149.305 44.3655C149.752 44.3655 150.051 44.0344 150.126 43.6205V41.8823H148.484V43.5377C148.484 44.0344 148.857 44.3655 149.305 44.3655Z" fill="#104470"/>
<path opacity="0.6" d="M90.2096 46.3519H120.653C123.189 46.3519 125.279 48.6695 125.279 51.4837V56.9467C125.279 59.7609 123.189 62.0785 120.653 62.0785H90.2096C87.6727 62.0785 85.5835 59.7609 85.5835 56.9467V51.4837C85.5835 48.6695 87.6727 46.3519 90.2096 46.3519Z" fill="#9BBFD0"/>
<path opacity="0.6" d="M95.4327 61.168H125.876C128.413 61.168 130.502 63.4856 130.502 66.2998V100.07C130.502 102.885 128.413 105.202 125.876 105.202H95.4327C92.8958 105.202 90.8065 102.885 90.8065 100.07V66.2998C90.8065 63.4856 92.8958 61.168 95.4327 61.168Z" fill="#9BBFD0"/>
<path d="M71.332 47.428H115.803C117.295 47.428 118.489 48.7523 118.489 50.4077V66.7965C118.489 72.2594 114.46 76.729 109.535 76.729H71.332C66.4074 76.729 62.3782 72.2594 62.3782 66.7965V57.3605C62.3782 51.8976 66.4074 47.428 71.332 47.428Z" fill="#DBDCDD" stroke="#0F4470" stroke-width="3"/>
<path d="M124.682 65.2237V98.9944C124.682 101.809 122.816 104.126 120.578 104.126H66.482C64.2436 104.126 62.3782 101.809 62.3782 98.9944V65.2237C62.3782 62.4095 64.2436 60.0919 66.482 60.0919H120.653C122.891 60.0919 124.682 62.4095 124.682 65.2237Z" fill="#F2F2F3" stroke="#0F4470" stroke-width="3"/>
<path d="M123.712 92.3728H63.4228V76.3151C63.4228 67.7069 63.8705 60.8369 67.3774 60.8369H119.757C123.115 60.8369 123.712 67.5414 123.712 75.9013V92.3728Z" fill="white"/>
<path d="M70.362 50.5732H114.46V53.4702H70.362V50.5732ZM70.362 54.629H114.46V57.526H70.362V54.629Z" fill="#0F4470"/>
<path d="M124.682 65.2237V98.9944C124.682 101.809 122.816 104.126 120.578 104.126H66.482C64.2436 104.126 62.3782 101.809 62.3782 98.9944V65.2237C62.3782 62.4095 64.2436 60.0919 66.482 60.0919H120.653C122.891 60.0919 124.682 62.4095 124.682 65.2237Z" stroke="#0F4470" stroke-width="3"/>
<path d="M114.833 77.1428H125.876V87.9031H114.833C112.52 87.9031 110.654 85.8338 110.654 83.2679V81.778C110.654 79.2121 112.52 77.1428 114.833 77.1428Z" fill="#FCBA63"/>
<path d="M115.728 84.7578C116.882 84.7578 117.817 83.7201 117.817 82.4402C117.817 81.1602 116.882 80.1226 115.728 80.1226C114.574 80.1226 113.639 81.1602 113.639 82.4402C113.639 83.7201 114.574 84.7578 115.728 84.7578Z" fill="#0F4470"/>
</svg>
