<?xml version="1.0" encoding="utf-8"?>
<!-- Generator: Adobe Illustrator 25.2.1, SVG Export Plug-In . SVG Version: 6.00 Build 0)  -->
<svg version="1.1" id="Layer_1" xmlns="http://www.w3.org/2000/svg" xmlns:xlink="http://www.w3.org/1999/xlink" x="0px" y="0px"
	 viewBox="0 0 1920 1920" style="enable-background:new 0 0 1920 1920;" xml:space="preserve">
<style type="text/css">
	.st0{fill:#FEFEFE;}
	.st1{fill:#F5E1E1;}
	.st2{fill:#F5E4E7;}
	.st3{fill:#EAA6A6;}
	.st4{fill:#F0B3B3;}
	.st5{fill:#F4C7C8;}
	.st6{fill:#D76261;}
	.st7{fill:#E4BCBD;}
	.st8{fill:#E3BCBD;}
	.st9{fill:#D56563;}
	.st10{fill:#D38B8A;}
	.st11{fill:#E08887;}
	.st12{fill:#CB6D6C;}
	.st13{fill:#E8BCBB;}
	.st14{fill:#CD6F6E;}
	.st15{fill:#CC6E6E;}
	.st16{fill:#CD6E6C;}
	.st17{fill:#CD6362;}
	.st18{fill:#F5C8C7;}
	.st19{fill:#FEDFE1;}
	.st20{fill:#EFC0C0;}
	.st21{fill:#D48785;}
	.st22{fill:#FEE1E1;}
	.st23{fill:#DFA6A7;}
	.st24{fill:#F7D2D5;}
	.st25{fill:#FBE1E5;}
	.st26{fill:#F3CECD;}
	.st27{fill:#F3CFCE;}
	.st28{fill:#DB8685;}
	.st29{fill:#F4CECD;}
	.st30{fill:#E79E9D;}
	.st31{fill:#DC9D9C;}
	.st32{fill:#E99E9D;}
	.st33{fill:#E8A09F;}
	.st34{fill:#DEA1A1;}
	.st35{fill:#E0A1A0;}
	.st36{fill:#DFA4A3;}
	.st37{fill:#F5C7C8;}
	.st38{fill:#D76160;}
	.st39{fill:#F4C5C7;}
	.st40{fill:#E08785;}
	.st41{fill:#DC8F8E;}
	.st42{fill:#DA8584;}
	.st43{fill:#D38282;}
	.st44{fill:#F5C5C5;}
	.st45{fill:#DF8685;}
	.st46{fill:#CC6664;}
	.st47{fill:#FACBCB;}
	.st48{fill:#CE5A5A;}
	.st49{fill:#F7A9AA;}
	.st50{fill:#DA7473;}
	.st51{fill:#EF9795;}
	.st52{fill:#F3ABAA;}
	.st53{fill:#E2A3A2;}
	.st54{fill:#F9CBCB;}
	.st55{fill:#E4A2A2;}
	.st56{fill:#E1A4A3;}
	.st57{fill:#E1A5A3;}
	.st58{fill:#E1A29F;}
	.st59{fill:#E19898;}
	.st60{fill:#F7D2D3;}
	.st61{fill:#E39D9C;}
	.st62{fill:#DA8887;}
	.st63{fill:#DB9190;}
	.st64{fill:#CD8785;}
	.st65{fill:#D4908F;}
	.st66{fill:#F4B9B9;}
	.st67{fill:#CB8787;}
	.st68{fill:#D69796;}
	.st69{fill:#CF8B8A;}
	.st70{fill:#C98181;}
	.st71{fill:#C45957;}
	.st72{fill:#FED0D1;}
	.st73{fill:#C07878;}
	.st74{fill:#FBC9C9;}
	.st75{fill:#EAB0B0;}
	.st76{fill:#E5A7A6;}
	.st77{fill:#E3A5A4;}
	.st78{fill:#E6A7A7;}
	.st79{fill:#E4A6A5;}
	.st80{fill:#DC9E9F;}
	.st81{fill:#E2A8A7;}
	.st82{fill:#E5B4B3;}
	.st83{fill:#FECFD0;}
	.st84{fill:#FED1D1;}
	.st85{fill:#C75A58;}
	.st86{fill:#FEF8F8;}
	.st87{fill:#FEF7F7;}
	.st88{fill:#D89594;}
	.st89{fill:#F0B4B2;}
	.st90{fill:#D68584;}
	.st91{fill:#D78786;}
	.st92{fill:#EBA7A6;}
	.st93{fill:#DB8684;}
	.st94{fill:#DB8887;}
	.st95{fill:#D98583;}
	.st96{fill:#FCC9C8;}
	.st97{fill:#D98886;}
	.st98{fill:#FCC7C7;}
	.st99{fill:#FBC8C8;}
	.st100{fill:#FCC6C6;}
	.st101{fill:#FAC7C7;}
	.st102{fill:#FECBCC;}
	.st103{fill:#FAC6C6;}
	.st104{fill:#EAA7A6;}
	.st105{fill:#EDA7A7;}
	.st106{fill:#ECA3A2;}
	.st107{fill:#EFA7A7;}
	.st108{fill:#DE9797;}
	.st109{fill:#D06866;}
	.st110{fill:#C96564;}
	.st111{fill:#E9B1B2;}
	.st112{fill:#E7B0B0;}
	.st113{fill:#D66868;}
	.st114{fill:#E6B5B5;}
	.st115{fill:#E9B1B0;}
	.st116{fill:#E5A9AA;}
	.st117{fill:#F1BBBB;}
	.st118{fill:#D99C9C;}
	.st119{fill:#E6AEAF;}
	.st120{fill:#F9BBBB;}
	.st121{fill:#E3AFAE;}
	.st122{fill:#E1B3B3;}
	.st123{fill:#F8C6C6;}
	.st124{fill:#E6B5B4;}
	.st125{fill:#F8C1C0;}
	.st126{fill:#FAC7C6;}
	.st127{fill:#DC8A89;}
	.st128{fill:#DB8988;}
	.st129{fill:#DD8D8D;}
	.st130{fill:#DE8D8A;}
	.st131{fill:#FDC1BF;}
	.st132{fill:#C96261;}
	.st133{fill:#D9615F;}
</style>
<g>
	<path class="st0" d="M862.41,1430.45c-196.17,0-392.35,0-588.52,0c0-313.97,0-627.93,0-941.9c457.41,0,914.81,0,1372.22,0
		c0,254.97,0,509.94,0,764.92c-6.51,0.67-8.26-4.87-10.73-8.8c-14.16-22.5-35.47-35.94-58.75-46.96
		c-52.18-24.7-107.2-40.31-163.61-51.79c-47.94-9.75-96.12-17.8-144.7-23.51c-3.48-0.41-6.95-0.73-10.13-2.42
		c-2.28-1.47-3.96-3.43-5-5.94c-2.8-12.43-1.42-24.98-1.17-37.5c2.55-10.52,9.56-19.67,8.51-31.42c-0.75-8.47-0.48-16.81-5.4-24.43
		c-4.87-7.55-3.72-16.37-3.75-24.81c-0.09-26.45-0.02-52.91-0.03-79.36c-0.02-36.2-1.11-37.73-34.45-48.67
		c-5.86-6.22-3.89-14.07-4.28-21.36c-0.94-17.85-9.44-28.07-27.04-26.51c-56.19,5-108.6-10.61-161.07-26.77
		c-5.7-1.76-11.4-3.72-17.49-3.78c-6.03-0.94-11.81-2.54-16.79-6.28c-4.88-5.27-5.02-11.61-4.02-18.18
		c5.21-34.35,8.96-68.92,15.96-102.96c1.77-8.36-2.93-11.37-10.23-12.22c-64.38-8.59-128.66-17.66-192.78-27.78
		c-6.63-1.05-13.75-4.29-19.89,1.66c-4.89,7.09-3.28,15.52-4.26,23.22c-1.6,12.63-6.79,20.41-20.03,21.52
		c-20.45,4.57-41.26,7.05-61.96,10.13c-6.54,0.97-13.24,1.18-14.93,9.5c5.55,39.69,13.35,79.05,16.13,119.08
		c-0.59,4.24-3.02,7.24-6.47,9.54c-7.27,4.35-15.06,8.15-18.14,16.99c-2.18,5.36-0.96,10.95-1.18,16.45
		c0.07,80.61,0.05,161.19,0.02,241.77c0,6.94,0.53,13.94-1.08,20.81c-0.81,2.71-2.33,4.94-4.54,6.69
		c-9.16,4.52-19.29,4.88-29.13,6.15c-68.01,8.81-135.52,20.63-201.35,39.85c-42.15,12.31-84.15,26.14-119.96,53.26
		c-3.99,3.02-7.95,6.06-11.53,9.57c-25.35,24.88-26.09,47.03-1.79,72.65c13.56,14.3,30.18,24.49,47.84,33.07
		c59.04,28.69,122.41,42.86,186.16,56.04c73.06,15.1,147.17,22.47,221.24,29.4c28.69,2.68,57.72,5.38,86.77,4.03
		c6.89-0.32,14.07-1.05,20.54,2.69C863.12,1427.31,863.38,1428.77,862.41,1430.45z"/>
	<path class="st1" d="M1258.77,1118.48c14.31-2.15,28.02,4.15,42.27,3c6.01,4.81,13.14,3.16,19.75,2.79
		c5.6-0.31,10.17,2.58,15.17,3.68c14.74,3.24,30.04,2.58,44.6,7.96c5.7,2.11,13,2.3,19.55,3.53c11.07,2.08,22.33,3.25,32.86,7.6
		c0.85,0.35,1.71,1.49,2.39,1.36c12.48-2.46,23.66,3.2,34.95,6.4c15.57,4.41,31.36,8.2,46.48,14.44
		c13.21,5.45,26.88,9.96,40.37,14.75c4.48,1.59,6.34,6.68,10.83,6.33c4.85-0.37,7.99,2.76,11.73,4.46
		c19.49,8.88,39.46,22.31,50.03,34.89c5.45,6.49,10.24,13.47,13.35,21.44c0.58,1.48,1.13,2.71,3.03,2.37c0,8,0,16,0,24
		c-3.13,19.91-16.92,32.02-31.89,43.13c-37.2,27.63-80.51,41.92-124.14,54.62c-84.66,24.64-171.67,37.39-259.11,46.78
		c-50.59,5.43-101.49,7.41-152.45,6.9c-66.68,0.01-133.34,0.04-200-0.07c-5.37-0.01-10.95,1.38-16.11-1.38
		c-10.5,0-21.02-0.35-31.51,0.07c-26.69,1.05-53.06-5.2-79.79-3.14c-5.72,0.44-10.55-4.05-16.79-3.16
		c-5.04,0.72-10.68,1.67-15.36-2.62c-1.09-1-3.9-0.38-5.86-0.11c-15.81,2.2-31.17-2.45-46.73-3.62c-7.98-0.6-16.41-1-24.22-2.79
		c-7.65-1.75-15.58-1.18-22.7-3.16c-6.25-1.73-12.25-3-18.39-2.3c-6.59,0.75-11.78-4.7-18.28-3.17c-12.53-6.42-27.51,0.26-40.19-8.3
		c-5.27-3.56-13.79-0.69-20.97-3.38c-11.76-4.41-25.05-3.65-36.66-9.32c-12.99,2.97-23.79-7.38-36.52-6
		c-9.39-5.43-20.12-7-30.25-10.25c-23.83-7.64-47.1-16.47-69.67-27.42c-22.07-10.7-39.93-21.49-53.92-36.28
		c-5.29-5.59-10.11-11.68-14.6-17.93c-4.35-6.07-4.27-23.89-0.57-32.13c6.55-14.57,14.83-27.54,29.44-35.66
		c4.48-2.49,8.11-6.57,12.42-9.68c12.32-8.89,25.75-14.78,39.91-19.79c8.68-3.07,16.78-7.76,25.16-11.68
		c7.98-3.74,16.74-5.28,24.98-8.45c7.49-2.89,15.84-5.41,24.14-7.22c11.77-2.57,22.97-7.95,35.31-8.68
		c3.26-4.71,8.35-3.19,12.3-2.53c5,0.84,8.12-2.59,12.24-3.54c11.82-2.7,23.91-3.91,35.51-8.29c6.31-2.38,14.06-1.78,21.18-2.94
		c8.45-1.38,16.72-5.73,25.68-3.5c6.49-6.52,16.49,0.48,23.08-5.93c0.51-0.5,1.94,0.01,2.94-0.08c7.14-0.61,14.13,0.63,21.45-2.56
		c6.23-2.71,14.08,0.63,21.26-3.07c3.95-2.03,9.82-0.36,14.82-0.36c5.04,4.72,4,10.98,4.06,16.84c0.19,19.43-0.11,38.86,0.14,58.28
		c0.23,17.2,3.54,21.24,20.46,26.04c1.84,0.28,3.61,0.75,5.36,1.35c4.89,1.51,9.92,1.21,14.91,1.21
		c168.51,0.04,337.02,0.04,505.52,0.01c3,0,6-0.06,8.94-0.4c1.62-0.4,3.2-1.01,4.63-1.89c1.28-0.94,2.66-1.78,4.05-2.56
		c7.3-4.22,14.33-8.85,20.57-14.62c4.5-5.38,4.71-11.8,4.72-18.34c0.03-16.38-0.12-32.77,0.09-49.15
		C1254.77,1129.42,1253.73,1123.18,1258.77,1118.48z"/>
	<path class="st0" d="M1081.61,1427.45c10.51,0,21.09-0.78,31.5,0.23c9.53,0.92,17.8-4.5,27.32-3.44c8.9,0.99,18.48,2.01,26.87-0.27
		c9.27-2.51,18.56-0.8,27.33-2.84c12.63-2.93,25.44-1.1,37.78-3.17c8.67-1.45,17.79-0.46,25.69-3.03
		c8.84-2.87,17.68-0.53,25.84-2.86c7.2-2.05,15.16-0.38,21.13-3.17c7.47-3.49,14.6-0.74,21.5-2.57c12.03-3.19,23.96-6.5,36.57-5.88
		c15.89-8.04,34.82-3.34,50.57-12c12.75,1.45,24-5.5,36.5-6.5c7.98-0.64,16.34-3.95,23.97-6.97c4.52-1.79,10.17,1.2,13.47-3.7
		c23.36-4.64,45.01-14.58,67.19-22.63c21.41-7.77,41.65-18.99,59.84-32.79c10.83-8.22,20.16-18.68,27.9-30.22
		c1.74-2.59-2.23-7.5,3.54-8.17c0,50.99,0,101.99,0,152.98c-188.17,0-376.33,0-564.5,0c-0.98-0.67-1.31-1.33-0.99-2
		C1080.95,1427.78,1081.28,1427.45,1081.61,1427.45z"/>
	<ellipse class="st2" cx="972.01" cy="1428.95" rx="154.99" ry="2.12"/>
	<path class="st3" d="M1249.76,1208.47c-6.01,4-12.01,8-18.02,12c-16.84,1.75-33.74,1.22-50.61,1.23
		c-156.61,0.02-313.22,0.01-469.83,0.03c-8.5,0-17-0.02-25.45-1c-10.36,0.6-17.69-3.09-19.88-14.05
		c0.09-31.02,0.28-62.04-0.15-93.07c-0.08-84.46,0.01-168.92-0.05-253.32c0.36-11.06,6.91-5.88,10.81-3.39
		c8.65,5.5,15.66,4.46,22.02-3.31c1.72,0.15,3.09,0.89,4.17,2.21c2.78,4.8,7.02,6.56,12.45,6.5c36.68-0.39,73.37,1.08,110.03-0.85
		c5.87-0.14,11.54-3.32,17.6-1.32c4.45,0.78,8.88,1.54,13.39,1.53c108.81-0.35,217.61,1.54,326.4,0.17c1.7-0.49,3.45-0.71,5.22-0.71
		c7.42,0.97,14.93,1.25,22.41,1.94c2.51,0.49,4.55,1.86,6.48,3.46c4.5,0,9,0.14,13.49-0.03c8.02-0.3,14.64,3.53,18.23,9.71
		c3.87,6.67,7.67,13.59,7.55,22.37c-0.53,39.88-0.23,79.78-0.23,119.55c3.04,1.82,6.63,2.3,8.77,5.81c0,12.5,0,25.41,0,38.89
		c-1.98,4.68-10.09,6.2-8.77,13.68c-1.89,0.66-3.45,0.21-4.69-1.36c-5.69-2.72-11.78-1.58-17.69-1.6
		c-46.88-0.1-93.77-0.05-140.65-0.07c-5.98,0-11.98,0.3-17.8-1.56c-20.03-6.43-25.11-27.83-10.77-45.24
		c2.39-2.41,5.67-3.6,9.12-6.34c-3.79,2.43-7,3.89-9.49,6.49c-9.01,8.47-11.44,18.18-6.43,29.78c5.55,12.84,15.93,16.9,28.89,16.9
		c49.36,0.02,98.73-0.07,148.09,0.08c6.3,0.02,13.09-1.74,18.64,3.16c2.68,11.55,0.73,23.23,1.08,34.84
		c-0.3,28.34-0.1,56.69,0.02,85.03C1254.4,1201.2,1252.15,1204.86,1249.76,1208.47z"/>
	<path class="st4" d="M1048.58,669.65c0-4.44-0.21-8.95,0.04-13.43c0.57-10.17,7.96-17.3,18.42-17.64c7.49-0.24,15-0.05,22.5-0.05
		c25.5,0,51.01,0.04,76.51-0.04c4.74-0.02,9.18-0.09,14.01-2.45c3.27-1.59,7.78-1.66,9.5-5.32c2.55-5.41,6.63-11.85,5.47-16.77
		c-1.24-5.25-2.1-12.09-8.2-16.12c-5.23-3.46-9.79-7.39-16.53-7.33c-14.5,0.13-29,0.04-43.51,0.04c-6.5,0-13,0-19.72,0
		c-3.35-3.48-6.8-7.07-10.46-10.88c0-5.09-0.18-10.59,0.04-16.08c0.41-10.33,7.71-17.53,18.07-18.02c2.99-0.14,6-0.02,9-0.02
		c127.52,0,255.04,0,382.8,0c4.01,4.21,8.13,8.54,13.01,13.67c0,6.24,0,13.59,0,21.29c-2.85,2.85-6.03,6.03-10.05,10.04
		c-13.54,0-27.94-0.09-42.33,0.04c-7.59,0.07-19.25,6.75-22.23,12.38c-9.29,17.53,1.36,35.01,22.07,35.49
		c18.49,0.42,37,0,55.51,0.18c3.25,0.03,6.37,0.02,9.89,1.36c10.97,4.19,13.63,17.62,11.57,25.67
		c-3.82,14.97-7.57,17.86-22.73,17.86c-149.02,0.02-298.05-0.09-447.07,0.21C1062.97,683.75,1056.06,678.21,1048.58,669.65z"/>
	<path class="st5" d="M1006.54,659.53c1.57,5.58-3.27,9.83-3.09,15.22c0.15,4.72,1.42,9.87-2.91,13.72c2.14,9.41-3.68,17.9-3.1,27.2
		c0.36,5.69,0.26,11.26-2.66,16.84c-2.32,4.43,1.78,10.48-2.73,15.42c-1.52,1.66-0.24,5.72-0.57,8.64
		c-0.48,4.18,1.05,8.3-2.54,12.51c-3.64,4.27,4.07,8.38,2.59,13.44c-12.44-1.47-24.61-3.64-34.13-12.87
		c-1.83-2.31-3.22-4.78-2.69-7.89c1.68-3.08,5.82-3.57,7.42-7.1c0.75-4.66-4.28-7.34-4.61-11.78c3.7-6.09,8.99-11.52,3.97-19.79
		c-2.15-3.55,2.34-5.84,4.74-8.11c1.96-2.35,2.93-4.87,1.3-7.85c-3.13-4.42-5.34-8.79,0.74-12.64c0.88-0.85,1.77-1.69,2.58-2.59
		c2.67-4.58-0.5-6.7-3.72-8.75c-3.06-1.51-5.99-1.58-8.72,0.67c-3.73,4.32,0.58,7.82,1.2,11.67c0.38,5.18-4.44,7.4-6.34,11.26
		c-1.71,4.35,1.98,6.82,3.49,10.05c2.03,6.76-5.2,8.98-6.95,14.11c-0.51,4.48,4.54,7.62,3.52,12.41c-9.95,5.6-3.33,14.49-4.35,21.89
		c-7.73,4.5-14.87,3.88-21.39-2.35c-3.79-5.96-2.3-12.29-1.18-18.58c2.66-15,4.49-30.13,6.85-45.18c0.99-6.3,1.07-12.21-8.05-11.71
		c-18.96-8.86-38.85-11.36-59.5-8.8c-10.48-6.4-15.76-17.98-25.59-25.32c-5.18-3.87-0.77-7.55,4.23-8.98
		c5.25-0.88,10.67-0.71,15.78-2.53c8.7-2.09,17.01,1.36,25.55,1.7c3.12,0.23,6.22,0.62,9.26,1.36c3.74,1.17,7.58,1.7,11.5,1.72
		c27.01,3.97,53.92,8.55,80.97,12.27C993.84,659.71,1000.18,659.02,1006.54,659.53z"/>
	<path class="st5" d="M691.26,809.52c1.53-6.5-3.77-11.69-3.24-18.27c0.44-5.54,2.14-11.77-2.66-16.83
		c-0.75-0.79,0.05-2.92-0.13-4.4c-0.79-6.61,1.14-13.14-2.54-19.99c-2.67-4.97-0.38-11.88-3.01-18.19
		c-2.62-6.31,1.59-14.55-3.44-21.07c2.23-8.48-3.36-16-3-24.25c5.75-1.25,10.1,3.28,15.46,3.67c4.88,1.19,9.18,5.11,17.09,3.2
		c-0.34-0.01-2.81-2.2-2.69-0.21c0.04,0.66-0.31,0.86-1.07,0.77c-2.36-0.26-5.14,0.16-5.28-3.48c11.19-9.26,25.46-5.94,38.05-9.41
		c2.17-0.61,4.39-0.95,6.62-1.15c7.64-0.88,16.27,1.01,21.27-7.6c-0.14-5.6-6.87-3.03-8.37-6.79c-0.34-1.84,0.79-2.86,2.28-2.94
		c3.86-0.19,7.73-0.06,12.76-0.06c-1.47-13.66,4.94-26.23,3.06-39.73c-0.19-1.38,1.08-2.61,2.92-2.27
		c6.65,7.63,15.51,9.75,25.13,10.82c11.68,1.29,23.73,1.06,34.58,6.67c2.06,3.8-0.37,4.82-3.43,5.3c-0.88,0.14-1.83-0.15-2.75-0.25
		c0.55,0.93,1.67,1.28,2.29,2.21c3.61,6.9,3.06,12.91-3.12,18.26c-5.38,4.67-8.7,0.33-12.57-2.2c-4.01-0.89-8.05-0.29-12.03-0.45
		c-1.79-0.3-3.52-0.99-5.32-1.19c-7.81,6.07-9.06,14.59-9.03,23.6c-0.48,7.19-3.51,14.01-3.05,21.34c-0.1,8.3-1.06,16.44-4.39,24.16
		c-0.41,1.39-0.95,2.72-1.56,4.04c-0.34,0.65-0.7,1.28-1.04,1.93c-2.29,3.2-4.49,6.55-10,5.76c-10.34-9.46-4.58-22.87-7.27-34.3
		c-0.65-1.16-1.34-2.31-2.14-3.38c-8.28-6.72-14.07-0.66-19.08,4.51c-4.98,5.13-9.71,8.3-16.83,5.19c-2.95-0.5-5.87-1.33-8.91-0.86
		c-2.27,0.51-3.99,2.17-6.12,2.93c-6.54,6.96-1.31,10.33,4.17,13.62c0.46,1.32,0.45,2.63-0.08,3.94c-9.45,7.01-6,16.39-4.61,25.37
		c0.62,7.76,2.36,15.33,3.91,22.93c0.81,2.52,1.64,5.03,1.75,7.71c-0.26,4.79,0.6,9.6-0.12,14.4
		C708.37,819.41,703.54,820.89,691.26,809.52z"/>
	<path class="st6" d="M835.39,641.53c-0.35-0.85-0.76-2.45-1.03-2.43c-12.14,1.04-23.61-4.45-35.73-3.6
		c-7.68,0.54-14.35-5.66-23.29-2.18c0-5.12,0-8.96,0-12.79c0-1.49,0-2.98,0-4.63c3.45-2.72,7.81-1.92,11.25-1.16
		c12.52,2.75,24.93,5.61,37.87,5.97c5.05,0.14,9.62,4.19,15.19,2.85c5.95-1.43,10.55,4.06,16.69,3.15
		c5.11-0.75,10.68-1.12,15.15,2.83c9.87-2.19,18.77,4.8,28.62,3.01c5.91-1.07,10.59,3.69,16.69,3.23
		c5.52-0.42,10.98,0.05,16.87,2.16c7.26,2.61,16.03,2.33,23.97,2.97c11.55,0.92,22.73,5.66,34.55,3.72
		c1.43-0.23,2.68,1.03,2.34,2.91c2.31,3.6,9.33,4.39,6.44,11.4c-4.37,4.67-9.98,2.09-15.02,1.37c-22.93-3.24-45.78-7.02-68.67-10.54
		c-4.34-0.67-8.7-2.01-12.83,0.77c-2.96-1.14-7.6,2.78-9.01-3c-3-2.71-6.01-1.72-9.01,0c-9.28,1.46-17.65-5.29-27.02-3
		c-2.42,2.12-5.31,1.31-8.07,1.3c-3.36-1.3-6.9-1.32-10.42-1.49C838.69,644.17,836.78,643.37,835.39,641.53z"/>
	<path class="st7" d="M452.58,935.3c-2.67,4.98-4.64,9.48-4.73,15.08c-0.16,9.88-5.98,15.06-16.09,14.98
		c-3.7-0.03-7.27,0.38-11.36-1.47c-8.44-3.83-14.11-1.63-14.57,8.75c-0.43,9.59-5.63,17.16-13.4,22.63
		c-4.98,1.06-9.24-1.01-13.84-2.5c-4.05-1.31-8.86-0.27-13.12-0.27c-2.66-2.16-0.99-4.87-1.71-7.94c10.01-4.14,19.5,6.09,31.36-0.19
		c4.49-7.09-0.19-21.12,15.44-28.48c5.65-2.05,14.21,3.75,24.1,3.81c1.85-2.4,3.97-5.14,7.37-9.55c0-0.52-0.3-3.48,0.05-6.36
		c1.61-13.3,11.32-19.59,24.09-15.48c1.31,0.42,2.52,1.2,4,1.19c3.41-0.01,6.83,0,9.35,0c4.79-4.52,6.75-9.08,7.64-14.48
		c2.36-14.44,9.33-18.3,24.12-13.83c7.96,2.4,10.5,2.01,17.97-3.11c-2.4-12.18,4.11-20.86,13.45-28.35
		c3.07-0.12,7.37-1.75,9.55,0.79c2.88,3.36,7.11,0.25,9.34,3.04c3.39,4.25,5.29-4.15,8.23-0.9c2.57,2.14,0.53,4.89,1.57,6.98
		c-0.96,0.74-1.76,1.87-2.41,1.78c-4.68-0.61-9.18,0.62-14.19-2.05c-4.54-2.42-11.61-2.96-16.68,3.89
		c2.06,13.43-4.4,22.89-17.47,28.26c-3.44,0.08-5.34-4.39-9.27-3.03c-3.75,1.3-6.06-2.3-10.2-3.2c-1.92,2.76-4.17,5.97-6.42,9.19
		c-2.98,3.43-0.28,8.57-4.36,13.88c-5.15,6.71-13.56,13.5-19.55,9.71C464.35,933.95,458.4,936.87,452.58,935.3z"/>
	<path class="st8" d="M1326.33,878.51c6,0,10.51-0.24,14.99,0.06c6.71,0.44,13.06,6.61,13.46,13.3c0.36,5.97,0.38,12-0.04,17.97
		c-0.26,3.73,2.36,5.15,4.4,7.48c6.78,0,13.72,0,21.23,0c2.99,3.63,6.15,7.46,10.27,12.46c-0.86,3.61,1.31,9.19-1.15,15.21
		c-1.42,3.49,2.03,8.33,5.81,11.41c6.83,0,13.8,0,20.67,0c4.44,3.33,7.38,7.54,9.91,12.32c1.34,2.51,1.79,5.74,0.84,6.93
		c-7.13,8.86-1.61,14.33,4.45,19.5c7.17,1.93,14.42-1.81,21.59,3.1c8.21,5.63,10.94,9.47,8,18.87c-1.51,4.81-1.36,9.18,1.82,13.25
		c-2.32,1.51-3.25,5.52-7.94,3.46c0-7.69,0-16,0-24.49c-2.96-2.44-5.64-4.64-9.36-7.71c-9.53,3.38-19.62,2.64-26.89-7.46
		c-2.32-10.31,2.81-21.6-3.95-31.72c-8.92,0-17.29,0-25.02,0c-7.6-6.63-9.18-15.08-7.16-23.03c1.74-6.85,0.12-11.15-4.67-15.66
		c-6.66,0-13.59,0-19.72,0c-14.42-7.77-11.72-19.59-8.17-31.3c-3.18-2.66-5.85-4.89-9.3-7.77c-5.69,0-12.64,0-20.17,0
		c-2.03-2.43-4.26-5.09-7.09-8.49c0-9.1,0-19.44,0-29.38c1.46-1.81,4.05-1.55,4.2-1.05c1.46,4.66,7.67,8.76,3.35,14.1
		c-3.1,3.83-0.7,7.62-2.13,10.89C1321.38,873.57,1323.85,876.04,1326.33,878.51z"/>
	<path class="st9" d="M736.3,683.53c0.34,1.87-0.91,3.14-2.31,2.91c-11.75-1.93-22.71,4.48-34.4,3.17
		c-1.45-0.16-2.66,1.05-2.32,2.92c-3,2-6.01,2.08-9.01,0c-9.48,0-9.48,0-15.01-6c0-2.49,0-4.98,0-7.47
		c6.16-4.61,13.29-5.46,20.51-4.42c7.02,1.01,12.55-4.54,19.73-3.3c7.11,1.23,13.56-4.36,21.18-2.97
		c6.64,1.21,12.62-4.91,19.66-2.84c4.83,0,9.66,0,15.99,0c-5.79,4.55-2.94,9.77-4.49,14.01c-7.53,3.15-15.3,4.92-23.52,3.99
		c-3.93-3.16-8.63-0.62-12.83-1.77C731.74,682.43,734.4,681.5,736.3,683.53z"/>
	<path class="st10" d="M1216.73,866.51c-2,0-4,0-6.01,0c-5.87-6.77-3.85-15.09-4.32-22.84c-0.57-9.51-4.66-17.29-14.01-18.68
		c-21.98-3.28-44.18-4.96-66.13,1c-5.99,2.47-11.76,0.47-17.48-1.04c-32.16-8.46-63.91-18.35-96.02-26.98
		c-4.76-1.28-9.73-2.38-12.62-7.09c-0.71-5.16,4.91-2.8,6.4-5.36c5.31-0.13,10.2,0.72,15.35,2.76c9.45,3.75,19.58,6.63,29.31,8.52
		c9.73,1.89,18.39,8.62,28.87,6.71c10.65,7.68,24.36,5.85,35.77,11.43c2.83,1.39,6.8,0.54,10.25,0.55c21,0.03,42-0.05,63,0.04
		c15.3,0.07,27.46,12.02,27.61,27C1216.8,850.53,1216.73,858.52,1216.73,866.51z"/>
	<path class="st11" d="M697.27,854.51c0,3.47,0,6.94,0,11.26c-9.44,2.29-17.19-1.08-24.35-7.03c-1.81-1.5-2.66-4.34-5.67-4.23
		c-2.31-2.9-1.16-6.32-1.45-9.52c0.58-4.81-1.37-9.88,1.45-14.47c4.37-7.82,10.4-12.84,18.02-15c5.17-2.98,9.6-0.25,10.55,3.98
		C698.39,830.96,705.32,842.54,697.27,854.51z"/>
	<path class="st12" d="M1353.22,803.52c-2.7-2.74-5.51-5.55-8.28-8.41c-6.46-6.66-8.63-17.44-5.11-25.23
		c3.49-7.71,16.33-15.11,24.89-14.36c8.66,0.76,15.54,9.25,20.57,17.35c6.21,10.01-1.02,16.32-4.06,23.1
		c-2.67,5.96-10.11,8.18-17.39,7.59C1360.39,803.29,1356.88,803.52,1353.22,803.52z"/>
	<path class="st12" d="M683.75,542.55c-7.39,0-13.89,0-20.39,0c-18.91-12.86-16.96-30.69-7.91-40.62c9.3-10.2,24.75-10.29,34.71-0.9
		C702.06,512.24,699.9,526.41,683.75,542.55z"/>
	<path class="st13" d="M667.24,845.51c0,3,0,6,0,9c0,86.99,0,173.98,0,260.97c2.7,29.98,1.82,59.97,0.45,89.97
		c-3.1,0.55-4.8-0.88-4.75-3.9c0.53-28.69-1.9-57.43,1.29-86.08c0-89.99,0-179.98,0-269.97
		C665.24,844.15,666.24,844.15,667.24,845.51z"/>
	<path class="st14" d="M547.42,716.53c0-3.25,0-5.59,0-8.07c20.49-7.62,41.5-2.03,62.47-4.43c0,3.75,0,6.09,0,8.32
		c-5.43,4.12-11.51,4.33-17.84,4.24C577.27,716.38,562.48,716.53,547.42,716.53z"/>
	<path class="st15" d="M623.54,689.98c-19.3-8.05-35.92-20.39-52.4-31.74c-0.02-4.76,2.97-5.9,5.1-7.74
		c13.54,4.43,23.52,14.77,35.66,21.55c3.99,2.23,8.53,4.05,11.62,8.1C626.03,683.45,626.01,686.18,623.54,689.98z"/>
	<path class="st16" d="M643.64,661.14c-6.11,3.22-10.6,1.03-12.15-3.12c-5.47-14.63-11.78-28.87-18.15-43.11
		c-1.07-2.4-0.15-5.69-0.15-8.56c9.95-0.14,9.67-0.05,12.1,6.53c3.33,9.03,6.72,18.03,11.23,26.62
		C640.12,646.36,642.31,653.84,643.64,661.14z"/>
	<path class="st17" d="M904.45,650.53c-0.34-1.87,0.8-2.86,2.34-2.96c12.54-0.79,24.95,0.12,36.7,4.76
		c2.45,0.97,4.62,0.95,6.94,1.18c6.59,0.66,13.05-0.58,19.78,2.61c5.16,2.45,12.07-0.51,18.09,3.11c2.84,1.71,7.57,0.29,11.57,0.29
		c-1.64-8.52-1.64-8.52-14.87-10.07c3.32-2.89,6.63-1.55,9.52-1.93c3.76,0,7.51,0,12.01,0c0,4.49,0,8.25,0,12
		c-4.1-0.34-2.23,3.54-3.63,5.12c-5.26,4.3-8.67-2.55-13.4-2.22c-4.92,0.34-10.2,0.89-14.79-0.46c-10.1-2.97-20.54-3.48-30.7-5.61
		c-9.67-2.03-19.81-1.38-29.16-5.62C911.96,649.42,907.95,650.53,904.45,650.53z"/>
	<path class="st18" d="M697.27,854.51c2.2-11.05-3.91-21.25-3.24-32.27c0.29-4.68-3.59-7.39-8.77-6.73
		c-0.34-1.83,0.78-2.77,2.28-2.94c2.01-0.24,3.94-0.24,3.73-3.06c3.73,3.77,9.98,1.83,13.86,5.67c2.64-2.3,5.24-4.9,4.27-9.53
		c-0.42-2.02-1.06-5.13,2.89-5.14c2.45,1.29,3.75,3.57,5.08,5.84c0.68,1.16,1.22,2.38,1.7,3.64c2.5,6.33-0.41,10.56-5.41,14.01
		c-2.53,1.72-5.77,0.6-9.14,2.18c-1.97,7.4,0.3,15.29-1.1,22.9c-0.44,2.16-1.31,4.08-3.14,5.43
		C699.27,854.51,698.27,854.51,697.27,854.51z"/>
	<path class="st19" d="M664.24,1115.48c0,27.73-0.05,55.47,0.09,83.2c0.01,2.39-2.07,6.28,2.91,6.79c0.83,0.67,1.11,1.33,0.83,2
		c-0.28,0.67-0.55,1-0.83,1c2.74,6.82,9.06,9.18,15.01,12c1.05-1.03,2.21-1.23,3.51-0.48c0.72,1.29,0.55,2.45-0.5,3.48
		c-15.54-1.22-23.95-9.6-24-24.27c-0.09-26.91-0.03-53.81-0.03-80.72C661.16,1116.41,662.16,1115.41,664.24,1115.48z"/>
	<path class="st20" d="M1252.76,1076.49c1,0,2,0,3,0c0,13,0,26,0,39c3.14,25.57,0.77,51.23,1.32,76.84
		c0.06,2.92-1.44,4.54-4.52,4.41c-2.01-28.09-2.29-56.17,0.19-84.25C1252.76,1100.48,1252.76,1088.49,1252.76,1076.49z"/>
	<path class="st21" d="M1006.54,785.52c-0.26,4.49-3.73,2.55-6.01,3c-16.36,4.67-30.33-2.06-44.23-9.19
		c-1.97-4.42-4.95-9.05,2.19-11.81c6.76,4.79,13.82,9.3,22.43,8.85c5.34-0.28,6.13,5.81,10.6,6.15
		C997.04,780.98,1001.24,786.02,1006.54,785.52z"/>
	<path class="st22" d="M1252.76,1196.47c4.97-0.51,2.89-4.4,2.91-6.78c0.15-24.73,0.09-49.47,0.09-74.21c2.08-0.08,3.08,0.92,3,3
		c0,24.14-0.03,48.28,0.02,72.43c0.01,7.45-1.41,14.07-9.02,17.56c-1.47-3.82,2.57-5.81,3-9c-0.83-0.67-1.11-1.33-0.83-2
		C1252.21,1196.81,1252.48,1196.47,1252.76,1196.47z"/>
	<path class="st3" d="M667.24,845.51c-1,0-2,0-3,0c0-3.8,0.01-7.61,0-11.41c0-2.04,0.34-3.78,3-3.59
		C667.24,835.51,667.24,840.51,667.24,845.51z"/>
	<path class="st23" d="M685.26,1220.47c-1,0-2,0-3,0c-0.34-1.9,0.82-2.88,2.38-2.94c3.99-0.17,8-0.06,12-0.06
		c173.57,0,347.15,0,520.72,0c4,0,8.01-0.11,12,0.06c1.56,0.06,2.72,1.05,2.38,2.94c-1,0-2,0-3,0c-5.24,4.14-11.46,2.94-17.35,2.94
		c-169.05,0.06-338.1,0.06-507.15,0.03C697.78,1223.44,691.16,1224.17,685.26,1220.47z"/>
	<path class="st24" d="M685.26,1220.47c181.16,0,362.32,0,543.48,0c0,1,0,2,0,3c-4.17,2.51-8.79,1.4-13.19,1.4
		c-171.36,0.06-342.73,0.06-514.09,0c-4.41,0-9.02,1.11-13.19-1.4c-1,0-2,0-3,0C685.26,1222.47,685.26,1221.47,685.26,1220.47z"/>
	<path class="st25" d="M688.26,1223.47c180.16,0,360.32,0,540.48,0c0.34,1.9-0.82,2.88-2.38,2.94c-3.99,0.17-8,0.06-12,0.06
		c-170.57,0-341.14,0-511.71,0c-4,0-8.01,0.11-12-0.06C689.08,1226.35,687.92,1225.37,688.26,1223.47z"/>
	<path class="st26" d="M640.22,1253.47c1.83,0.39,3.85-0.82,5.56,1c3.05,3.26,6.29,6.34,9.45,9.5c-1.35,9.44-6.55,15.66-16.47,16.08
		c-4.75,0.2-7.65,3.84-12.15,3.49c-4.44-0.34-9.04,0.52-13.37-0.25c-4.03-0.72-5.92,3.02-9.22,3.14c-3.97,0.15-8.39,1.18-11.84-0.17
		c-13.93-5.44-30.39-0.56-43.14-11.07c-3.13-2.58-8.94-2.88-7.74-8.44c1.27-5.86,4.57-10.68,11.83-10.29
		c3.04,1.99,4.28,5.49,6.74,7.96c22.88,14.59,62.95,13.03,78.63-3.09C638.86,1258.67,638.48,1255.83,640.22,1253.47z"/>
	<path class="st27" d="M1150.67,1277.47c6.93-1.07,8.51,5.17,12.95,8.21c-8.61,14.05-22.38,16.99-35.67,18.42
		c-14.74,1.59-29.91,1.57-44.66,0.01c-13.84-1.46-28.64-2.96-38.14-17.18c2.86-4.46,5.15-9.89,12.44-9.47
		c1.28,0.75,2.38,1.7,3.28,2.88c18.05,18.13,61.73,19.5,83.22,2.55C1145.98,1280.72,1148.47,1279.28,1150.67,1277.47z"/>
	<path class="st28" d="M1294.8,1319.46c0,1,0,2,0,3c-7.38,14.05-21.72,15.48-34.7,17.26c-18.38,2.52-37.03,1.39-54.9-4.52
		c-9.87-3.27-18.93-7.91-16.53-21.11c12.5-2.8,22.03,6.56,33.8,8.24c22.01,3.15,42.59,1.42,62.91-7.08
		C1292.78,1312.15,1292.9,1312.42,1294.8,1319.46z"/>
	<path class="st29" d="M1189.7,1313.46c-1.4,7.55,3.2,11.31,8.73,15.15c4.4,3.05,9.74,3.77,14.27,5.2
		c5.53,1.75,11.98,2.58,18.04,3.37c8.33,1.1,17.05,1.24,25.36,0.06c13.87-1.96,27.58-5.22,38.69-14.78
		c0.09,5.45,0.55,10.66-7.05,12.21c-3.91,0.8-7.43,5.55-11.02,5.41c-7.01-0.27-12.57,4.39-19.76,3.63
		c-9.87-1.04-19.98,0.33-29.9-0.42c-10.3-0.79-20.44-2.88-30.59-5.31c-6.1-1.46-9.1-4.81-13.12-8.69
		c1.83-7.27,4.65-14.56,3.43-22.47c-0.22-1.44,1.02-2.69,2.91-2.35C1192.31,1307.46,1192.22,1310.46,1189.7,1313.46z"/>
	<path class="st30" d="M1189.7,1313.46c0-3,0-6,0-9c-0.08-2.08,0.92-3.08,3-3c1.42,4.81,6.53,1.05,8.88,3.79
		c21.37,15.94,45.22,10.43,68.65,7.81c5.41-0.6,10.41-3.14,15.47-5.18c2.98-1.13,6-1.65,9.09-0.42c4.06,3.8,4.06,8.2,0,12
		c0-1.49,0-2.99,0-6.07c-6.6,3.87-12.36,7.64-19.43,9.55c-22.49,6.1-26.14,7.07-48.76,2.54c-5.21-1.04-10.45,0.66-15.93-1.24
		C1203.06,1321.62,1196.15,1318.13,1189.7,1313.46z"/>
	<path class="st31" d="M1294.8,1307.46c-2,1-4,2-6.01,3c-23.6-16.73-49.65-12.92-75.67-8.86c-4.83,0.75-9.24,3.71-14.41,2.86
		c-4.6-0.41-1.65,4.78-4.54,5.75c-3.07-2.35-0.82-5.83-1.47-8.75c8.79-8.49,20.14-10.93,31.52-11.78
		c12.88-0.96,25.89-0.12,38.83-0.25c10.31-0.11,18.42,6.1,27.41,9.63C1292.67,1299.93,1293.39,1304.56,1294.8,1307.46z"/>
	<path class="st32" d="M640.22,1253.47c1,2,2,4,3,6c-2.53,4.53-6.1,7.54-11.13,9.37c-21.48,7.8-42.97,7.68-64.54,0.67
		c-4.36-1.42-8.44-3.39-9.16-8.74c0.95-2.57,3.08-3.52,5.53-4.02c16.2,2.63,32.46,3.4,48.9,2.04c8.8-0.73,16.54-3.16,23.28-8.8
		c1.47-0.65,2.84-0.48,4.12,0.48C640.22,1251.47,640.22,1252.47,640.22,1253.47z"/>
	<path class="st33" d="M1057.59,1280.46c0-1,0-2,0-3c-0.08-2.08,0.92-3.08,3-3c1.87-1.67,4.07-2.13,6.5-1.77
		c25.6,10.49,50.96,11.94,75.93-2.03c4.47,2.73,3.53,6.96,3.08,11.06c-1.57,3.27-3.85,6.23-7.31,7.11
		C1110.73,1296,1083,1299.24,1057.59,1280.46z"/>
	<path class="st34" d="M1144.66,1280.46c-1.14-2.95,2.78-7.59-3-9c-3.31,1.85-6.77,1.25-10.05,0.23
		c-22.02-6.85-43.64-4.98-65.02,2.77c-2,0-4,0-6.01,0c-1.04-4.05,1.16-7.37,4.24-8.47c7.36-2.61,14.27-6.8,22.56-6.6
		c10.39,0.26,20.84,0.67,31.17-0.15c7.06-0.56,12.91,2.65,19.22,4.18c5.92,1.43,11.56,4.97,10.47,13.01
		c-0.03,0.23,1.58,0.68,2.43,1.02c-0.45,2.27,1.49,5.74-3,6C1145.85,1283.28,1145.55,1281.58,1144.66,1280.46z"/>
	<path class="st35" d="M565.15,1259.47c-2,0-4,0-6.01,0c-1.63,1.69-0.59,4.7-3,6c-5.79-1.41-1.86-6.05-3-9
		c-0.39-7.25,4.6-9.85,10.25-12.02c13.62-5.23,27.91-7.98,42.12-5.51c6.57,1.14,13.02,2.42,19.69,2.53
		c0.79,2.76-0.87,4.13-2.95,5.27c-13,3.1-26.24-1.85-39.42,1.48C575.34,1250.1,568.53,1251.72,565.15,1259.47z"/>
	<path class="st36" d="M622.2,1244.47c2.08,0.08,3.08-0.92,3-3c6.17,1.06,12.29,2.2,15.01,9c-1,0-2,0-3,0
		C630.83,1251.91,624.37,1253.56,622.2,1244.47z"/>
	<path class="st37" d="M955.5,776.52c8.97,4.82,19.01,6.59,28.71,8.61c5.39,1.12,10.39,4.95,16.33,3.39c1.93,5.72,9.2,1.15,11.57,6
		c21.22,3.25,40.94,12.03,61.59,16.96c13.59,3.24,26.79,8.14,40.7,10.33c3.99,0.63,7.81,3.22,12.25,2.7
		c20.74-0.46,39.32,7.58,57.98,15.01c4.78,1.9,7.39,6.47,6.35,12.19c-0.97,6.93-4.36,10.38-11.94,10.35
		c-53.01-0.2-106.02-0.05-159.03-0.17c-0.87,0-1.8-0.3-1.58,0.16c49.97,0,101.02-0.05,152.07,0.07c5.39,0.01,11-1.42,16.19,1.38
		c0.34,1.9-0.81,2.85-2.38,2.95c-2.99,0.19-6,0.05-9,0.05c-110.02,0-220.04,0-330.05,0c-1.94,0-3.88,0-5.28,0
		c-2.55-1.98-1.21-4.15-1.6-6c-2.28-2.44-2.4-5.37-1.6-8.32c5.63-20.93,10.01-42.26,19.03-62.16c1.97-2.83,4.02-5.58,5.42-8.8
		c9.97-22.92,10-22.91,34.55-22.66c3.13-0.27,6.23-0.15,9.3,0.53C921.9,764.87,940.01,766.92,955.5,776.52z"/>
	<path class="st38" d="M964.5,1139.48c6,1.58,7.1,6.36,5.81,11.11c-1.37,5.05-2.54,10.9-8.81,12.88
		c-8.84,2.16-17.84,1.17-26.77,1.19c-58.23,0.09-116.45,0.02-174.68,0.08c-7.99,0.01-15.91-0.05-23.41-3.31
		c-9.81-14.39-6.25-24.33,10.12-28.24c4.41-1.05,8.9-0.91,13.37-0.91c59.73-0.04,119.45,0.07,179.18-0.12
		C948.62,1132.14,957.08,1133.68,964.5,1139.48z"/>
	<path class="st39" d="M685.7,1192.89c0-66.26,0-132.51,0-199.29c2.87-3.34,6.95,0.3,11.56-2.09c0,5.81,0,10.19,0,14.56
		c0,56.39,0,112.78,0,169.17c0,2.99,0.09,5.99-0.02,8.98C696.97,1191.75,695.96,1192.51,685.7,1192.89z"/>
	<path class="st40" d="M1189.7,848.51c-5.93-6.53-13.55-9.59-23.66-12.17c-13.27-3.39-26.78-6.21-39.4-11.82
		c0.51-2.43-2.27-2.89-3.16-6c10.63,0,20.97,0,31.31,0c8,0,16.02,0.27,24.01-0.06c12.89-0.54,23.95,2.78,31.92,13.96
		c0,11.11,0,22.61,0,34.1c-5.79,0-11.57,0-17.36,0c-2.04,0-3.87-0.26-3.66-3C1187.34,858.51,1187.51,853.51,1189.7,848.51z"/>
	<path class="st41" d="M1132.54,1158.7c1.34-9.08-0.99-18.51,2.78-28.3c6.31-16.39,11.04-21.14,27.63-20.86
		c2.82,0.05,5.95-1.29,8.48,1.18c0.36,0.35,0.71,0.71,1.75,1.75c4.13-3.77,7.83-10.06,15.04-3.38c4.15,3.85,4.57,3.42,5.01,10.6
		c0.3,4.84,1.68,10.62,4.74,14.07c6.56,7.41,5.03,14.78,0.49,21.09c-5.3,7.37-9.67,15.85-17.23,21.25
		c-2.96,2.12-6.43,7.81-11.45,2.37C1152.07,1182.32,1143.1,1169.5,1132.54,1158.7z"/>
	<path class="st42" d="M1252.76,1076.49c-57.81,0-115.61-0.09-173.42,0.05c-21.24,0.05-34.85-22.86-24.75-41.96
		c2.77-5.24,6.86-9.18,12.01-12.08c3.13-1.13,3.7,0.3,3,3c-5.09,2.3-7.56,6.63-10.28,11.31c-1.73,2.97-1.89,5.58-1.64,8.31
		c1.14,12.77,13.19,24.35,26.2,25.34c3.48,0.26,7,0.04,10.5,0.04c52.44,0,104.89,0,156.79,0
		C1253.71,1072.47,1252.37,1074.64,1252.76,1076.49z"/>
	<path class="st43" d="M904.45,761.52c-3,0-6.01,0-9.01,0c-25.05-4.6-25.16-4.51-36.03,30c-4.49,3.16-4.87,8.56-5.76,12.99
		c-2.57,12.7-7.42,24.73-10.18,37.36c-1.37,6.28-3.36,12.43-5.08,18.64c-2.54-0.17-2.44,1.65-3.13,3.42
		c-1.43,3.67-2.45,3.5-5.88-0.42c-2.49-2.51-2.86-5.54-2.21-8.84c5.45-11.28,7.05-23.74,10.83-35.54
		c5.18-15.51,9.06-31.4,13.88-47.01c7.45-24.15,21.49-31.32,45.33-22.55c5.96,2.2,12.43,3.74,16.81,9.02
		C912.55,765.15,908.41,763.05,904.45,761.52z"/>
	<path class="st44" d="M697.27,980.14c-4.13,0-7.47,0-12.01,0c0-18.66,0-37.39,0-56.12c0-5.47-0.05-10.94,0.02-16.4
		c0.04-2.55,0.15-2.55,5.12-8.31c3.79,1.2,6.91,2.81,6.9,7.73C697.23,931.29,697.27,955.54,697.27,980.14z"/>
	<path class="st45" d="M1072.7,1050.52c-0.06-18.57,3.14-21.85,22.52-22.03c3.12,3.42,6.46,7.07,10.32,11.3c0,2.97,0,6.93,0,11.38
		c-3.34,3.09-6.98,6.46-11.07,10.25c-3.17,0-7.14,0-11.5,0C1079.78,1058.04,1076.38,1054.43,1072.7,1050.52z"/>
	<path class="st46" d="M964.5,1139.48c-4.68,1.42-7.49-3.91-12.27-3.15c-4.39,0.7-8.97,0.15-13.47,0.15c-65.95,0-131.9,0-198.03,0
		c-2.33,2.43-4.75,4.94-7.31,7.6c-0.17,5.49-1.21,11.38,2.87,16.4c1.05,0.67,1.4,1.33,1.05,2c-0.35,0.67-0.7,1-1.05,1
		c-10.16-9.26-10.69-11.11-6.01-21c-0.17-6.17,2.84-9.17,9.01-9c1,0,2,0,3,0c4.74-3.86,10.42-2.94,15.83-2.95
		c60.96-0.07,121.93-0.05,182.89-0.03c5.98,0,12.06-0.43,17.47,2.98C961.77,1134.21,963.77,1136.21,964.5,1139.48z"/>
	<path class="st47" d="M829.38,854.51c0,3,0,6,0,9c-3.22,0.52-5.32,3.22-9.18,3.19c-39.64-0.31-79.29-0.19-118.96-0.19
		c-1.96-4.2-0.46-8.18-0.97-12c0-2,0-4,0-6c2.69-0.79,4.3,0.78,5.82,2.59c8.55,9.58,19.71,3.91,29.71,5.03
		c29.49-1.34,59.11,2.48,88.48-2.5C826.1,853.25,827.8,853.55,829.38,854.51z"/>
	<path class="st48" d="M736.3,1163.48c0-1,0-2,0-3c71.79,0,143.57-0.05,215.36,0.15c3.22,0.01,8.03-2.96,9.84,2.85
		c-4.74,3.86-10.43,2.94-15.85,2.95c-63.5,0.07-127,0.07-190.51,0c-5.42-0.01-11.1,0.91-15.85-2.95
		C738.3,1163.48,737.3,1163.48,736.3,1163.48z"/>
	<path class="st49" d="M961.5,1166.48c0.23,2.94-1.81,2.99-3.85,3c-10.46,0.01-20.92,0-31.37,0c-58.27,0-116.53,0-174.8,0
		c-4.87,0-9.75,0-15.14,0c0.8-1.63,1.03-2.41,1.52-2.96c0.22-0.25,0.95-0.04,1.45-0.04c3.15-2.16,6.74-1.42,10.17-1.43
		c67.29-0.04,134.57-0.04,201.86,0C954.76,1165.05,958.35,1164.32,961.5,1166.48z"/>
	<ellipse class="st50" cx="850.4" cy="1164.98" rx="157.12" ry="2.12"/>
	<path class="st51" d="M958.5,1133.48c-72.06,0-144.13,0-216.19,0c0-1,0-2,0-3c3.15-2.14,6.74-1.42,10.17-1.43
		c64.28-0.04,128.57-0.04,192.85,0c3.43,0,7.02-0.72,10.17,1.43C957.57,1130.41,958.58,1131.4,958.5,1133.48z"/>
	<path class="st52" d="M955.5,1130.48c-71.06,0-142.13,0-213.19,0c0.04-4.13,3.21-2.94,5.37-2.96c15-0.08,29.99-0.04,44.99-0.04
		c51.48,0,102.97-0.05,154.45,0.15C949.87,1127.64,954.44,1124.64,955.5,1130.48z"/>
	<path class="st53" d="M681.73,996.1c0,64.64,0,129.28,0,195.8c-1.06-3.81-0.14-0.64-1.58-2.03c-0.34-0.33-0.87-0.74-0.87-1.12
		c-0.04-64.27-0.04-128.53-0.04-192.8C680.08,996,680.9,996.05,681.73,996.1z"/>
	<path class="st54" d="M1189.7,848.51c0,5,0,10,0,15c-1,0-2,0-3,0c-58.85,0-117.7,0-179.23,0c4.58-1.51,1.45-0.25,2.53-1.94
		c0.26-0.41,0.69-1.02,1.05-1.02c57.97-0.05,115.94-0.04,173.96-0.04C1189.88,857.83,1182.76,850.4,1189.7,848.51z"/>
	<path class="st55" d="M700.78,1186.89c0-63.64,0-127.28,0-192.73c1.06,3.74,0.1,0.57,1.57,1.93c0.35,0.33,0.88,0.74,0.88,1.11
		c0.04,63.27,0.04,126.54,0.04,189.81C702.44,1186.97,701.61,1186.93,700.78,1186.89z"/>
	<path class="st56" d="M667.24,1208.47c0-1,0-2,0-3c0-30,0-59.99,0-89.99c1.89-0.34,2.95,0.82,2.95,2.37
		c0.07,29.42,0.07,58.84,0,88.26C670.19,1207.65,669.13,1208.81,667.24,1208.47z"/>
	<path class="st57" d="M1252.76,1196.47c0,1,0,2,0,3c-1.89,0.34-2.95-0.82-2.95-2.37c-0.07-27.42-0.07-54.84,0-82.26
		c0-1.54,1.06-2.71,2.95-2.37C1252.76,1140.48,1252.76,1168.48,1252.76,1196.47z"/>
	<path class="st55" d="M700.77,976.93c0-24.64,0-49.29,0-75.68C703.9,912.07,704.45,952.85,700.77,976.93z"/>
	<path class="st58" d="M679.75,973.95c0-23.65,0-47.29,0-72.61C682.91,912.06,683.44,949.36,679.75,973.95z"/>
	<path class="st59" d="M1069.6,1025.49c0.08-2.08-0.92-3.08-3-3c7.04-5.09,7.04-5.09,14.99-5.38
		C1078.98,1022.52,1073.37,1022.77,1069.6,1025.49z"/>
	<path class="st52" d="M739.3,1133.48c-4.23,1.78-7.23,4.78-9.01,9c-0.85-0.35-2.42-0.66-2.44-1.05
		c-0.32-5.35,5.03-10.7,10.39-10.38C738.65,1131.07,738.95,1132.63,739.3,1133.48z"/>
	<path class="st18" d="M829.38,854.51c-1,0-2,0-3,0c-5.06-5.76,2.67-12.4-2.09-19.9c-5.14,18.24-18.77,18.6-33.18,18.1
		c-12.88-0.45-25.83-0.73-38.68,0.05c-19.07,1.15-31.07-7.56-38.03-24.57c0.47-6.39,8.41-10.78,4.94-18.26
		c0.36-2.68,0.97-5.33,1.3-8.02c0.38-2.77,0.94-5.47,2.68-7.77c2.93-2.42,9.27-2.18,6.48-8.96c-3.1-7.52-2.14-16.59-8.73-22.79
		c-1.72-3.88,0.87-6.41,2.82-9.15c3.73-4.99,0.63-10.07,0.13-15.09c-1.51-6.82-0.59-14.57-7.47-19.33
		c-1.03-0.91-1.71-2.02-2.04-3.35c1.19-5.73,6.76-2.81,9.78-4.94c0.34-0.84,0.68-1.69,1.54-3.81c1.8,2.83,3.31,5.2,5.09,7.99
		c4.22-8.78,9.6-14.26,17.21-17.54c7-3.01,9.12-2.47,15.19,4.35c-2.3,2.55-5.27,3.92-8.46,4.95c-1.83,0.64-3.72,1.08-5.59,1.5
		c-4.06,0.73-6.46,3.27-7.68,7.09c-1.22,6.84,1.08,11.74,8.26,12.6c7.07,0.85,6.4-5.8,8.24-9.88c2.01-5.34,0.52-11.81,5.23-16.27
		c2.86-0.22,3,1.73,3,3.77c0.01,5.89,0.44,11.82-0.12,17.66c-0.62,6.47,1.31,12,4.34,17.22c4.96-0.77,2.9-7.74,7.79-8.65
		c5.96,5.28,1.78,12.77,4.11,18.84c-0.59,3.92-3.44,7.21-2.47,11.51c1.01-4.99,4.28-9.51,2.42-15.08
		c0.67-5.62,1.71-11.35-4.05-15.27c0-1,0-2,0-3c11.09-6.57,9.27-17.75,9.99-28.04c1-5.06,1.42-10.23,2.96-15.19
		c5.5-8.8,1.42-20.3,8.06-28.77c2.08-0.08,3.08,0.92,3,3c6.89,2.9,2.16,9.96,5.79,15.44c2.71-5.87,1.67-13.63,9.22-15.44
		c0.35-0.85,0.7-1.71,1.11-2.69c4.38,1.6-0.28,6.55,3.53,8.64c3.14-3.56,6.37-7.22,9.52-10.78c-3.34-2.24-1.98-6.4-2.14-10.17
		c3.44-3.26,8.61,0.41,12.01-3c2.96,1.14,7.6-2.78,9.01,3c-1.46,2.09-4.52,0.96-6.01,3c-1.85,0.31-3.97-0.79-5.58,0.92
		c1.85,5.75,8.05,6.01,11.87,9.27c6.19,5.28,11.23,10.43,12.28,18.74c0.06,0.45,1.6,0.71,2.45,1.06c1.6-1.12,3.01-0.93,4.26,0.57
		c2.32,3.85,2.08,7.86,0.77,11.94c-9.4,19.49-12.62,40.92-17.03,61.64c-3.92,18.41-8.49,36.73-12.04,55.24
		c-0.94,4.93-2.19,9.73,0.01,14.59c-1.59,3.41-3.1,6.54-3.26,10.7C837.83,840.41,835.78,848.45,829.38,854.51z"/>
	<path class="st60" d="M868.42,677.53c-1,0-2,0-3,0c1.37-5.18,6.13-7.91,9.69-5.65c5.61,3.56,11.18,1.73,16.67,2.73
		c11.32,2.06,23.16,1.94,33.7,6.88c0,2.1,0,3.57,0,5.04c3.21,3.03,3.86,6.99,3.25,10.99c-3.02,20.08-4.17,40.5-10.71,59.96
		c-1.22,1.62-2.75,1.96-4.55,1.05c-5.13,1.55-9.6-1.49-13.45-3.42c-6.49-3.26-12.82-5.67-20.07-5.58
		c-11.61,0.14-21.25,7.53-23.46,18.67c-2.63,13.19-6.31,26.06-10.96,38.66c-1.77,4.8-0.16,10.52-4.11,14.67
		c-5.3-1.43-7.52-5.82-5.79-10.04c5.32-13,4.12-27.85,11.77-40.1c0.22-0.36,0.05-0.98,0.02-1.48c-0.54-9.72-0.74-19.66,3.82-28.38
		c4.44-8.5,3.78-18.11,7.65-26.85c2.23-5.04,1.64-12,3.34-18.06c1.07-3.8,2.68-5.98,6.22-7.07c7.59-7.49,16.53,1.12,24.42-2.08
		c0.73-0.65,1.49-1.29,2.16-1.95c0.39-2.66-1.65-1.17-2.67-1.46c-1.32,0.15-2.56,0.2-3.85,0.22
		C880.96,684.4,873.66,684,868.42,677.53z"/>
	<path class="st61" d="M916.46,758.52c1.37-6.46-2-13.05,2.62-19.81c3.16-4.62-2.51-12.58,3.36-17.83c0.25-0.22,0.11-0.97,0.02-1.45
		c-2.26-11.27,4.62-21.7,3.01-32.91c4.05,0.32,2.29-3.45,3.63-5.14c3.95-1.88,7.37-1.23,10.12,2.38c1.26,0.7,1.36,1.35,0.43,2.12
		c-0.76,0.63-2.1,1.49-2.02,2.07c1.69,11.26-4.52,21.88-2.91,32.9c0.8,5.46-3.93,8.51-3.48,13.68c0.39,4.51,1.28,9.16-2.38,13.91
		c-2.16,2.8-0.39,8.62-0.39,13.07C923.27,765.3,919.31,764.15,916.46,758.52z"/>
	<path class="st62" d="M916.46,758.52c3.54,2.84,7.67,3.36,12.01,3c6.76,4.01,13.78,4.43,21,1.38c0.17-0.07,0.02-0.9,0.02-1.38
		c2-1.56,4-1.56,6.01,0c1,2,2,4,3,6c-1.45-0.2-2.98,1.44-2.58,1.66c5.07,2.88-1.15,4.91-0.42,7.34
		c-13.32-0.31-25.23-6.39-37.74-9.83c-3.67-1.01-7.25-1.65-10.96-2.2c-1.56-0.23-2.7-1.09-2.35-2.97c2.96-1.14,7.6,2.78,9.01-3
		C914.46,758.52,915.46,758.52,916.46,758.52z"/>
	<path class="st63" d="M970.51,716.53c-0.58,5.98-6.16,0.75-7.21,2.75c2.8,2.8,5.72,5.71,8.61,8.6c-4.36,4.71-5.26,8.22-4.41,11.16
		c-3.14,3.08-8.33-1.28-9,4.48c-2,1.58-4,1.58-6.01,0c-1.26-5.14-6.98-6.72-9.37-12.06c2.23-3.77,4.83-7.67,10-8.92
		c3.78-0.91,1.92-3.89,2.37-6.02c-0.76-0.67-1.07-1.39-0.93-2.16c0.15-0.8,0.33-1.19,0.55-1.2c3.75-1.7,7.67-1.14,11.58-0.83
		C968.77,713,969.42,714.96,970.51,716.53z"/>
	<path class="st64" d="M952.49,743.52c2,0,4,0,6.01,0c1.83-0.46,2.56,1.07,3.51,2.04c2.94,3.02,7.3,5.48,5.46,10.78
		c-2.05,5.89-7.15,5.34-11.97,5.18c-2,0-4,0-6.01,0c-4.19-1.5-6.45-5.09-9.83-8.86C943.41,748.63,945.47,742.99,952.49,743.52z"/>
	<path class="st65" d="M949.49,704.53c-0.34-1.8,0.77-2.8,2.23-2.94c3.84-0.37,5.81-2.59,6.78-6.06c0.54-2.42,2-4.03,4.31-4.9
		c3.67-0.11,8.11-1.41,7.71,4.9c0.51,4.81-5.09,1.56-5.97,4.56c2.99,1.66,8.02,1.72,5.97,7.44c-0.96,0.94-2.1,1.55-3.44,1.77
		c-4.54-0.26-9.09-0.45-13.66-0.58C951.27,708.11,950.54,706.17,949.49,704.53z"/>
	<path class="st66" d="M970.51,695.53c-1.41-5.78-6.05-1.86-9.01-3c-6.9-0.16-8.51-3.63-6.04-9.65c3.92-1.73,7.9-2.68,12.08-0.86
		c6.81,2.38,9.3,6.66,5.98,13.51C972.51,695.53,971.51,695.53,970.51,695.53z"/>
	<path class="st67" d="M955.5,683.53c-0.48,4.65,1.26,7.82,6.01,9c0.08,2.08-0.92,3.08-3,3c-3.49-1-6.32-3.01-5.86-6.86
		c0.33-2.76-2.9-7.18,2.85-8.14c1.04,0.67,1.38,1.33,1.04,2C956.19,683.2,955.85,683.53,955.5,683.53z"/>
	<path class="st68" d="M955.5,683.53c0-1,0-2,0-3c3.23-1.27,5.89-4.5,9.94-2.99c1.34,0.5,2.41,1.28,2.08,2.99
		c1.04,0.67,1.38,1.33,1.04,2c-0.34,0.67-0.69,1-1.04,1C963.5,683.53,959.5,683.53,955.5,683.53z"/>
	<path class="st69" d="M967.51,683.53c0-1,0-2,0-3c10.26,2.5,11.81,6.38,6.01,15C973.75,690.41,974.15,685.21,967.51,683.53z"/>
	<path class="st70" d="M949.49,704.53c2.08-0.08,3.08,0.92,3,3c2,1.5,3.23,3.39,3,6c0,1,0,2,0,3c-3.28,0.09-4.48-1.15-6.71-4.21
		C945.72,708.1,950,706.99,949.49,704.53z"/>
	<path class="st71" d="M886.43,647.53c0.32-0.82,0.62-2.35,0.97-2.36c4.56-0.16,9.13-0.11,13.91-0.11
		c-1.23,3.86-3.97,1.93-5.87,2.47C892.44,647.53,889.44,647.53,886.43,647.53z"/>
	<path class="st72" d="M844.4,647.53c0.26-4.49,3.73-2.55,6.01-3c3,0,6.01,0,9.01,0c0.19,2.66-1.54,3.01-3.59,3
		C852.01,647.53,848.21,647.53,844.4,647.53z"/>
	<path class="st73" d="M967.51,707.53c1,0,2,0,3,0c4.12,0.73,3.66,2.94,1.87,5.65c-0.7,1.06-1.25,2.23-1.87,3.34
		c-2.08,0.08-3.08-0.92-3-3C965.67,711.53,965.68,709.53,967.51,707.53z"/>
	<path class="st74" d="M727.29,755.52c-3.27,0.73-5.27,2.73-6.01,6c3.41,10.78,13.51,20.95,3,33c0,3,0,6,0,9
		c-3.67,1.27-4.68-1.59-6.05-3.88c-1.78-3.81-1.51-8.72-5.96-11.12c-1-2-2-4-3-6c7.17-8.38-0.57-16.24-0.86-24.37
		c2.24-8.74-2.98-18.56,3.86-26.63c0-1,0-2,0-3c-6.66-3.87-6.04-9.19-3-15c0.45-2.27-1.49-5.74,3-6c3.42,2.19,1,6.33,3,9
		c4.78,7.49,5.49,16.24,7.64,24.55C721.63,746.72,728.4,749.94,727.29,755.52z"/>
	<path class="st75" d="M799.36,656.53c0,5.8-0.07,11.6,0.02,17.41c0.08,5.23-1.32,9.68-6.02,12.59c-2.78,0.56-2.62-4.77-6.01-3
		c-4.99-0.51-3.56-5.89-2.79-6.56c4.5-3.93,1.65-9.31,3.37-13.57c1.81-0.64,3.54-1.25,4.99-1.77c1.3-3.25-0.54-4.89-3.16-6.86
		C793.68,653.98,797.18,651.02,799.36,656.53z"/>
	<path class="st76" d="M712.28,731.52c0.15,8.75-1.34,17.66,3.19,25.25c-2.33,2.57-4.39,1.4-6.19,1.74c-1,1.45-2,1.45-3,0
		c-4.01-0.02-2.89-3.07-2.97-5.24c-0.21-5.63,1.19-11.53-4.36-16.28C703.95,734.36,707.27,731.04,712.28,731.52z"/>
	<path class="st75" d="M817.37,659.53c-0.45,3.68-4.43,4.73-5.81,7.73c7.49,2.95-3.1,9.05,2.22,12.35
		c-3.22,4.08-7.15-5.08-10.27,0.6c-0.4-0.87-1.19-1.75-1.09-2.51c0.61-4.58-2.08-9.81,2.67-13.74c0.37-0.3-3.18-2.02-2.74-4.43
		C807.36,655.68,812.37,655.68,817.37,659.53z"/>
	<path class="st77" d="M790.35,701.53c-1.33,3.8,2.63,5.85,3.01,9.04c-1.04,4.68-7.86,7.88-3.42,13.86
		c-2.68,4.73-7.23,4.15-11.6,4.09c0-1.49-0.64-3.67,0.1-4.37c4.98-4.64,4.79-9.93,2.99-15.81c-0.57-1.85-0.03-4.05,2.91-3.82
		C785.66,702.15,787.14,700.12,790.35,701.53z"/>
	<path class="st78" d="M706.27,758.52c1,0,2,0,3,0c-0.25,3.87,3.17,2.46,5.05,3.5c2.04,2.96,1.38,6.58,0.74,9.57
		c-0.87,4.05,4.19,5.3,3.15,9.16c-2.22,3.68-5.96,1.02-8.94,1.77c-1.08-3.49-6.39-6.97,0.3-10.59c-2.21-2-4.31-3.89-6.47-5.84
		C706.08,764.16,706.62,761.52,706.27,758.52z"/>
	<path class="st79" d="M790.35,701.53c-2,1-4,2-6.01,3c-5.57-6.84,0.4-12.44,2.02-18.5c0.23-0.86,0.65-1.67,0.98-2.5
		c0.34-1.81-0.84-3.88,1.53-5.98c1.53,3.08,3,6.03,4.47,8.98c0,3.8-0.01,7.61,0,11.41C793.36,699.99,793.01,701.72,790.35,701.53z"
		/>
	<path class="st80" d="M709.28,713.53c0.08,5.18-0.94,10.59,3,15c-3.82-0.52-7.83,1.01-11.61-0.79c0.85-2.38,3.89-4.65-0.24-6.55
		c0.94-2.91,4.74-0.54,5.84-3.16c-2.09-3.01-5.63-0.44-9.66-2.94c3.18-0.92,5.81-1.69,8.45-2.46
		C706.01,709.71,706.4,714.18,709.28,713.53z"/>
	<path class="st81" d="M712.28,788.52c3.07,0.45,3.94-4.99,7.93-2.68c2.45,2.65-3.01,3.12-1.92,5.46c0.97,2.08,2,4.14,3,6.21
		c-2.77,2.49-2.2,7.2-6.01,9c-4.49-0.26-2.55-3.73-3-6c-2.68-3.73-1.4-7.97-1.41-12C710.87,786.57,710.91,789.98,712.28,788.52z"/>
	<path class="st82" d="M715.28,716.53c-5.79-1.41-1.86-6.05-3-9c4.34-0.36,8.47,0.16,12.01,3c-0.02,4.01-3.07,2.82-5.24,2.97
		C717.02,713.64,715.06,713.68,715.28,716.53z"/>
	<path class="st83" d="M688.26,692.53c3,0,6.01,0,9.01,0c3.78,0,7.55,0,13.55,0C699.41,696.63,694.7,696.44,688.26,692.53z"/>
	<path class="st84" d="M841.39,641.53c0.19,2.6-1.48,3.01-3.53,3c-2.83-0.01-5.65,0-8.48,0c-1.84-0.3-3.94,0.77-6.19-1.56
		c4.07-2.74,8.36-0.79,12.2-1.44C837.39,641.53,839.39,641.53,841.39,641.53z"/>
	<path class="st85" d="M736.3,683.53c-2.8,0-5.6,0-10.55,0c10.44-3.78,10.44-3.78,16.55,0C740.3,683.53,738.3,683.53,736.3,683.53z"
		/>
	<path class="st86" d="M1375.68,787.12c-10.45,10.22-12.58,10.27-26.57,0.24c0-3.68,0-7.55,0-11.98c2.61-5.43,8.76-7.41,13.73-10.88
		C1375.04,767.42,1377.08,776.23,1375.68,787.12z"/>
	<path class="st87" d="M687.85,513.64c1.81,7.1-0.53,12.91-4.6,16.48c-1.91,1.68-5.8,4.22-10.42,3.68
		c-9.74-1.14-14.22-6.55-14.44-19.93c3.18-3.18,6.36-6.36,9.62-9.61c3.21-1.42,6.61-0.68,9.99-0.46
		C681.19,506.99,684.37,510.17,687.85,513.64z"/>
	<path class="st5" d="M715.28,824.51c4.93,9.02,11.39,16.8,19.43,23.69c26.04,0,52.41,0,78.24,0c7.23-4.34,3.08-11.2,4.69-16.19
		c3.22-5.87,8.49-4.42,13.51-4.42c3.26,7.28,1.02,14.07-2.85,20.17c-1.48,2.33-1.96,4.3-1.93,6.74c0,1.49,0,2.97,0,4.61
		c-0.29,0.26-0.62,0.64-1.03,0.9c-0.38,0.24-0.85,0.47-1.28,0.47c-30.26,0.02-60.51,0.02-90.77,0.02c-9.05-6.18-21.24-1.91-30.03-9
		c0.08-2.08-0.92-3.08-3-3c-0.36-8.5,0.85-17.16-1.15-26.37c1.38-0.7,4.52-2.27,7.18-3.61c4.43,0.12,1.74,4.48,3.95,5.34
		c1.79,0.69,2.11-0.89,2.02-2.35C715.33,820.46,716.03,821.77,715.28,824.51z"/>
	<path class="st88" d="M715.28,824.51c0.08-2.08-0.92-3.08-3-3c-0.49-4.81,5.07-1.58,5.98-4.49c1.89-3.66-3.43-4.43-2.98-7.51
		c1.33-1.77,2.58-3.94,5.25-3.19c1.58,0.44,1.34,1.92,0.76,3.19c0.38,3.53-1.4,7.63,2.69,10.19
		C722.13,823.21,719.5,825.3,715.28,824.51z"/>
	<path class="st89" d="M721.29,809.52c-0.23-1.63-0.12-3.69-2.74-1.8c-1,0.72-2.17,1.21-3.26,1.8c0-1,0-2,0-3
		c-0.48-4.65,1.26-7.82,6.01-9c0.45,2.27-1.49,5.74,3,6C723.84,805.79,725.78,809.26,721.29,809.52z"/>
	<path class="st90" d="M556.14,1265.47c0.45-2.27-1.49-5.74,3-6c0.53,3.21,2.77,5.19,5.55,5.92c13.75,3.6,27.52,8,41.96,5.95
		c9.16-1.3,18.08-4.21,27.21-5.72c4.36-0.72,5.04-6,9.35-6.15c0,2.49,0,4.99,0,7.88c-5.34,2.33-10.76,4.92-16.34,7.08
		c-15.7,6.08-32.11,1.77-48.14,3.04c-4.48-5.31-12.08-1.49-17.08-5.88C559.52,1269.7,556.71,1268.69,556.14,1265.47z"/>
	<path class="st91" d="M1144.66,1280.46c2.08-0.08,3.08,0.92,3,3c-4.21,7.7-11.09,10.08-19.34,12.46
		c-11.17,3.21-22.19,2.99-33.14,2.24c-11.01-0.76-22.09-3.03-32.08-8.64c-3.69-2.08-6.24-4.47-5.52-9.05
		c7.43-0.57,12.13,7.49,19.77,6.25c2.25,3.78,5.98,2.71,9.3,2.72c12.92,0.06,25.89,0.67,38.75-0.23
		C1132.42,1288.71,1140.92,1289.16,1144.66,1280.46z"/>
	<path class="st92" d="M1198.71,1304.46c7.63-5.5,16.57-8.47,23.75-9.13c5.6-0.51,11.65,2.52,16.88-2.64
		c1.94-1.92,4.15,2.35,6.06,2.55c5.91,0.61,11.98,0.72,17.89,0.11c9.36-0.97,16.04,4.54,23.4,8.54c2.72,1.48,2.13,4.15,2.1,6.58
		c-10.47,5.54-21.42,9.2-33.47,9.03c-10.41-0.15-20.83,0.04-31.25-0.05c-8.17-0.07-15.02-4.35-22.2-7.43
		C1198.79,1310.68,1198.25,1307.62,1198.71,1304.46z"/>
	<path class="st92" d="M622.2,1244.47c-0.19,2.6,1.5,3.19,3.53,2.97c4.25-0.46,8.03,0.59,11.48,3.03c0.71,4.54-1.56,8.36-5.5,8.73
		c-6.15,0.58-11.41,4.39-18.02,3.52c-4.42-0.58-9.66-2.11-13.78,2.31c-1.33,1.42-3.28-0.49-5.02-1.12c-7.1-2.55-11.65-1.96-19,1.32
		c-3.57-1.94-5.29-7.33-10.74-5.77c0.72-2.9-3.93-3.19-3.02-6.38c3.08-7.23,10.82-6.47,16.54-8.27c6.14-1.93,13.45,1.27,19.55-3.24
		c0.96-0.71,3.54-0.74,4.29,0C608.44,1247.47,615.74,1243.04,622.2,1244.47z"/>
	<path class="st92" d="M1066.59,1274.47c1.43-6.22,7.48-6.82,11.85-8.71c3.33-1.44,7.8-0.3,11.76-0.28c3.39,0.01,5.15-3.7,9.17-3.16
		c14.36,1.92,28.86,2.98,42.29,9.15c0,1.49,0,2.99,0,4.49c-8.74,5.11-17.65,8.79-28.32,7.79c-4.5-0.42-8.6,2.95-14.17,0.17
		c-4.39-2.19-10.86,0.24-16.21-0.62C1076.72,1282.28,1071.26,1278.88,1066.59,1274.47z"/>
	<path class="st93" d="M964.5,830.51c5.04-8.36,13.3-13.73,19.48-21.12c2.66,4.39,6.85,2.87,10.54,3.12c0.7,14.12,1.82,28.27-3,42
		c-2.47,0-4.94,0-7.42,0c-3.17-2.02-0.52-5.54-2.24-8.25c-3.2-2.55-9.31,2.51-10.29-3.98c-4.39,0.82-5.64,3.82-8.12,5.72
		c-2.6-1.28-5.31-2.61-7.97-3.91c0-1.61,0-3.09,0-4.58c0.13-0.62,0.26-1.25,0.38-1.88C957.55,833.81,960.93,832.05,964.5,830.51z"/>
	<path class="st94" d="M955.5,839.51c-1.47,0-3.48-0.62-4.32,0.1c-5.22,4.51-9.65,3.74-15.45,0.29c-2.62-1.56-6.08-4.79-10.26-3.39
		c-4-11.85,5.43-9.73,12.92-11.37c-2.66-7.57-7.33-16.48,1.41-22.34c7.77-5.2,16.67-6.34,24.7,0.71c-0.08,2.08,0.92,3.08,3,3
		c-0.11,6.34-2.77,8.85-9.01,6c-2.81,0-5.62,0-10.88,0c4.86,4.03,6.79,7.62,10.88,9C962.04,828.27,959.68,834.04,955.5,839.51z"/>
	<path class="st95" d="M898.45,824.51c-3.18-0.21-5.13,5.98-9.48,1.34c-2.16-2.31-7.5-1.88-5.54-7.33
		c-3.13-10.78-0.55-21.86-1.7-32.74c0.75-4.64,3.39-4.52,6.71-2.66c3.74,4.18,4.03,10.38,8.32,14.26c0.86,1.7,1.02,3.57,1.44,6.59
		c1.74-5.34,5.24-7.69,9.24-9.45c4.56,0.4,1.7-4.68,4.38-5.71c1.09,3.71,7.38,0.65,7.63,5.71
		C919.39,809.36,908.71,816.79,898.45,824.51z"/>
	<path class="st96" d="M964.5,803.52c-3.15,0.51-5.22-1.56-7.81-2.73c-4.56-2.07-11.06,1.01-19.14,7.16
		c-0.02,0.49-0.07,0.97-0.07,1.46c-0.01,2.48,0,4.96,0,8.04c2.56,2.43,5.44,5.14,8.29,7.88c0.32,0.31,0.48,0.78,0.69,1.14
		c0.73,3.13-1.97,4.23-3.92,6.59c-3.7-1.84-7.58-3.76-11.33-5.62c-4.08,1.84-6.46,4.51-5.74,9.08c-2.28-0.45-5.75,1.49-6.01-3
		c0.84-14.58,7.11-26.45,18.02-36c0-0.5,0-1,0-1.49c7.74,2.17,15.68,1.3,23.55,1.51c3.24,0.08,4.72,2.38,6.05,4.92
		c0.93,1.77-0.8,3.04-1.15,1.08C965.92,803.44,965,803.52,964.5,803.52z"/>
	<path class="st97" d="M937.48,797.52c-6.01,12-12.01,24-18.02,36c-1.41,0-2.86-0.19-4.23,0.03c-5.34,0.88-4.85-2.71-4.77-6.03
		c0.05-13.25,6.11-23.77,15.01-33C929.81,794.16,933.94,794.68,937.48,797.52z"/>
	<path class="st98" d="M907.45,794.52c-4.6,5.91-7.17,13.38-14.5,18.24c-1.56-5.76,4.44-10.02,2.49-15.24
		c-3.8-3.1-2.87-8.56-6.01-12c-2-1-4-2-6.01-3c-1,1.45-2,1.45-3,0c-0.84-0.34-2.2-0.49-2.42-1.06c-0.45-1.19-0.3-2.61-0.38-3.79
		c6.17-3.34,11.73-0.5,16.19,2.18c4.68,2.81,9.55,6.99,7.95,13.12C903.69,796.34,906.67,787.2,907.45,794.52z"/>
	<path class="st99" d="M925.47,794.52c-5,11-10.01,22-15.01,33c-4.06,0.32-2.27-3.47-3.59-5.08c-3.87-0.7-4.08,4.42-7.38,4.63
		c-0.35-0.85-0.7-1.7-1.04-2.55c6.44-10.39,16.21-18.46,21.02-30c1.09-0.59,2.27-1.08,3.26-1.8
		C925.35,790.82,925.24,792.88,925.47,794.52z"/>
	<path class="st100" d="M859.41,791.52c-0.34-14.63,5.14-26.6,16.73-35.99c6.97-0.38,12.89,3.59,19.3,5.99
		c0.22,2.88-2.55,3.85-3.65,2.85c-4.62-4.21-10.03-2.47-15.16-2.85c-7.9,3.69-8.57,11.96-10.9,18.7
		C864.22,784.58,863.65,788.89,859.41,791.52z"/>
	<path class="st101" d="M991.53,854.51c0-7.95,0-15.9,0-23.86c0-6.21,5.08-11.58,3-18.14c1.87-0.34,2.93,0.81,2.95,2.33
		c0.11,10.88,0.06,21.76,0.05,32.64C997.53,851.52,995.04,853.46,991.53,854.51z"/>
	<path class="st102" d="M880.43,782.52c1,0,2,0,3,0c0,12,0,24,0,36c-3.92,0-2.95-2.97-2.97-5.13c-0.08-7.73-0.03-15.47-0.03-23.2
		C875.42,787.63,880.47,785.07,880.43,782.52z"/>
	<path class="st103" d="M955.5,839.51c0.03-6.16,5.11-11.48,3-18c2.85-0.22,2.88,1.73,3.03,3.76c0.16,2.17-1.04,5.22,2.97,5.24
		C962.73,834.74,959.72,837.74,955.5,839.51z"/>
	<path class="st103" d="M958.5,812.52c4.66,0.48,7.83-1.26,9.01-6c2.87-0.22,3.76,2.24,2.84,3.68c-1.97,3.08-4.82,5.6-7.48,8.54
		C961.48,816.14,958.35,815.53,958.5,812.52z"/>
	<path class="st104" d="M1168.69,1169.48c-3.28,0.41-4.45,3.53-7.61,5.86c-3.78-5.09-11.67-3.57-16.41-11.35c0-4.9,0-11.7,0-18.5
		c1.76-1.62,0.54-4.73,3-6c-0.52-8.55,7.82-10.09,11.78-17.26c5.69,8.19,14.11,9.54,19.18,13.2c5.26,7.88-1.51,13.07-0.94,19.06
		c0.06,5.94-3.54,10.01-7.21,14.04C1169.89,1168.85,1169.29,1169.16,1168.69,1169.48z"/>
	<path class="st105" d="M1180.7,1154.48c5.29-6.12,1.47-14.09,3.87-20.88c12.09,5.39,14.53,12.13,8.08,22.08
		c-1.32,2.04-3.32,3.65-5.07,5.4c-5.17,5.19-10.36,10.35-14.8,14.78c-5.52-1.2-3.66-4.25-4.1-6.39
		C1173,1164.72,1175.55,1158.56,1180.7,1154.48z"/>
	<path class="st106" d="M1147.67,1139.48c-0.45,2.27,1.49,5.74-3,6c-0.34-0.85-0.69-1.69-1.44-3.54
		c-3.59,6.18,0.36,12.77-2.68,18.68c-7.79-6.16-5.43-13.72-3.52-20.88c1.65-6.18,4.04-12.1,7.51-17.68
		c5.27-8.47,6.32-8.9,15.05-2.16c-5.8,1.77-9.57,6.28-13.21,10.59C1144.01,1133.31,1142.29,1137.21,1147.67,1139.48z"/>
	<path class="st107" d="M1176.44,1131.36c-1.98-3.8-4.54-3.84-6.88-4.45c-1.99-2.12-0.13-4.72-1.02-6.75
		c2.11-2.62,5.08-0.77,6.99-1.82c2.49-1.37,4.13-4.35,6.65-5.57c1.9-0.92,4.62-0.18,6.8-0.18c0.89,3.25,1.36,4.93-2.21,6.07
		C1181.56,1120.31,1178.19,1124.39,1176.44,1131.36z"/>
	<path class="st108" d="M1180.7,1154.48c-2.82,5.94-5.18,12.26-12.01,15c0-0.93-0.38-2.13,0.06-2.76c2.88-4.15,5.94-8.17,8.95-12.24
		C1178.69,1154.48,1179.7,1154.48,1180.7,1154.48z"/>
	<path class="st18" d="M703.27,851.51c7.87,0.15,15.72-0.52,23.38,2.8c3.3,1.43,5.7,2.75,6.65,6.2c-9.71,0-19.41,0-28.77,0
		C702.46,857.28,703.62,854.31,703.27,851.51z"/>
	<path class="st109" d="M828.27,681.75c-4.75-13.02,0.24-19.17,8.34-21.66c8.65-2.66,13.93,4.11,19.56,9.71c0,3.64,0,7.52,0,11.86
		c-2.77,5.4-8.73,7.6-13.82,10.87C832.01,687.75,832.01,687.75,828.27,681.75c9.16,0.24,16.01,1.63,18.75-4.15
		c0.69-4.13-1.13-6.99-5.29-6.79C831.09,671.34,836.89,682.07,828.27,681.75z"/>
	<path class="st110" d="M760.32,719.53c0,2.46,0,4.91,0,7.59c-2.41,2.21-4.93,4.54-7.52,6.92c-1.2-0.71-2.61-2.02-4.24-2.44
		c-9.42-2.48-13.03-7.54-11.69-17.03c0.06-0.45,1.58-0.7,2.43-1.04c7.19-9.3,6.95,2.79,10.66,3.77c5.02-5.02-3.95-8.19-1.66-12.77
		c2,0,4,0,6.01,0C762.65,705.2,763.08,706.29,760.32,719.53z"/>
	<path class="st111" d="M796.64,710.58c3.39,0,5.36,0,7.31,0c0.49,0.86,1.27,1.62,1.36,2.47c0.34,2.98,0.32,5.95-2.74,7.78
		c1.21,1.92,2.71,3.37,3,6.1c0.59,5.51-6.31,6.15-6.25,11.22c0.81,1.31,1.72,2.8,2.63,4.28c-6.56,0.45-6.56,0.45-11.9-3.54
		c2.41-1.74,4.72-3.41,7.45-5.37c-6.18-2.46-0.64-7.08-3.69-10.54C792.32,721.29,797.32,715.9,796.64,710.58z"/>
	<path class="st112" d="M724.29,794.52c-1.72-3.39,3.84-6.15,1.75-8.38c-3.61-3.86-0.86-5.77,1.27-8.56
		c-1.81-0.61-3.51-1.18-6.02-2.03c0-4.47,0-9.25,0-14.03c2.45,0,4.89,0,7.48,0c2.82,3.91,2.54,7.57-1.52,10.46
		c2.25,2.25,3.98,3.97,5.71,5.7c1.2,5.27-1.41,11.19,3.47,16.83C731.89,794.52,728.09,794.52,724.29,794.52z"/>
	<path class="st113" d="M748.31,704.53c0.7,5.68,5.68,1.57,8.11,3.59c3.75,6.51-4.37,10.92-1.91,17.21c-3.22,0-5.14,0-7.17,0
		c-3.84-6.91-3.84-6.91-2.35-13.78c-2.86-2.14-3.19,3.28-5.7,1.98C739.93,706.81,741.59,705.16,748.31,704.53z"/>
	<path class="st114" d="M895.44,686.53c0,0.48-0.21,1.16,0.04,1.41c0.98,1.03,2.1,1.94,3.56,3.24c-10.9,4.73-20.46-4.34-30.62-1.65
		c0-4,0-8,0-12c4.64-1.42,7.41,3.97,12.16,3.14c3.84-0.68,7.9-0.14,11.87-0.14c-2.06,9.49-11.24,0.92-15.07,5.92
		c-1.96,0.4,1.17,1.67,0.06,0.01c-0.41-0.61-0.08-1.05,1.01-1.04C884.12,685.47,889.94,683.6,895.44,686.53z"/>
	<path class="st115" d="M721.29,740.52c-6.37-0.85-0.21-8.63-5.56-10.05c4.05-4.97-1.38-6.54-3.33-9.32
		c0.73-1.7,3.32-2.21,2.88-4.63c4.43-0.08,9.05-0.65,11.66,4.38c-0.74,2.17-5.25,3.83-1.69,6.98c3.22,2.85,1.59,6.39,2.04,9.64
		C725.66,739.26,723.92,740.79,721.29,740.52z"/>
	<path class="st116" d="M784.34,746.52c0.4,2.64,3.84,4.75,0.25,8.18c-1.49,1.42-0.53,5.72-0.18,8.65c0.46,3.79-2.88,4.82-4.5,7.12
		c-1.62-3.1-5.91-2.42-7.38-4.07c-0.95-6.1,4.2-3.83,5.54-6.12c-0.83-2.07-3.9-3.12-2.7-6.18c0.67-3.11,6.53,0.27,5.96-4.58
		C780.45,746.63,781.57,745.75,784.34,746.52z"/>
	<path class="st117" d="M721.29,740.52c0.26-4.49,3.73-2.55,6.01-3c-1.01,5.22,4.59,9,3.09,14.45c-0.52,1.9-0.44,3.74-3.09,3.55
		c-0.7-5.65-5.61-1.63-7.97-3.46C715.94,747.53,719.88,744.24,721.29,740.52z"/>
	<path class="st118" d="M784.34,746.52c-2.08-0.08-3.08,0.92-3,3c-1.84-0.38-4,0.93-6.28-1.94c2.54-1.19,5.2-2.44,8.44-3.96
		c-6.37-4.17-5-8.34-5.16-12.09c2.49,0,4.98,0,7.53,0c2.84,3.02-4.47,5.56-0.72,8.13C789.85,742.89,783.06,744.1,784.34,746.52z"/>
	<path class="st119" d="M811.19,684.07c0.6,5.28-2.74,6.27-4.35,8.44c-2.41-2.41-4.8-4.79-7.71-7.7
		C803.23,682.58,807.06,683.61,811.19,684.07z"/>
	<path class="st120" d="M760.32,719.53c0-4.71,0-9.42,0-13.49c-2.19-2.3-4.21-1.19-6.01-1.51c1.41-5.78,6.05-1.86,9.01-3
		c0,4.79,0,9.58,0,14.37C763.33,717.94,763.03,719.73,760.32,719.53z"/>
	<path class="st121" d="M808.78,707.25c-3.66,0-5.95,0-8.23,0c-0.42-0.86-0.98-1.63-1.16-2.48c-0.3-1.43,1.3-3.29,1.62-2.8
		c2.29,3.48,4.22,0.35,6.34,0.24C808.97,702.12,808.1,704.6,808.78,707.25z"/>
	<path class="st122" d="M923.52,696.24c-8.37-2.37-16.43,3.17-22.19-6.09C909.23,688.91,916.23,688.55,923.52,696.24z"/>
	<path class="st123" d="M895.44,686.53c-6.95-0.39-14.04,0.85-20.88-3c4.72,0,9.44,0,14.16,0c2.04,0,3.94-0.19,3.73-3c1,0,2,0,3,0
		C897.2,682.53,897.2,684.53,895.44,686.53z"/>
	<path class="st124" d="M895.44,686.53c0-2,0-4,0-6c4.19-0.58,6.97,1.15,8.58,5.03C901.2,687.33,898.24,686.19,895.44,686.53z"/>
	<path class="st125" d="M965.24,731.75c-2.42,2.59-4.06,4.34-5.43,5.8c-4.62-0.05-6.31-4.79-10-3.78c-1.03-4.19,1.24-5.9,3.18-7.09
		C958.53,723.26,961.9,726.44,965.24,731.75z"/>
	<path class="st74" d="M967.51,707.53c0,2,0,4,0,6c-4,3.24-8.01,3.24-12.01,0c-4.49-0.26-2.55-3.73-3-6
		C957.5,703.67,962.5,703.67,967.51,707.53z"/>
	<path class="st126" d="M946.17,752.37c2.41-5.46,6.6-7.34,10.84-5.5c4.13,1.78,5.95,5.99,3.97,10.91
		C955.1,759.18,949.56,760.01,946.17,752.37z"/>
	<path class="st127" d="M1231.74,1301.46c3.22-0.45,6.24-0.06,9.67-1.72c6.86-3.32,14.23-0.69,19.07,4.93
		c2.2,2.55,1.43,5.28,0.27,9.07c-4.29-1.35-8.28-2.85-12.04-5.62c-1.99-1.47-4.72-1.43-4.96,2.34
		C1239.95,1307.19,1231.46,1310.17,1231.74,1301.46z"/>
	<path class="st128" d="M1231.74,1301.46c1.6,3.05,1.98,8.98,7.36,3.15c3.19,0.65-0.17,6.48,4.65,5.85
		c-0.44,2.42,2.15,2.93,2.86,4.6c-4.71,0.25-16.7-6.25-23.34-12.69C1225.95,1300.64,1228.93,1301.81,1231.74,1301.46z"/>
	<path class="st129" d="M608.62,1247.47c2.63,3.46,7.93,5.35,7.48,11.91c-6.83,0.39-10.69-6.55-17.02-5.84
		c-0.45-1.51-2.31,2.85-0.84,1.5c0.02-0.01,0.68,0.64,1,1.01c0.61,0.68,1.19,1.39,1.78,2.08c-2.85,2.85-11.07-1.02-18.33-8.89
		c3.88-3.3,8.41-1.36,12.44-1.68C599.55,1247.19,604.03,1247.47,608.62,1247.47z"/>
	<path class="st130" d="M1120.19,1281.72c-4.03-4.75-8.59-5.02-11.78-7.24c-4.53-0.07-1.12,5.79-6.14,6.05
		c-4.4-3.11-9.52-6.74-17.03-12.06c10.6,0,18.41-0.13,26.21,0.04C1118.83,1268.66,1119.65,1269.85,1120.19,1281.72z"/>
	<path class="st131" d="M978.69,839.18c-3.91-8.63-1.14-11.76,3.16-15.21C982.7,829.2,983.61,833.66,978.69,839.18z"/>
	<path class="st132" d="M889.44,785.52c1.79,0,3.58,0,6.01,0c0,4.56,0,8.28,0,12c-3.28,0.09-4.48-1.15-6.71-4.21
		C885.67,789.09,889.95,787.99,889.44,785.52z"/>
	<path class="st133" d="M832.39,686.53c1.67-5.16-6.55-8.97-1.98-14.52c3.89-4.73,8.34-8.14,15.53-5.96
		c10.33,9.92,10.33,9.92-0.29,20.49C841.23,686.53,836.81,686.53,832.39,686.53z"/>
</g>
</svg>
