<svg width="135" height="135" viewBox="0 0 135 135" fill="none" xmlns="http://www.w3.org/2000/svg">
<rect width="135" height="135" rx="67.5" fill="white" fill-opacity="0.05"/>
<rect x="0.5" y="0.5" width="134" height="134" rx="67" stroke="#072243" stroke-opacity="0.05"/>
<path d="M46.768 70.5713C46.3436 70.5713 46 70.2277 46 69.8033V61.9456C46 54.7478 51.8555 48.8918 59.0537 48.8918C66.2515 48.8918 72.107 54.7478 72.107 61.9456V67.6789C72.107 68.1034 71.7634 68.447 71.3394 68.447C70.9154 68.447 70.5714 68.1034 70.5714 67.6789V61.9456C70.5714 55.5945 65.4044 50.4279 59.0537 50.4279C52.7026 50.4279 47.5356 55.5945 47.5356 61.9456V69.8033C47.5356 70.2277 47.192 70.5713 46.768 70.5713Z" fill="white"/>
<path d="M49.8379 66.4479C49.4139 66.4479 49.0703 66.1048 49.0703 65.6804V61.9461C49.0703 56.4421 53.5479 51.9636 59.0524 51.9636C64.5568 51.9636 69.0345 56.4421 69.0345 61.9461V65.5033C69.0345 65.9277 68.6904 66.2709 68.2664 66.2709C67.8424 66.2709 67.4989 65.9277 67.4989 65.5033V61.9461C67.4989 57.2884 63.7097 53.4997 59.0524 53.4997C54.3946 53.4997 50.6059 57.2884 50.6059 61.9461V65.6804C50.6059 66.1044 50.2619 66.4479 49.8379 66.4479Z" fill="white"/>
<path d="M68.8737 88.9999H49.2333C47.4508 88.9999 46 87.5496 46 85.7666V68.4299C46 66.6465 47.4508 65.1965 49.2333 65.1965H68.8737C70.6566 65.1965 72.107 66.6465 72.107 68.4299V85.7666C72.107 87.5496 70.6566 88.9999 68.8737 88.9999ZM49.2333 66.7321C48.297 66.7321 47.5356 67.494 47.5356 68.4299V85.7666C47.5356 86.7024 48.297 87.4643 49.2333 87.4643H68.8737C69.81 87.4643 70.5714 86.7024 70.5714 85.7666V68.4299C70.5714 67.494 69.81 66.7321 68.8737 66.7321H49.2333Z" fill="white"/>
<path d="M61.3562 83.6252H56.7489C56.3249 83.6252 55.9809 83.2816 55.9809 82.8572V77.0593C55.0002 76.1827 54.4453 74.9582 54.4453 73.6431C54.4453 71.1027 56.5121 69.0359 59.0526 69.0359C61.593 69.0359 63.6594 71.1027 63.6594 73.6431C63.6594 74.9582 63.1044 76.1827 62.1238 77.0593V82.8572C62.1238 83.2816 61.7802 83.6252 61.3562 83.6252ZM57.5165 82.0892H60.5882V76.6972C60.5882 76.4564 60.7011 76.2297 60.8931 76.0847C61.6752 75.4938 62.1238 74.6036 62.1238 73.6431C62.1238 71.9489 60.7459 70.5715 59.0526 70.5715C57.3588 70.5715 55.9809 71.9489 55.9809 73.6431C55.9809 74.6036 56.43 75.4938 57.212 76.0847C57.4036 76.2302 57.5165 76.4564 57.5165 76.6972V82.0892Z" fill="url(#paint0_linear)"/>
<path d="M86.6978 89.0001H75.9477C74.6775 89.0001 73.6445 87.9667 73.6445 86.6964C73.6445 85.4262 74.6775 84.3928 75.9477 84.3928H86.6978C87.968 84.3928 89.0015 85.4262 89.0015 86.6964C89.0015 87.9667 87.968 89.0001 86.6978 89.0001ZM75.9477 85.9289C75.5246 85.9289 75.1801 86.2729 75.1801 86.6964C75.1801 87.12 75.5246 87.4645 75.9477 87.4645H86.6978C87.1214 87.4645 87.4658 87.12 87.4658 86.6964C87.4658 86.2729 87.1214 85.9289 86.6978 85.9289H75.9477Z" fill="white"/>
<path d="M86.6978 81.3216H75.9477C74.6775 81.3216 73.6445 80.2882 73.6445 79.018C73.6445 77.7478 74.6775 76.7144 75.9477 76.7144H86.6978C87.968 76.7144 89.0015 77.7478 89.0015 79.018C89.0015 80.2882 87.968 81.3216 86.6978 81.3216ZM75.9477 78.25C75.5246 78.25 75.1801 78.5944 75.1801 79.018C75.1801 79.4415 75.5246 79.786 75.9477 79.786H86.6978C87.1214 79.786 87.4658 79.4415 87.4658 79.018C87.4658 78.5944 87.1214 78.25 86.6978 78.25H75.9477Z" fill="white"/>
<path d="M86.6978 73.6431H75.9477C74.6775 73.6431 73.6445 72.6097 73.6445 71.3395C73.6445 70.0693 74.6775 69.0359 75.9477 69.0359H86.6978C87.968 69.0359 89.0015 70.0693 89.0015 71.3395C89.0015 72.6097 87.968 73.6431 86.6978 73.6431ZM75.9477 70.5715C75.5246 70.5715 75.1801 70.9155 75.1801 71.3395C75.1801 71.7631 75.5246 72.1071 75.9477 72.1071H86.6978C87.1214 72.1071 87.4658 71.7631 87.4658 71.3395C87.4658 70.9155 87.1214 70.5715 86.6978 70.5715H75.9477Z" fill="white"/>
<path d="M86.6978 65.9642H75.9477C74.6775 65.9642 73.6445 64.9308 73.6445 63.6606C73.6445 62.3904 74.6775 61.3574 75.9477 61.3574H86.6978C87.968 61.3574 89.0015 62.3904 89.0015 63.6606C89.0015 64.9308 87.968 65.9642 86.6978 65.9642ZM75.9477 62.893C75.5246 62.893 75.1801 63.2371 75.1801 63.6606C75.1801 64.0846 75.5246 64.4286 75.9477 64.4286H86.6978C87.1214 64.4286 87.4658 64.0846 87.4658 63.6606C87.4658 63.2371 87.1214 62.893 86.6978 62.893H75.9477Z" fill="white"/>
<path d="M86.6978 58.2857H75.9477C74.6775 58.2857 73.6445 57.2523 73.6445 55.9821C73.6445 54.7119 74.6775 53.6785 75.9477 53.6785H86.6978C87.968 53.6785 89.0015 54.7119 89.0015 55.9821C89.0015 57.2523 87.968 58.2857 86.6978 58.2857ZM75.9477 55.2145C75.5246 55.2145 75.1801 55.5585 75.1801 55.9821C75.1801 56.4056 75.5246 56.7501 75.9477 56.7501H86.6978C87.1214 56.7501 87.4658 56.4056 87.4658 55.9821C87.4658 55.5585 87.1214 55.2145 86.6978 55.2145H75.9477Z" fill="white"/>
<path d="M86.6981 50.6072H70.5732C69.3029 50.6072 68.2695 49.5738 68.2695 48.3036C68.2695 47.0334 69.3029 46 70.5732 46H86.6981C87.9683 46 89.0017 47.0334 89.0017 48.3036C89.0017 49.5738 87.9683 50.6072 86.6981 50.6072ZM70.5732 47.5356C70.15 47.5356 69.8051 47.8801 69.8051 48.3036C69.8051 48.7272 70.15 49.0716 70.5732 49.0716H86.6981C87.1216 49.0716 87.4661 48.7272 87.4661 48.3036C87.4661 47.8801 87.1216 47.5356 86.6981 47.5356H70.5732Z" fill="white"/>
<defs>
<linearGradient id="paint0_linear" x1="54.4453" y1="74.0702" x2="63.8609" y2="74.3363" gradientUnits="userSpaceOnUse">
<stop stop-color="#4697FC"/>
<stop offset="1" stop-color="#1B5FFD"/>
</linearGradient>
</defs>
</svg>
